<svg xmlns="http://www.w3.org/2000/svg" viewBox="0 0 322.9 322.91"><defs><style>.cls-1{fill:#464646;}</style></defs><title>Zasób 2</title><g id="Warstwa_2" data-name="Warstwa 2"><g id="Layer_1" data-name="Layer 1"><path class="cls-1" d="M161.45,49.81a8.5,8.5,0,0,0-8.5,8.5V73.76a8.5,8.5,0,0,0,17,0V58.31A8.5,8.5,0,0,0,161.45,49.81Z"/><path class="cls-1" d="M161.45,240.65a8.5,8.5,0,0,0-8.5,8.5V264.6a8.5,8.5,0,0,0,17,0V249.15A8.5,8.5,0,0,0,161.45,240.65Z"/><path class="cls-1" d="M73.76,153H58.3a8.5,8.5,0,0,0,0,17H73.76a8.5,8.5,0,1,0,0-17Z"/><path class="cls-1" d="M264.6,153H249.14a8.5,8.5,0,0,0,0,17H264.6a8.5,8.5,0,0,0,0-17Z"/><path class="cls-1" d="M217.27,64.77a8.5,8.5,0,0,0-11.61,3.11l-7.73,13.38a8.5,8.5,0,1,0,14.72,8.5l7.73-13.38A8.5,8.5,0,0,0,217.27,64.77Z"/><path class="cls-1" d="M121.86,230a8.5,8.5,0,0,0-11.61,3.11l-7.73,13.38a8.5,8.5,0,1,0,14.72,8.5L125,241.65A8.5,8.5,0,0,0,121.86,230Z"/><path class="cls-1" d="M89.76,110.25l-13.38-7.73a8.5,8.5,0,0,0-8.5,14.72L81.26,125a8.5,8.5,0,0,0,8.5-14.72Z"/><path class="cls-1" d="M255,205.67l-13.38-7.73a8.5,8.5,0,1,0-8.5,14.72l13.38,7.73a8.5,8.5,0,0,0,8.5-14.72Z"/><path class="cls-1" d="M246.53,102.52l-13.38,7.73a8.5,8.5,0,1,0,8.5,14.72L255,117.24a8.5,8.5,0,0,0-8.5-14.72Z"/><path class="cls-1" d="M81.26,197.94l-13.38,7.73a8.5,8.5,0,1,0,8.5,14.72l13.38-7.73a8.5,8.5,0,0,0-8.5-14.72Z"/><path class="cls-1" d="M117.24,67.88a8.5,8.5,0,1,0-14.72,8.5l7.73,13.38A8.5,8.5,0,1,0,125,81.26Z"/><path class="cls-1" d="M212.66,233.15a8.5,8.5,0,1,0-14.72,8.5L205.66,255a8.5,8.5,0,1,0,14.72-8.5Z"/><path class="cls-1" d="M161.45,133.07a28.39,28.39,0,1,0,28.39,28.39A28.42,28.42,0,0,0,161.45,133.07Zm0,39.78a11.39,11.39,0,1,1,11.39-11.39A11.4,11.4,0,0,1,161.45,172.85Z"/><path class="cls-1" d="M161.45,0C72.43,0,0,72.43,0,161.46S72.43,322.91,161.45,322.91,322.9,250.49,322.9,161.46,250.47,0,161.45,0Zm0,305.91C81.8,305.91,17,241.11,17,161.46S81.8,17,161.45,17,305.9,81.8,305.9,161.46,241.1,305.91,161.45,305.91Z"/></g></g></svg>