<?xml version="1.0" standalone="no"?>
<!DOCTYPE svg PUBLIC "-//W3C//DTD SVG 1.1//EN" "http://www.w3.org/Graphics/SVG/1.1/DTD/svg11.dtd" >
<svg xmlns="http://www.w3.org/2000/svg">
<metadata>Generated by IcoMoon</metadata>
<defs>
<font id="icomoon" horiz-adv-x="1024">
<font-face units-per-em="1024" ascent="960" descent="-64" />
<missing-glyph horiz-adv-x="1024" />
<glyph unicode="&#x20;" horiz-adv-x="512" d="" />
<glyph unicode="&#xe900;" glyph-name="notification" horiz-adv-x="1065" d="M1003.52 58.88h-942.080c-33.932 0-61.44 27.508-61.44 61.44s27.508 61.44 61.44 61.44c33.932 0 61.44 27.508 61.44 61.44v225.28c0.1 163.38 95.841 304.375 234.263 370.037 29.26 71.91 96.521 121.378 175.337 121.378s146.077-49.468 172.43-119.050c141.328-67.99 237.070-208.985 237.17-372.352v-225.294c0-33.932 27.508-61.44 61.44-61.44s61.44-27.508 61.44-61.44c0-33.932-27.508-61.44-61.44-61.44zM235.11 181.76h594.739c-6.72 18.287-10.621 39.403-10.65 61.427v225.293c-0.198 122.279-76.91 226.59-184.809 267.631-23.337 8.038-39.135 26.291-42.879 48.63-4.515 29.509-29.082 51.68-58.96 52.378-30.575-0.224-55.81-22.496-60.643-51.658-3.843-23.059-19.641-41.312-40.578-48.563-109.57-42.318-185.571-146.41-185.571-268.253 0-0.058 0-0.116 0-0.175v-225.271c-0.029-22.037-3.929-43.153-11.057-62.719zM532.48-64c-101.797 0-184.32 82.523-184.32 184.32 0 33.932 27.508 61.44 61.44 61.44s61.44-27.508 61.44-61.44c0-33.932 27.508-61.44 61.44-61.44s61.44 27.508 61.44 61.44c0 33.932 27.508 61.44 61.44 61.44s61.44-27.508 61.44-61.44c0-101.797-82.523-184.32-184.32-184.32z" />
<glyph unicode="&#xe901;" glyph-name="search" horiz-adv-x="989" d="M413.411 133.179c-228.32 0-413.411 185.090-413.411 413.411s185.090 413.411 413.411 413.411c228.32 0 413.411-185.090 413.411-413.411s-185.090-413.411-413.411-413.411zM413.411 852.154c-168.759 0-305.564-136.806-305.564-305.564s136.806-305.564 305.564-305.564c168.759 0 305.564 136.806 305.564 305.564s-136.806 305.564-305.564 305.564zM934.667-64.539c-15.441 0.408-29.208 7.247-38.78 17.924l-279.546 289.798c-9.313 9.683-15.049 22.865-15.049 37.387 0 29.803 24.16 53.964 53.964 53.964 15.282 0 29.080-6.352 38.898-16.56l279.339-290.663c9.639-9.738 15.594-23.138 15.594-37.928 0-29.781-24.142-53.923-53.923-53.923-0.174 0-0.348 0.001-0.522 0.002z" />
<glyph unicode="&#xe902;" glyph-name="menu" horiz-adv-x="1158" d="M1090.783 737.391h-667.826c-36.883 0-66.783 29.9-66.783 66.783s29.9 66.783 66.783 66.783h667.826c36.883 0 66.783-29.9 66.783-66.783s-29.9-66.783-66.783-66.783zM1090.783 381.217h-667.826c-36.883 0-66.783 29.9-66.783 66.783s29.9 66.783 66.783 66.783h667.826c36.883 0 66.783-29.9 66.783-66.783s-29.9-66.783-66.783-66.783zM1090.783 25.043h-667.826c-36.883 0-66.783 29.9-66.783 66.783s29.9 66.783 66.783 66.783h667.826c36.883 0 66.783-29.9 66.783-66.783s-29.9-66.783-66.783-66.783zM244.87 648.348h-178.087c-36.883 0-66.783 29.9-66.783 66.783v178.087c0 36.883 29.9 66.783 66.783 66.783h178.087c36.883 0 66.783-29.9 66.783-66.783v-178.087c0-36.883-29.9-66.783-66.783-66.783zM133.565 781.913h44.522v44.522h-44.522zM244.87 292.174h-178.087c-36.883 0-66.783 29.9-66.783 66.783v178.087c0 36.883 29.9 66.783 66.783 66.783h178.087c36.883 0 66.783-29.9 66.783-66.783v-178.087c0-36.883-29.9-66.783-66.783-66.783zM133.565 425.739h44.522v44.522h-44.522zM244.87-64h-178.087c-36.883 0-66.783 29.9-66.783 66.783v178.087c0 36.883 29.9 66.783 66.783 66.783h178.087c36.883 0 66.783-29.9 66.783-66.783v-178.087c0-36.883-29.9-66.783-66.783-66.783zM133.565 69.565h44.522v44.522h-44.522z" />
<glyph unicode="&#xe903;" glyph-name="server" d="M1002.667 448h-981.333c-11.782 0-21.333 9.551-21.333 21.333v256c0 11.782 9.551 21.333 21.333 21.333h981.333c11.782 0 21.333-9.551 21.333-21.333v-256c0-11.782-9.551-21.333-21.333-21.333zM42.667 490.667h938.667v213.333h-938.667zM1002.667 704c-5.231 0.054-10.001 1.982-13.682 5.144l-249.998 208.19h-453.973l-250.027-208.213c-3.673-3.069-8.445-4.933-13.653-4.933-11.797 0-21.36 9.563-21.36 21.36 0 6.589 2.983 12.481 7.673 16.399l256.034 213.361c3.621 2.925 8.28 4.695 13.353 4.695 0.106 0 0.211-0.001 0.317-0.002h469.317c5.231-0.054 10.001-1.982 13.682-5.144l255.972-213.31c4.584-3.936 7.47-9.738 7.47-16.214 0-11.708-9.432-21.213-21.112-21.332zM597.333 554.667c-23.564 0-42.667 19.103-42.667 42.667s19.103 42.667 42.667 42.667c23.564 0 42.667-19.103 42.667-42.667s-19.103-42.667-42.667-42.667zM597.333 597.333v0zM725.333 554.667c-23.564 0-42.667 19.103-42.667 42.667s19.103 42.667 42.667 42.667c23.564 0 42.667-19.103 42.667-42.667s-19.103-42.667-42.667-42.667zM725.333 597.333v0zM853.333 554.667c-23.564 0-42.667 19.103-42.667 42.667s19.103 42.667 42.667 42.667c23.564 0 42.667-19.103 42.667-42.667s-19.103-42.667-42.667-42.667zM853.333 597.333v0zM149.333 533.333c-35.346 0-64 28.654-64 64s28.654 64 64 64c35.346 0 64-28.654 64-64s-28.654-64-64-64zM149.333 618.667c-11.782 0-21.333-9.551-21.333-21.333s9.551-21.333 21.333-21.333c11.782 0 21.333 9.551 21.333 21.333s-9.551 21.333-21.333 21.333zM1002.667 192h-981.333c-11.782 0-21.333 9.551-21.333 21.333v256c0 11.782 9.551 21.333 21.333 21.333s21.333-9.551 21.333-21.333v-234.667h938.667v234.667c0 11.782 9.551 21.333 21.333 21.333s21.333-9.551 21.333-21.333v-256c0-11.782-9.551-21.333-21.333-21.333zM597.333 298.667c-23.564 0-42.667 19.103-42.667 42.667s19.103 42.667 42.667 42.667c23.564 0 42.667-19.103 42.667-42.667s-19.103-42.667-42.667-42.667zM597.333 341.333v0zM725.333 298.667c-23.564 0-42.667 19.103-42.667 42.667s19.103 42.667 42.667 42.667c23.564 0 42.667-19.103 42.667-42.667s-19.103-42.667-42.667-42.667zM725.333 341.333v0zM853.333 298.667c-23.564 0-42.667 19.103-42.667 42.667s19.103 42.667 42.667 42.667c23.564 0 42.667-19.103 42.667-42.667s-19.103-42.667-42.667-42.667zM853.333 341.333v0zM149.333 277.333c-35.346 0-64 28.654-64 64s28.654 64 64 64c35.346 0 64-28.654 64-64s-28.654-64-64-64zM149.333 362.667c-11.782 0-21.333-9.551-21.333-21.333s9.551-21.333 21.333-21.333c11.782 0 21.333 9.551 21.333 21.333s-9.551 21.333-21.333 21.333zM917.333-64h-810.667c-58.91 0-106.667 47.756-106.667 106.667v170.667c0 11.782 9.551 21.333 21.333 21.333s21.333-9.551 21.333-21.333v-170.667c0-35.346 28.654-64 64-64h810.667c35.346 0 64 28.654 64 64v170.667c0 11.782 9.551 21.333 21.333 21.333s21.333-9.551 21.333-21.333v-170.667c0-58.91-47.756-106.667-106.667-106.667zM597.333 42.667c-23.564 0-42.667 19.103-42.667 42.667s19.103 42.667 42.667 42.667c23.564 0 42.667-19.103 42.667-42.667s-19.103-42.667-42.667-42.667zM597.333 85.333v0zM725.333 42.667c-23.564 0-42.667 19.103-42.667 42.667s19.103 42.667 42.667 42.667c23.564 0 42.667-19.103 42.667-42.667s-19.103-42.667-42.667-42.667zM725.333 85.333v0zM853.333 42.667c-23.564 0-42.667 19.103-42.667 42.667s19.103 42.667 42.667 42.667c23.564 0 42.667-19.103 42.667-42.667s-19.103-42.667-42.667-42.667zM853.333 85.333v0zM149.333 21.333c-35.346 0-64 28.654-64 64s28.654 64 64 64c35.346 0 64-28.654 64-64s-28.654-64-64-64zM149.333 106.667c-11.782 0-21.333-9.551-21.333-21.333s9.551-21.333 21.333-21.333c11.782 0 21.333 9.551 21.333 21.333s-9.551 21.333-21.333 21.333z" />
<glyph unicode="&#xe904;" glyph-name="storage" horiz-adv-x="931" d="M465.455 541.091c-261.12 0-465.455 93.091-465.455 209.455s204.335 209.455 465.455 209.455 465.455-93.091 465.455-209.455-204.335-209.455-465.455-209.455zM465.455 913.455c-246.691 0-418.909-85.644-418.909-162.909s172.218-162.909 418.909-162.909 418.909 85.644 418.909 162.909-172.218 162.909-418.909 162.909zM465.455 354.909c-261.12 0-465.455 93.091-465.455 209.455 0 12.853 10.42 23.273 23.273 23.273s23.273-10.42 23.273-23.273c0-77.265 172.218-162.909 418.909-162.909s418.909 85.644 418.909 162.909c0 12.853 10.42 23.273 23.273 23.273s23.273-10.42 23.273-23.273c0-116.364-204.335-209.455-465.455-209.455zM465.455 145.455c-261.12 0-465.455 93.091-465.455 209.455 0 12.853 10.42 23.273 23.273 23.273s23.273-10.42 23.273-23.273c0-77.265 172.218-162.909 418.909-162.909s418.909 85.644 418.909 162.909c0 12.853 10.42 23.273 23.273 23.273s23.273-10.42 23.273-23.273c0-117.295-204.335-209.455-465.455-209.455zM465.455-64c-261.12 0-465.455 93.091-465.455 209.455v605.091c0 12.853 10.42 23.273 23.273 23.273s23.273-10.42 23.273-23.273v-605.091c0-77.265 172.218-162.909 418.909-162.909s418.909 85.644 418.909 162.909v605.091c0 12.853 10.42 23.273 23.273 23.273s23.273-10.42 23.273-23.273v-605.091c0-116.364-204.335-209.455-465.455-209.455z" />
<glyph unicode="&#xe905;" glyph-name="clock" horiz-adv-x="898" d="M490.966 904.649h-85.057c-15.285 0-27.676 12.391-27.676 27.676s12.391 27.676 27.676 27.676h84.319c15.285 0 27.676-12.391 27.676-27.676s-12.391-27.676-27.676-27.676zM448.899 778.263c-15.285 0-27.676 12.391-27.676 27.676v126.386c0 15.285 12.391 27.676 27.676 27.676s27.676-12.391 27.676-27.676v-126.386c0-15.285-12.391-27.676-27.676-27.676zM848.721 715.163c-7.239 0.292-13.714 3.34-18.448 8.116l-64.025 63.103c-4.602 4.929-7.428 11.568-7.428 18.867 0 15.285 12.391 27.676 27.676 27.676 7.299 0 13.938-2.826 18.883-7.443l63.084-63.086c5.001-5.007 8.094-11.921 8.094-19.558 0-15.285-12.391-27.676-27.676-27.676-0.056 0-0.113 0-0.169 0.001zM735.988 664.793c-15.274 0.014-27.651 12.399-27.651 27.676 0 7.636 3.093 14.55 8.094 19.558l81.366 81.92c4.929 4.602 11.568 7.428 18.867 7.428 15.285 0 27.676-12.391 27.676-27.676 0-7.299-2.826-13.938-7.443-18.883l-81.352-81.35c-4.919-5.231-11.839-8.531-19.532-8.671zM301.48 504.643c-7.64 0.007-14.554 3.108-19.557 8.118l-63.101 63.101c-4.974 5.019-8.047 11.93-8.047 19.557 0 15.348 12.442 27.789 27.789 27.789 7.72 0 14.704-3.148 19.74-8.23l63.103-63.103c5.001-5.007 8.094-11.921 8.094-19.557 0-15.276-12.377-27.662-27.65-27.676zM448.899 62.386c-15.285 0-27.676 12.391-27.676 27.676v84.134c0 15.285 12.391 27.676 27.676 27.676s27.676-12.391 27.676-27.676v-84.319c-0.105-15.205-12.455-27.491-27.675-27.491 0 0 0 0-0.001 0zM238.195 146.52c-15.274 0.014-27.651 12.399-27.651 27.676 0 7.636 3.093 14.55 8.094 19.558l63.1 63.1c4.929 4.602 11.568 7.428 18.867 7.428 15.285 0 27.676-12.391 27.676-27.676 0-7.299-2.826-13.938-7.443-18.883l-62.532-63.084c-5.010-5.019-11.936-8.123-19.587-8.123-0.184 0-0.368 0.002-0.552 0.005zM743.553 357.224h-84.134c-15.285 0-27.676 12.391-27.676 27.676s12.391 27.676 27.676 27.676h84.134c15.285 0 27.676-12.391 27.676-27.676s-12.391-27.676-27.676-27.676zM659.419 146.52c-7.64 0.007-14.554 3.108-19.557 8.118l-63.101 63.101c-5.426 5.066-8.809 12.262-8.809 20.248 0 15.285 12.391 27.676 27.676 27.676 7.986 0 15.182-3.382 20.233-8.792l63.115-63.117c5.001-5.007 8.094-11.921 8.094-19.557 0-15.276-12.377-27.662-27.65-27.676zM596.319 504.643c-15.274 0.014-27.651 12.399-27.651 27.676 0 7.636 3.093 14.55 8.094 19.558l63.1 63.1c4.929 4.602 11.568 7.428 18.867 7.428 15.285 0 27.676-12.391 27.676-27.676 0-7.299-2.826-13.938-7.443-18.883l-63.086-63.084c-5.004-5.010-11.918-8.111-19.556-8.118zM448.899-64c-247.835 0.21-448.689 201.063-448.899 448.879 0 15.306 12.391 27.696 27.676 27.696h393.548v393.364c0 15.285 12.391 27.676 27.676 27.676 243.974-5.104 439.799-204.087 439.799-448.807s-195.825-443.704-439.324-448.799zM56.274 357.224c14.832-205.169 184.925-366.002 392.583-366.002 217.351 0 393.548 176.197 393.548 393.548 0 207.597-160.738 377.651-364.548 392.496l-1.282-392.366c0-15.285-12.391-27.676-27.676-27.676z" />
<glyph unicode="&#xe906;" glyph-name="logo" horiz-adv-x="6460" d="M0-39.462h160.757l390.724 838.705-79.592 160.757-471.889-999.462zM539.841 500.38l80.536 149.432 321.514-677.633-160.757-11.325zM1727.115-43.237h151.634v667.252h255.135v137.792h-660.645v-137.792h253.876zM2911.872 761.806v-805.043h565.324v139.994h-413.69v665.049h-151.634zM4907.65-43.237h165.476l-359.265 805.043h-165.476l-360.838-805.358h164.218l68.896 151.634h420.296l66.694-151.319zM4781.813 249.649h-298.549l149.432 343.221zM6434.055 628.734c-61.031 123.95-190.643 159.813-314.593 159.813-148.173 0-311.447-68.896-311.447-234.372 0-180.262 151.634-223.99 314.593-243.495 106.962-11.64 186.239-42.47 186.239-118.287 0-87.457-89.659-120.489-184.981-120.489s-190.643 39.010-226.192 127.41l-125.837-65.435c59.773-146.915 186.239-197.564 350.457-197.564 179.318 0 337.873 77.075 337.873 256.079 0 191.902-157.296 235.63-324.031 256.079-96.58 11.64-179.318 31.459-179.318 100.984 0 59.773 54.11 106.962 166.42 106.962 87.457 0 163.274-43.728 190.643-89.659z" />
<glyph unicode="&#xe907;" glyph-name="logo-small" horiz-adv-x="965" d="M0-64h164.786l400.137 859.214-82.326 164.786-482.598-1024zM553.163 489.163l82.19 153.025 329.843-694.427-164.786-11.761z" />
<glyph unicode="&#xe908;" glyph-name="arrow" horiz-adv-x="1650" d="M824.783-64c-0.058 0-0.127 0-0.197 0-28.441 0-53.967 12.476-71.406 32.253l-729.706 833.769c-14.925 16.805-24.042 39.060-24.042 63.445 0 52.873 42.862 95.734 95.734 95.734 28.488 0 54.070-12.443 71.607-32.191l658.009-753.823 657.923 752.456c17.623 19.846 43.205 32.29 71.693 32.29 52.873 0 95.734-42.862 95.734-95.734 0-24.385-9.117-46.64-24.127-63.543l-729.53-832.298c-17.529-19.881-43.055-32.357-71.496-32.357-0.069 0-0.138 0-0.207 0z" />
<glyph unicode="&#xe909;" glyph-name="tick" d="M341.333-64c-0.195-0.001-0.426-0.002-0.658-0.002-31.256 0-59.568 12.603-80.132 33.005l-227.548 227.548c-25.731 21.026-42.026 52.761-42.026 88.301 0 62.838 50.94 113.778 113.778 113.778 36.395 0 68.799-17.088 89.625-43.679l129.894-129.956 493.796 682.667c20.633 20.856 49.257 33.771 80.897 33.771 62.838 0 113.778-50.94 113.778-113.778 0-17.199-3.816-33.507-10.648-48.123l-568.596-795.746c-20.783-28.934-54.272-47.606-92.132-47.787z" />
<glyph unicode="&#xe90a;" glyph-name="close" d="M896-64c-35.333 0.032-67.31 14.375-90.452 37.545l-768.001 768.001c-21.285 22.796-34.354 53.502-34.354 87.26 0 70.692 57.308 128 128 128 33.758 0 64.464-13.069 87.335-34.423l767.926-767.931c23.13-23.158 37.434-55.135 37.434-90.453 0-70.653-57.243-127.936-127.881-128zM128-64c-70.644 0.064-127.887 57.347-127.887 128 0 35.318 14.304 67.296 37.435 90.455l767.999 767.999c22.796 21.285 53.502 34.354 87.26 34.354 70.692 0 128-57.308 128-128 0-33.758-13.069-64.464-34.423-87.335l-767.931-767.926c-23.143-23.171-55.12-37.515-90.447-37.547z" />
<glyph unicode="&#xe90b;" glyph-name="mail" horiz-adv-x="1446" d="M1264.941-64h-1084.235c-99.801 0-180.706 80.905-180.706 180.706v662.588c0 99.801 80.905 180.706 180.706 180.706h1084.235c99.801 0 180.706-80.905 180.706-180.706v-662.588c0-99.801-80.905-180.706-180.706-180.706zM180.706 779.294v-662.588h1084.235v662.588zM722.824 267.294c-0.024 0-0.052 0-0.080 0-21.479 0-41.208 7.495-56.713 20.012l-602.181 481.748c-20.672 16.707-33.782 42.060-33.782 70.475 0 49.928 40.475 90.403 90.403 90.403 21.513 0 41.271-7.514 56.792-20.062l545.561-436.572 545.732 436.706c15.909 14.27 37.046 22.996 60.222 22.996 49.901 0 90.353-40.452 90.353-90.353 0-30.239-14.855-57.009-37.665-73.409l-602.622-482.066c-15.201-12.276-34.725-19.75-55.99-19.878z" />
<glyph unicode="&#xe90c;" glyph-name="arrow-with-bar" horiz-adv-x="950" d="M919.040 520.533l-433.92 433.067c-3.867 3.898-9.225 6.31-15.147 6.31s-11.28-2.413-15.145-6.309l-426.668-426.668c-18.617-19.794-30.057-46.526-30.057-75.929 0-31.534 13.157-59.995 34.282-80.192 20.96-21.179 49.899-34.347 81.914-34.599 0.344-0.003 0.694-0.005 1.044-0.005 28.596 0 54.488 11.577 73.245 30.3l179.198 178.772v-523.947c-0.001-0.141-0.001-0.308-0.001-0.474 0-21.043 8.656-40.065 22.601-53.699 21.411-19.629 50.048-31.649 81.493-31.649 1.355 0 2.706 0.022 4.050 0.067 0.964-0.045 2.326-0.068 3.695-0.068 31.508 0 60.166 12.197 81.512 32.127 12.631 13.538 20.429 31.859 20.429 52.002 0 0.595-0.007 1.189-0.020 1.782l0.002 523.859 177.067-184.747c19.121-18.989 45.467-30.724 74.553-30.724 0.34 0 0.68 0.002 1.019 0.005 31.833 0.051 60.662 13.096 81.43 34.121 20.936 20.283 33.924 48.64 33.924 80.030 0 29.684-11.614 56.655-30.546 76.617z" />
<glyph unicode="&#xe90d;" glyph-name="messages" horiz-adv-x="1121" d="M14.495 519.072c-8.734-3.52-14.786-11.924-14.786-21.742s6.052-18.223 14.629-21.686l388.248-151.084 679.861 635.441zM420.822 277.333v0-317.954c0.135-12.809 10.55-23.14 23.378-23.14 8.511 0 15.959 4.548 20.048 11.345l153.893 264.288 280.548-155.237c3.748-2.668 8.419-4.266 13.464-4.266 11.445 0 20.969 8.224 22.985 19.084l187.054 860.024z" />
<glyph unicode="&#xe90e;" glyph-name="cluster" d="M170.667 341.333c0-11.782-9.551-21.333-21.333-21.333s-21.333 9.551-21.333 21.333c0 11.782 9.551 21.333 21.333 21.333s21.333-9.551 21.333-21.333zM170.667 597.333c0-11.782-9.551-21.333-21.333-21.333s-21.333 9.551-21.333 21.333c0 11.782 9.551 21.333 21.333 21.333s21.333-9.551 21.333-21.333zM0 448v-149.333c0-58.91 47.756-106.667 106.667-106.667h405.333v-213.333h-277.333c-11.782 0-21.333-9.551-21.333-21.333s9.551-21.333 21.333-21.333h554.667c11.782 0 21.333 9.551 21.333 21.333s-9.551 21.333-21.333 21.333h-234.667v213.333h362.667c58.91 0 106.667 47.756 106.667 106.667v149.333zM149.333 277.333c-35.346 0-64 28.654-64 64s28.654 64 64 64c35.346 0 64-28.654 64-64s-28.654-64-64-64zM597.333 298.667c-23.564 0-42.667 19.103-42.667 42.667s19.103 42.667 42.667 42.667c23.564 0 42.667-19.103 42.667-42.667s-19.103-42.667-42.667-42.667zM725.333 298.667c-23.564 0-42.667 19.103-42.667 42.667s19.103 42.667 42.667 42.667c23.564 0 42.667-19.103 42.667-42.667s-19.103-42.667-42.667-42.667zM853.333 298.667c-23.564 0-42.667 19.103-42.667 42.667s19.103 42.667 42.667 42.667c23.564 0 42.667-19.103 42.667-42.667s-19.103-42.667-42.667-42.667zM760.32 954.88c-3.652 3.138-8.422 5.066-13.642 5.12h-469.345c-5.231-0.054-10.001-1.982-13.682-5.144l-249.998-208.19h996.693zM1024 704h-1024v-213.333h1024zM149.333 533.333c-35.346 0-64 28.654-64 64s28.654 64 64 64c35.346 0 64-28.654 64-64s-28.654-64-64-64zM597.333 554.667c-23.564 0-42.667 19.103-42.667 42.667s19.103 42.667 42.667 42.667c23.564 0 42.667-19.103 42.667-42.667s-19.103-42.667-42.667-42.667zM725.333 554.667c-23.564 0-42.667 19.103-42.667 42.667s19.103 42.667 42.667 42.667c23.564 0 42.667-19.103 42.667-42.667s-19.103-42.667-42.667-42.667zM853.333 554.667c-23.564 0-42.667 19.103-42.667 42.667s19.103 42.667 42.667 42.667c23.564 0 42.667-19.103 42.667-42.667s-19.103-42.667-42.667-42.667zM85.333-42.667c0-11.782-9.551-21.333-21.333-21.333s-21.333 9.551-21.333 21.333c0 11.782 9.551 21.333 21.333 21.333s21.333-9.551 21.333-21.333zM170.667-42.667c0-11.782-9.551-21.333-21.333-21.333s-21.333 9.551-21.333 21.333c0 11.782 9.551 21.333 21.333 21.333s21.333-9.551 21.333-21.333zM896-42.667c0-11.782-9.551-21.333-21.333-21.333s-21.333 9.551-21.333 21.333c0 11.782 9.551 21.333 21.333 21.333s21.333-9.551 21.333-21.333zM981.333-42.667c0-11.782-9.551-21.333-21.333-21.333s-21.333 9.551-21.333 21.333c0 11.782 9.551 21.333 21.333 21.333s21.333-9.551 21.333-21.333z" />
<glyph unicode="&#xe90f;" glyph-name="page" horiz-adv-x="1293" d="M1158.737 960h-1024c-74.413 0-134.737-60.324-134.737-134.737v-134.737h1293.474v134.737c0 74.413-60.324 134.737-134.737 134.737zM215.579 744.421c-29.765 0-53.895 24.129-53.895 53.895s24.129 53.895 53.895 53.895c29.765 0 53.895-24.129 53.895-53.895s-24.129-53.895-53.895-53.895zM377.263 744.421c-29.765 0-53.895 24.129-53.895 53.895s24.129 53.895 53.895 53.895c29.765 0 53.895-24.129 53.895-53.895s-24.129-53.895-53.895-53.895zM538.947 744.421c-29.765 0-53.895 24.129-53.895 53.895s24.129 53.895 53.895 53.895c29.765 0 53.895-24.129 53.895-53.895s-24.129-53.895-53.895-53.895zM0 70.737c0-74.413 60.324-134.737 134.737-134.737h1024c74.413 0 134.737 60.324 134.737 134.737v565.895h-1293.474z" />
<glyph unicode="&#xe910;" glyph-name="user" d="M979.2 139.947c-31.573 62.72-138.24 101.973-286.293 156.587l-52.907 19.2v102.827c35.959 30.687 59.72 74.748 63.535 124.395 11.326 11.793 19.143 26.454 21.742 42.852 2.354 8.185 3.675 17.091 3.675 26.305 0 22.621-7.966 43.382-21.246 59.631l3.974 9.645c22.561 45.226 35.766 98.517 35.766 154.892 0 8.252-0.283 16.439-0.84 24.55-15.3 73.145-119.833 99.171-205.166 99.171-66.133 0-146.773-16.64-170.667-62.293-23.898-1.741-44.705-13.654-58.312-31.382-37.261-50.112-10.381-138.858 4.125-186.645l2.133-7.253c-14.634-16.42-23.577-38.191-23.577-62.050 0-9.051 1.287-17.801 3.687-26.077 2.491-16.171 10.309-30.832 21.59-42 4.212-49.789 27.901-93.338 63.325-123.528l0.255-103.039-52.48-19.627c-148.053-54.613-256-93.867-286.293-156.587-26.471-53.16-42.914-115.491-45.205-181.419-0.021-12.55 9.53-22.101 21.312-22.101h981.333c11.782 0 21.333 9.551 21.333 21.333-2.117 66.795-18.422 129.297-45.979 185.262z" />
<glyph unicode="&#xe911;" glyph-name="time" d="M512-64c-282.77 0-512 229.23-512 512s229.23 512 512 512c282.77 0 512-229.23 512-512-0.233-282.676-229.324-511.767-511.977-512zM512 878.080c-237.527 0-430.080-192.553-430.080-430.080s192.553-430.080 430.080-430.080c237.527 0 430.080 192.553 430.080 430.080-0.233 237.433-192.647 429.847-430.058 430.080zM737.28 181.76c-0.090-0.001-0.196-0.001-0.302-0.001-10.625 0-20.305 4.045-27.584 10.68l-245.728 225.251c-8.073 7.503-13.108 18.18-13.108 30.033 0 0.097 0 0.195 0.001 0.292v225.265c0 22.622 18.338 40.96 40.96 40.96s40.96-18.338 40.96-40.96v-207.258l232.653-212.992c8.253-7.521 13.411-18.314 13.411-30.312 0-22.622-18.338-40.96-40.96-40.96-0.107 0-0.214 0-0.32 0.001z" />
<glyph unicode="&#xe912;" glyph-name="marked" d="M512 960c-282.77 0-512-229.23-512-512s229.23-512 512-512c282.77 0 512 229.23 512 512s-229.23 512-512 512zM739.84 581.547l-320-298.667c-3.821-3.647-9.008-5.892-14.72-5.892s-10.899 2.245-14.728 5.9l-106.658 106.659c-3.876 3.876-6.274 9.232-6.274 15.147 0 11.83 9.59 21.421 21.421 21.421 5.915 0 11.27-2.398 15.147-6.274l91.733-91.307 305.067 284.587c3.903 4.163 9.437 6.757 15.577 6.757 11.782 0 21.333-9.551 21.333-21.333 0-6.672-3.062-12.628-7.858-16.54z" />
<glyph unicode="&#xe913;" glyph-name="share" d="M873.962-64h-723.923c-82.864 0-150.038 67.174-150.038 150.038v85.037c0 12.294 9.967 22.261 22.261 22.261s22.261-9.967 22.261-22.261v-85.037c0-58.275 47.241-105.517 105.517-105.517h723.923c58.275 0 105.517 47.241 105.517 105.517v85.037c0 12.294 9.967 22.261 22.261 22.261s22.261-9.967 22.261-22.261v-85.037c0-82.864-67.174-150.038-150.038-150.038zM512 153.711c-12.294 0-22.261 9.967-22.261 22.261v761.767c0 12.294 9.967 22.261 22.261 22.261s22.261-9.967 22.261-22.261v-761.767c0-12.294-9.967-22.261-22.261-22.261zM823.652 603.826c-6.111 0.090-11.611 2.628-15.579 6.675l-296.073 295.628-296.070-295.624c-4.045-4.045-9.633-6.547-15.805-6.547-12.345 0-22.352 10.007-22.352 22.352 0 6.172 2.502 11.76 6.547 15.805l311.652 311.652c4.035 4.067 9.626 6.585 15.805 6.585s11.77-2.518 15.804-6.583l311.654-311.654c4.203-4.055 6.813-9.737 6.813-16.028 0-12.294-9.967-22.261-22.261-22.261-0.047 0-0.095 0-0.142 0z" />
<glyph unicode="&#xe914;" glyph-name="github" horiz-adv-x="1050" d="M525.054 960c-0.159 0-0.346 0-0.534 0-289.979 0-525.054-235.075-525.054-525.054 0-230.796 148.912-426.812 355.897-497.21 29.805-5.927 39.474 10.189 39.474 24.371s0 45.447 0 89.282c-146.654-31.909-177.596 70.587-177.596 70.587-10.073 32.356-30.705 58.946-57.79 76.38-48.253 32.563 2.996 32.563 2.996 32.563 34.609-4.854 63.648-25.175 80.297-53.628 19.707-35.277 56.274-58.39 98.24-58.39 20.144 0 39.044 5.325 55.369 14.645 1.675 27.292 13.566 51.736 31.689 69.983-115.396 12.564-237.876 57.688-237.876 258.814-0.012 0.826-0.019 1.801-0.019 2.778 0 53.383 20.6 101.955 54.284 138.201-6.957 18.617-10.913 40.255-10.913 62.818 0 27.491 5.873 53.61 16.433 77.17s43.678 12.986 143.919-55.023c39.429 11.231 84.713 17.689 131.505 17.689s92.076-6.458 135.009-18.531c96.736 68.851 140.894 54.669 140.894 54.669 9.873-22.138 15.623-47.973 15.623-75.15 0-22.872-4.072-44.792-11.531-65.076 33.798-34.722 54.274-83.12 54.274-136.3 0-1.141-0.009-2.28-0.028-3.416 0.002-201.599-122.8-245.756-239.801-257.682 22.304-22.623 36.078-53.707 36.078-88.008 0-3.057-0.109-6.088-0.324-9.090 0.023-69.862 0.023-126.267 0.023-143.673s9.347-30.298 36.099-25.141c207.722 73.147 353.935 267.692 353.935 496.387 0 288.404-232.527 522.498-520.332 525.033z" />
</font>
</defs>
</svg>
