<svg xmlns="http://www.w3.org/2000/svg" viewBox="0 0 4785.27 2573.1"><defs><style>.cls-1,.cls-13{fill:#777;}.cls-12,.cls-2{fill:#1e1e1e;}.cls-3{fill:#464646;}.cls-4{fill:#353535;}.cls-5{fill:#fff;}.cls-6{fill:#6fddef;}.cls-7{fill:#ffe3ae;}.cls-8{fill:#808285;}.cls-9{fill:#52d4f7;}.cls-10{fill:#a0a0a0;}.cls-11{fill:#7fc146;}.cls-12,.cls-13{fill-rule:evenodd;}</style></defs><title>Zasób 1</title><g id="Warstwa_2" data-name="Warstwa 2"><g id="Layer_1" data-name="Layer 1"><rect class="cls-1" x="1346.2" y="2127.72" width="352" height="40"/><path class="cls-2" d="M1698.2,2119.22h-352a8.5,8.5,0,0,0-8.5,8.5v40a8.5,8.5,0,0,0,8.5,8.5h352a8.5,8.5,0,0,0,8.5-8.5v-40A8.5,8.5,0,0,0,1698.2,2119.22Zm-8.5,40h-335v-23h335Z"/><polygon class="cls-1" points="1486.2 1532.39 1249.07 2389.94 1321.07 2389.94 1522.2 1662.58 1723.34 2389.94 1795.34 2389.94 1558.2 1532.39 1486.2 1532.39"/><path class="cls-2" d="M1566.4,1530.12a8.5,8.5,0,0,0-8.19-6.23h-72a8.5,8.5,0,0,0-8.19,6.23l-237.13,857.55a8.5,8.5,0,0,0,8.19,10.77h72a8.5,8.5,0,0,0,8.19-6.23l192.94-697.74,192.94,697.74a8.5,8.5,0,0,0,8.19,6.23h72a8.5,8.5,0,0,0,8.19-10.77Zm163.41,851.32L1530.4,1660.31a8.5,8.5,0,0,0-16.38,0L1314.6,2381.44h-54.36l232.43-840.55h59.06l232.43,840.55Z"/><rect class="cls-1" x="2935.89" y="2127.72" width="352" height="40"/><path class="cls-2" d="M3287.89,2119.22h-352a8.5,8.5,0,0,0-8.5,8.5v40a8.5,8.5,0,0,0,8.5,8.5h352a8.5,8.5,0,0,0,8.5-8.5v-40A8.5,8.5,0,0,0,3287.89,2119.22Zm-8.5,40h-335v-23h335Z"/><polygon class="cls-1" points="3075.89 1532.39 2838.75 2389.94 2910.75 2389.94 3111.89 1662.58 3313.02 2389.94 3385.02 2389.94 3147.89 1532.39 3075.89 1532.39"/><path class="cls-2" d="M3156.08,1530.12a8.5,8.5,0,0,0-8.19-6.23h-72a8.5,8.5,0,0,0-8.19,6.23l-237.13,857.55a8.5,8.5,0,0,0,8.19,10.77h72a8.5,8.5,0,0,0,8.19-6.23l192.94-697.74,192.94,697.74a8.5,8.5,0,0,0,8.19,6.23h72a8.5,8.5,0,0,0,8.19-10.77Zm163.41,851.32-199.41-721.13a8.5,8.5,0,0,0-16.38,0l-199.41,721.13h-54.36l232.43-840.55h59.06l232.43,840.55Z"/><path class="cls-2" d="M3769.42,2381.44H8.5a8.5,8.5,0,0,0,0,17H3769.42a8.5,8.5,0,0,0,0-17Z"/><path class="cls-2" d="M754.43,2468.77H376.31a8.5,8.5,0,0,0,0,17H754.43a8.5,8.5,0,0,0,0-17Z"/><path class="cls-2" d="M1025.24,2468.77h-138a8.5,8.5,0,0,0,0,17h138a8.5,8.5,0,0,0,0-17Z"/><path class="cls-2" d="M2782.9,2468.77H1269.11a8.5,8.5,0,0,0,0,17H2782.9a8.5,8.5,0,0,0,0-17Z"/><path class="cls-2" d="M1377.81,2556.1H953.7a8.5,8.5,0,0,0,0,17h424.11a8.5,8.5,0,0,0,0-17Z"/><path class="cls-2" d="M2599,2556.1H1536.21a8.5,8.5,0,1,0,0,17H2599a8.5,8.5,0,0,0,0-17Z"/><path class="cls-2" d="M4776.77,2381.44h-3557a8.5,8.5,0,0,0,0,17h3557a8.5,8.5,0,0,0,0-17Z"/><path class="cls-2" d="M3827.8,2468.77H2908.06a8.5,8.5,0,0,0,0,17H3827.8a8.5,8.5,0,0,0,0-17Z"/><path class="cls-2" d="M4645.49,2468.77H3960.65a8.5,8.5,0,0,0,0,17h684.84a8.5,8.5,0,0,0,0-17Z"/><path class="cls-2" d="M3117.56,2556.1H2693.45a8.5,8.5,0,0,0,0,17h424.11a8.5,8.5,0,0,0,0-17Z"/><path class="cls-2" d="M4338.77,2556.1H3276a8.5,8.5,0,0,0,0,17H4338.77a8.5,8.5,0,0,0,0-17Z"/><path class="cls-2" d="M4604.47,2556.1h-138a8.5,8.5,0,0,0,0,17h138a8.5,8.5,0,0,0,0-17Z"/><path class="cls-1" d="M3710.19,1033.18,3481,1354c-36.11,50.56,0,120.78,62.16,120.78h0l363.94-509.55h-64.95A162.2,162.2,0,0,0,3710.19,1033.18Z"/><path class="cls-2" d="M3907.14,956.75h-64.95a171,171,0,0,0-138.91,71.49l-229.16,320.85a84.89,84.89,0,0,0,69.08,134.22,8.5,8.5,0,0,0,6.92-3.56l363.94-509.55a8.5,8.5,0,0,0-6.92-13.44Zm-368.23,509.43A67.89,67.89,0,0,1,3488,1359l229.16-320.85a154,154,0,0,1,125.07-64.37h48.43Z"/><path class="cls-1" d="M2893,2349.52c-19.46,11.08-11.59,40.78,10.8,40.78H3234V2277.42H3094.58Z"/><path class="cls-2" d="M3234,2268.92H3094.58a8.49,8.49,0,0,0-2.86.5l-201.55,72.1a8.39,8.39,0,0,0-1.34.62,30.32,30.32,0,0,0,15,56.67H3234a8.5,8.5,0,0,0,8.5-8.5V2277.42A8.5,8.5,0,0,0,3234,2268.92Zm-8.5,112.88H2903.82a13.32,13.32,0,0,1-7.16-24.55l199.39-71.33h129.49Z"/><path class="cls-3" d="M3303.28,1707.57c-11.67,16.43-21,39.49-27.49,64.14l-181.21,505.71H3234L3429.34,1829h47.41l183-175.46H3406.26C3361.82,1653.58,3327.78,1673.08,3303.28,1707.57Z"/><path class="cls-2" d="M3659.71,1645.08H3406.26c-45.8,0-82.79,19.37-109.91,57.57-11.55,16.26-21.46,39.26-28.69,66.53l-181.09,505.37a8.5,8.5,0,0,0,8,11.37H3234a8.5,8.5,0,0,0,7.79-5.11l193.07-443.28h41.84a8.5,8.5,0,0,0,0-17h-47.41a8.5,8.5,0,0,0-7.79,5.11l-193.07,443.28H3106.65l177.14-494.34c.08-.23.15-.46.22-.7,6.72-25.48,15.78-46.7,26.21-61.38,23.76-33.45,56.07-50.42,96.05-50.42h253.45a8.5,8.5,0,0,0,0-17Z"/><polygon class="cls-4" points="3429.34 1829.04 3476.75 1829.04 3659.71 1653.58 3477.2 1653.58 3429.34 1829.04"/><path class="cls-2" d="M3659.71,1645.08H3477.2a8.5,8.5,0,0,0,0,17h161.37l-165.24,158.46h-44a8.5,8.5,0,0,0,0,17h47.41a8.5,8.5,0,0,0,5.88-2.37l183-175.46a8.5,8.5,0,0,0-5.88-14.63Z"/><path class="cls-1" d="M4073.43,965.25H3842.5l-84.74,154.47v533.86h400.4V1050A84.74,84.74,0,0,0,4073.43,965.25Z"/><path class="cls-2" d="M4073.43,956.75H3842.5a8.5,8.5,0,0,0,0,17h230.93a76.32,76.32,0,0,1,76.24,76.24v595.09h-383.4V1119.72a8.5,8.5,0,0,0-17,0v533.86a8.5,8.5,0,0,0,8.5,8.5h400.4a8.5,8.5,0,0,0,8.5-8.5V1050A93.34,93.34,0,0,0,4073.43,956.75Z"/><path class="cls-1" d="M4206.68,1033.18a162.2,162.2,0,0,0-132-67.93h-64.95l94.77,132.68,269.18,376.87h0c62.13,0,98.27-70.22,62.16-120.78Z"/><path class="cls-2" d="M4213.6,1028.24a171,171,0,0,0-138.91-71.49h-64.95a8.5,8.5,0,0,0,0,17h64.95a154,154,0,0,1,125.07,64.37L4428.92,1359a67.89,67.89,0,0,1-51,107.21L4111.42,1093a8.5,8.5,0,0,0-13.83,9.88l269.18,376.87a8.5,8.5,0,0,0,6.92,3.56,84.89,84.89,0,0,0,69.08-134.22Z"/><rect class="cls-1" x="3757.76" y="1343.74" width="400.4" height="309.84"/><path class="cls-2" d="M4158.16,1335.24a8.5,8.5,0,0,0-8.5,8.5v301.34h-383.4V1343.74a8.5,8.5,0,1,0-17,0v309.84a8.5,8.5,0,0,0,8.5,8.5h400.4a8.5,8.5,0,0,0,8.5-8.5V1343.74A8.5,8.5,0,0,0,4158.16,1335.24Z"/><path class="cls-5" d="M3731,1382.51H3698.2v93H3824A93,93,0,0,0,3731,1382.51Z"/><path d="M3731,1374H3698.2a8.5,8.5,0,0,0-8.5,8.5v93a8.5,8.5,0,0,0,8.5,8.5H3824a8.5,8.5,0,0,0,8.5-8.5A101.66,101.66,0,0,0,3731,1374Zm-24.31,93v-76H3731a84.66,84.66,0,0,1,84.12,76Z"/><polygon class="cls-6" points="3506.95 1474.8 3698.2 1474.8 3698.2 1354.13 3605.21 1354.7 3506.95 1474.8"/><path d="M3698.2,1345.63h-.05l-93,.57a8.5,8.5,0,1,0,.1,17l84.44-.52V1466.3H3507a8.5,8.5,0,0,0,0,17H3698.2a8.5,8.5,0,0,0,8.5-8.5V1354.13a8.5,8.5,0,0,0-8.5-8.5Z"/><rect class="cls-3" x="3632.22" y="1829.04" width="563.89" height="101.98" rx="35.98" ry="35.98"/><path class="cls-2" d="M4160.12,1820.54H3668.2a44.53,44.53,0,0,0-44.48,44.48v30a44.53,44.53,0,0,0,44.48,44.48h491.92a44.53,44.53,0,0,0,44.48-44.48v-30A44.53,44.53,0,0,0,4160.12,1820.54Zm27.48,74.5a27.51,27.51,0,0,1-27.48,27.48H3668.2a27.51,27.51,0,0,1-27.48-27.48v-30a27.51,27.51,0,0,1,27.48-27.48h491.92a27.51,27.51,0,0,1,27.48,27.48Z"/><rect class="cls-3" x="3857.56" y="1931.02" width="113.21" height="68.72"/><path class="cls-2" d="M3970.77,1922.52H3857.56a8.5,8.5,0,0,0-8.5,8.5v68.72a8.5,8.5,0,0,0,8.5,8.5h113.21a8.5,8.5,0,0,0,8.5-8.5V1931A8.5,8.5,0,0,0,3970.77,1922.52Zm-8.5,68.72h-96.21v-51.72h96.21Z"/><rect class="cls-3" x="3872.23" y="1999.73" width="83.87" height="281.9"/><path class="cls-2" d="M3956.1,1991.23h-83.86a8.5,8.5,0,0,0-8.5,8.5v281.9a8.5,8.5,0,0,0,8.5,8.5h83.86a8.5,8.5,0,0,0,8.5-8.5v-281.9A8.5,8.5,0,0,0,3956.1,1991.23Zm-8.5,281.9h-66.86v-264.9h66.86Z"/><circle class="cls-3" cx="4130.67" cy="2350.07" r="39.87"/><path class="cls-2" d="M4130.67,2301.69a48.37,48.37,0,1,0,48.37,48.37A48.43,48.43,0,0,0,4130.67,2301.69Zm0,79.75a31.37,31.37,0,1,1,31.37-31.37A31.41,31.41,0,0,1,4130.67,2381.44Z"/><circle class="cls-3" cx="3697.66" cy="2350.07" r="39.87"/><path class="cls-2" d="M3697.66,2301.69a48.37,48.37,0,1,0,48.37,48.37A48.43,48.43,0,0,0,3697.66,2301.69Zm0,79.75a31.37,31.37,0,1,1,31.37-31.37A31.41,31.41,0,0,1,3697.66,2381.44Z"/><circle class="cls-3" cx="3914.16" cy="2350.07" r="39.87"/><path class="cls-2" d="M3914.16,2301.69a48.37,48.37,0,1,0,48.37,48.37A48.43,48.43,0,0,0,3914.16,2301.69Zm0,79.75a31.37,31.37,0,1,1,31.37-31.37A31.41,31.41,0,0,1,3914.16,2381.44Z"/><path class="cls-3" d="M4127.94,2258.46H3700.39a45,45,0,0,0-45,45h517.52A45,45,0,0,0,4127.94,2258.46Z"/><path class="cls-2" d="M4127.94,2250H3700.39a53.55,53.55,0,0,0-53.49,53.49,8.5,8.5,0,0,0,8.5,8.5h517.52a8.5,8.5,0,0,0,8.5-8.5A53.55,53.55,0,0,0,4127.94,2250Zm-463,45a36.55,36.55,0,0,1,35.49-28h427.54a36.56,36.56,0,0,1,35.49,28Z"/><path class="cls-7" d="M3958.72,623.79h0a111,111,0,0,0-111,111V965.25h222V734.76A111,111,0,0,0,3958.72,623.79Z"/><path class="cls-2" d="M3958.72,615.29a119.61,119.61,0,0,0-119.48,119.48V965.25a8.5,8.5,0,0,0,8.5,8.5h222a8.5,8.5,0,0,0,8.5-8.5V734.76A119.61,119.61,0,0,0,3958.72,615.29ZM4061.2,956.75h-205v-222a102.48,102.48,0,0,1,205,0Z"/><path class="cls-8" d="M3966,563.68H3828.06s-10.59,104.45,104.46,104.45h61.13l26.44,184.11h49.62V667.38A103.7,103.7,0,0,0,3966,563.68Z"/><path class="cls-2" d="M3966,555.18H3828.06a8.5,8.5,0,0,0-8.46,7.64c-.2,1.93-4.45,47.73,25.62,81,19.67,21.76,49,32.8,87.29,32.8h53.76l25.39,176.82a8.5,8.5,0,0,0,8.41,7.29h49.62a8.5,8.5,0,0,0,8.5-8.5V667.38A112.32,112.32,0,0,0,3966,555.18Zm95.2,288.56h-33.75l-25.39-176.82a8.5,8.5,0,0,0-8.41-7.29h-61.13c-33.17,0-58.27-9.11-74.58-27.08-18.42-20.3-21.35-47.34-21.6-60.36H3966a95.3,95.3,0,0,1,95.2,95.2Z"/><path class="cls-7" d="M4010.71,804.51h-7.32v47.73h7.32a23.86,23.86,0,0,0,23.86-23.86h0A23.86,23.86,0,0,0,4010.71,804.51Z"/><path class="cls-2" d="M4010.71,796h-7.32a8.5,8.5,0,0,0,0,17h7.32a15.36,15.36,0,1,1,0,30.73h-7.32a8.5,8.5,0,0,0,0,17h7.32a32.36,32.36,0,1,0,0-64.73Z"/><path class="cls-2" d="M3924.36,737.91a8.5,8.5,0,0,0-16.16-5.29l-27.78,84.86c-3.14,9.59-1.58,20.72,4,28.37,4.09,5.65,10.05,8.89,16.34,8.89h15.56a8.5,8.5,0,0,0,0-17h-15.56c-1.11,0-2.17-1.31-2.58-1.87-1.94-2.68-3.26-7.93-1.57-13.11Z"/><path class="cls-3" d="M3509.74,1707.57c-11.66,16.43-21,39.49-27.49,64.14l-34.86,505.71h139.47L3635.79,1829h346.91a175.46,175.46,0,0,0,175.46-175.46H3612.72C3568.28,1653.58,3534.23,1673.08,3509.74,1707.57Z"/><path class="cls-2" d="M4158.16,1645.08H3612.72c-45.8,0-82.79,19.37-109.91,57.57-11.6,16.33-21.55,39.46-28.78,66.89a8.44,8.44,0,0,0-.26,1.58l-34.86,505.71a8.5,8.5,0,0,0,8.48,9.08h139.46a8.5,8.5,0,0,0,8.45-7.58l48.12-440.8h339.29c101.43,0,184-82.52,184-184A8.5,8.5,0,0,0,4158.16,1645.08Zm-175.46,175.46H3635.79a8.5,8.5,0,0,0-8.45,7.58l-48.12,440.8H3456.49l34.18-495.82c6.7-25.13,15.68-46.08,26-60.61,23.76-33.45,56.07-50.42,96.05-50.42h536.73C4145,1750.21,4071.92,1820.54,3982.71,1820.54Z"/><path class="cls-1" d="M3214.83,2349.52c-21.23,11.08-12.65,40.78,11.78,40.78h360.23V2277.42H3447.38Z"/><path class="cls-2" d="M3586.85,2268.92H3447.38a8.53,8.53,0,0,0-2.52.38l-232.55,72.1a8.62,8.62,0,0,0-1.42.58c-12.89,6.73-19.08,19.79-15.78,33.27,3.46,14.09,16.11,23.55,31.49,23.55h360.23a8.5,8.5,0,0,0,8.5-8.5V2277.42A8.5,8.5,0,0,0,3586.85,2268.92Zm-8.5,112.88H3226.61c-9.14,0-13.78-5.71-15-10.6-1.37-5.58,1.06-10.7,6.52-13.81l230.52-71.47h129.68Z"/><path class="cls-2" d="M3956.15,742.53h-9a8.5,8.5,0,0,0,0,17h9a8.5,8.5,0,0,0,0-17Z"/><path class="cls-2" d="M3877.16,742.53h-9a8.5,8.5,0,0,0,0,17h9a8.5,8.5,0,0,0,0-17Z"/><path class="cls-2" d="M3939.21,884.83h-42.34a8.5,8.5,0,0,0,0,17h42.34a8.5,8.5,0,0,0,0-17Z"/><path class="cls-1" d="M4038.34,1436.54h-178L3800,1152.39c-5.82-27.39-32.75-49.6-60.14-49.6H3323c-27.39,0-44.88,22.2-39.05,49.6l68.69,323.17h724.68A39,39,0,0,0,4038.34,1436.54Z"/><path class="cls-2" d="M4038.34,1428H3867.26l-59-277.42c-3.21-15.12-12.05-29.28-24.89-39.86s-28.35-16.47-43.57-16.47H3323c-15.66,0-29.25,6.14-38.28,17.29-9.27,11.44-12.49,26.56-9.09,42.57l68.69,323.17a8.5,8.5,0,0,0,8.31,6.73h724.68a8.5,8.5,0,0,0,8.5-8.5A47.56,47.56,0,0,0,4038.34,1428Zm-678.79,39-67.26-316.43c-2.32-10.9-.3-21,5.67-28.34,5.74-7.09,14.64-11,25.07-11h416.81c23.55,0,46.8,19.23,51.82,42.86l60.4,284.16a8.5,8.5,0,0,0,8.31,6.73h178a30.57,30.57,0,0,1,29.31,22Z"/><path class="cls-3" d="M3702.64,1102.79H3285.83c-27.39,0-44.88,22.2-39.05,49.6l68.69,323.17h516l-68.69-323.17C3757,1125,3730,1102.79,3702.64,1102.79Z"/><path class="cls-2" d="M3771.09,1150.62c-3.21-15.12-12.05-29.28-24.89-39.86s-28.35-16.47-43.57-16.47H3285.83c-15.66,0-29.25,6.14-38.28,17.29-9.27,11.44-12.49,26.56-9.09,42.57l68.69,323.17a8.5,8.5,0,0,0,8.31,6.73h516a8.5,8.5,0,0,0,8.31-10.27Zm-448.74,316.43-67.26-316.43c-2.32-10.9-.3-21,5.67-28.34,5.74-7.09,14.64-11,25.07-11h416.81c23.55,0,46.8,19.23,51.82,42.86l66.51,312.9Z"/><path class="cls-7" d="M3991.88,1475.55h125.85v-93h-32.81A93,93,0,0,0,3991.88,1475.55Z"/><path class="cls-2" d="M4117.73,1374h-32.81a101.65,101.65,0,0,0-101.54,101.54,8.5,8.5,0,0,0,8.5,8.5h125.85a8.5,8.5,0,0,0,8.5-8.5v-93A8.5,8.5,0,0,0,4117.73,1374Zm-8.5,93H4000.81a84.66,84.66,0,0,1,84.12-76h24.31Z"/><polygon class="cls-1" points="4104.12 1354.13 4104.12 1474.8 4391.75 1474.8 4311.67 1354.7 4104.12 1354.13"/><path class="cls-2" d="M4391.75,1466.3H4112.62V1362.65l199,.55h0a8.5,8.5,0,0,0,0-17l-207.55-.57h0a8.5,8.5,0,0,0-8.5,8.5V1474.8a8.5,8.5,0,0,0,8.5,8.5h287.64a8.5,8.5,0,0,0,0-17Z"/><path class="cls-1" d="M593.44,1140.47c-4.8-27.24-30.78-49.33-58-49.33H211c-27.24,0-45.43,22.09-40.63,49.33l102.17,579.41c4.8,27.24,30.78,49.33,58,49.33H655c27.24,0,45.43-22.09,40.63-49.33Z"/><path class="cls-2" d="M601.81,1139c-2.67-15.12-11-29.28-23.46-39.88s-27.74-16.47-42.93-16.47H211c-15.59,0-29.31,6.11-38.62,17.22-9.49,11.3-13.17,26.25-10.38,42.09l102.17,579.41c2.67,15.12,11,29.29,23.46,39.88s27.74,16.47,42.93,16.47H655c15.59,0,29.31-6.11,38.62-17.22,9.49-11.3,13.17-26.25,10.38-42.09Zm78.76,610.57c-6,7.19-15.12,11.14-25.6,11.14H330.59c-23.27,0-45.54-19-49.66-42.3L178.77,1139c-1.9-10.8.46-20.82,6.66-28.21,6-7.19,15.12-11.14,25.6-11.14H535.42c23.27,0,45.54,19,49.66,42.3l102.17,579.41C689.14,1732.16,686.78,1742.18,680.58,1749.57Z"/><path class="cls-3" d="M623.44,1140.47c-4.8-27.24-30.78-49.33-58-49.33H241c-27.24,0-45.43,22.09-40.63,49.33l102.17,579.41c4.8,27.24,30.78,49.33,58,49.33H685c27.24,0,45.43-22.09,40.63-49.33Z"/><path class="cls-2" d="M631.82,1139c-2.67-15.12-11-29.28-23.46-39.88s-27.74-16.47-42.93-16.47H241c-15.59,0-29.31,6.11-38.62,17.22-9.49,11.3-13.17,26.25-10.38,42.09L294.2,1721.36c2.67,15.12,11,29.29,23.46,39.88s27.74,16.47,42.93,16.47H685c15.59,0,29.31-6.11,38.62-17.22,9.49-11.3,13.17-26.25,10.38-42.09Zm78.76,610.57c-6,7.19-15.12,11.14-25.6,11.14H360.59c-23.27,0-45.54-19-49.66-42.3L208.77,1139c-1.9-10.8.46-20.82,6.66-28.21,6-7.19,15.12-11.14,25.6-11.14H565.42c23.27,0,45.54,19,49.66,42.3l102.17,579.41C719.14,1732.16,716.78,1742.18,710.58,1749.57Z"/><path class="cls-3" d="M923.07,1033.18a162.2,162.2,0,0,0-132-67.93H726.13l363.94,509.55h0c62.13,0,98.27-70.22,62.16-120.78Z"/><path class="cls-2" d="M930,1028.24a171,171,0,0,0-138.91-71.49H726.13a8.5,8.5,0,0,0-6.92,13.44l363.94,509.55a8.5,8.5,0,0,0,6.92,3.56,84.88,84.88,0,0,0,69.08-134.22Zm220.45,401.25c-11.21,21.78-32,35.27-56.08,36.7L742.65,973.75h48.43a154,154,0,0,1,125.07,64.37L1145.31,1359A66.76,66.76,0,0,1,1150.43,1429.48Z"/><path class="cls-1" d="M559.84,965.25A84.74,84.74,0,0,0,475.1,1050v603.59H875.5V1050l-84.74-84.74Z"/><path class="cls-2" d="M875.5,1041.48a8.5,8.5,0,0,0-8.5,8.5v595.09H483.6V1050a76.32,76.32,0,0,1,76.24-76.24H790.77a8.5,8.5,0,0,0,0-17H559.84A93.34,93.34,0,0,0,466.6,1050v603.59a8.5,8.5,0,0,0,8.5,8.5H875.5a8.5,8.5,0,0,0,8.5-8.5V1050A8.5,8.5,0,0,0,875.5,1041.48Z"/><rect class="cls-3" x="475.1" y="1343.74" width="400.4" height="313.22"/><path class="cls-2" d="M875.5,1335.24a8.5,8.5,0,0,0-8.5,8.5v304.72H483.6V1343.74a8.5,8.5,0,1,0-17,0V1657a8.5,8.5,0,0,0,8.5,8.5H875.5a8.5,8.5,0,0,0,8.5-8.5V1343.74A8.5,8.5,0,0,0,875.5,1335.24Z"/><path class="cls-2" d="M1877,1707.57c-11.67,16.43-21,39.49-27.49,64.14l-135.88,471.88L1563.8,2349.52c-19.46,11.08-24.63,44.16-2.24,44.16,95.19,0,102.53-11.4,148.12-26.07a573.2,573.2,0,0,0,58.07-22.25l.38,34.1H1799l7.9-78.21h0v-60.83l196.21-439.22H2368c96.9,0,175.46-50.72,175.46-147.63H1980C1935.55,1653.58,1901.5,1673.08,1877,1707.57Z"/><path class="cls-2" d="M2543.43,1645.08H1980c-45.8,0-82.79,19.37-109.91,57.57-11.58,16.31-21.53,39.41-28.76,66.8l-135,468.93-147.08,104c-14.77,8.66-23.87,28.4-19.91,43.35,2.73,10.32,11.06,16.48,22.27,16.48,77.82,0,98.64-7.68,127.45-18.31,7.08-2.61,14.39-5.31,23.27-8.17,15.87-5.11,31.67-11,47.12-17.45l.24,21.31a8.5,8.5,0,0,0,8.5,8.4H1799a8.5,8.5,0,0,0,8.46-7.65l7.9-78.21a8.47,8.47,0,0,0,0-.85v-59l193.23-432.54H2368c51.68,0,96.39-13.58,129.3-39.28,35.76-27.92,54.66-68.33,54.66-116.85a8.5,8.5,0,0,0-8.5-8.5Zm-979.62,704.44h0Zm923-592.49c-29.46,23-71.66,35.67-118.84,35.67H2003.06a8.5,8.5,0,0,0-7.76,5L1799.09,2237a8.5,8.5,0,0,0-.74,3.47v60.4l-7.09,70.13h-14.72l-.29-25.69a8.5,8.5,0,0,0-12-7.66,563.82,563.82,0,0,1-57.21,21.92c-9.22,3-17,5.85-23.95,8.4-28.17,10.39-46.78,17.26-121.57,17.26-4.45,0-5.34-2-5.83-3.83-1.86-7,3.1-19.22,12.28-24.45q.36-.21.7-.45l149.83-105.93a8.49,8.49,0,0,0,3.26-4.59l135.88-471.88.05-.18c6.72-25.47,15.78-46.7,26.21-61.38,23.76-33.45,56.07-50.42,96.05-50.42h554.72C2532.65,1701.38,2516.2,1734.08,2486.81,1757Z"/><path class="cls-7" d="M1877,1707.57c-11.67,16.43-21,39.49-27.49,64.14l-135.88,471.88-88.68,64c-19.46,11.08-11.59,21.82,10.8,21.82h0c58.61,0,171.1-59,171.1-59v-30l196.21-439.22H2368c96.9,0,175.46-50.72,175.46-147.63H1980C1935.55,1653.58,1901.5,1673.08,1877,1707.57Z"/><path class="cls-2" d="M2543.43,1645.08H1980c-45.8,0-82.79,19.37-109.91,57.57-11.58,16.31-21.53,39.41-28.76,66.79l-135,469-85.95,62.06c-15.5,9-15.73,18.25-14.47,23,2.44,9.2,13.33,14.48,29.89,14.48,60,0,170.38-57.53,175-60a8.5,8.5,0,0,0,4.55-7.53v-28.21l193.22-432.54H2368c51.68,0,96.39-13.58,129.3-39.28,35.76-27.92,54.66-68.33,54.66-116.85a8.5,8.5,0,0,0-8.5-8.5ZM1625,2307.63h0ZM2486.81,1757c-29.46,23-71.66,35.67-118.84,35.67H2003.06a8.5,8.5,0,0,0-7.76,5L1799.09,2237a8.5,8.5,0,0,0-.74,3.47v24.82c-21.44,10.83-113.23,55.7-162.6,55.7-6.42,0-10.32-1-12.32-1.83a27.57,27.57,0,0,1,5.73-4.11,8.37,8.37,0,0,0,.77-.49l88.68-64a8.5,8.5,0,0,0,3.19-4.54l135.88-471.88.05-.19c6.72-25.47,15.78-46.7,26.21-61.38,23.76-33.45,56.07-50.42,96.05-50.42h554.72C2532.65,1701.38,2516.2,1734.08,2486.81,1757Z"/><path class="cls-2" d="M2543.43,1645.08H1980a8.5,8.5,0,0,0,0,17h554.72c-2.06,39.3-18.51,72-47.9,95s-71.66,35.67-118.84,35.67H2003.06a8.5,8.5,0,0,0-7.76,5L1949.15,1901a8.5,8.5,0,1,0,15.52,6.93l43.9-98.27H2368c51.68,0,96.39-13.58,129.3-39.28,35.76-27.92,54.66-68.33,54.66-116.85A8.5,8.5,0,0,0,2543.43,1645.08Z"/><path class="cls-3" d="M2254.25,1033.18,2025.09,1354c-36.11,50.56,0,120.78,62.16,120.78h0l363.94-509.55h-64.95A162.2,162.2,0,0,0,2254.25,1033.18Z"/><path class="cls-2" d="M2451.19,956.75h-64.95a171,171,0,0,0-138.91,71.49l-229.16,320.85a84.88,84.88,0,0,0,69.08,134.22,8.5,8.5,0,0,0,6.92-3.56l363.94-509.55a8.5,8.5,0,0,0-6.92-13.44ZM2083,1466.18c-24.12-1.43-44.87-14.92-56.08-36.7A66.77,66.77,0,0,1,2032,1359l229.16-320.85a154,154,0,0,1,125.07-64.37h48.43Z"/><path class="cls-1" d="M2502.78,555h0A174.94,174.94,0,0,0,2327.84,730v273.78h349.88V730A174.94,174.94,0,0,0,2502.78,555Z"/><path class="cls-2" d="M2502.78,546.51c-101.15,0-183.44,82.29-183.44,183.44v273.78a8.5,8.5,0,0,0,8.5,8.5h349.88a8.5,8.5,0,0,0,8.5-8.5V730C2686.21,628.8,2603.92,546.51,2502.78,546.51Zm166.44,448.71H2336.34V730c0-91.77,74.66-166.44,166.44-166.44S2669.21,638.18,2669.21,730Z"/><path class="cls-3" d="M2617.48,965.25H2386.55c-28.43,0-70,7.87-93.92,29.47l9.18,79v579.86h400.4V1050A84.74,84.74,0,0,0,2617.48,965.25Z"/><path class="cls-2" d="M2617.48,956.75H2386.55c-29.79,0-73.76,8.29-99.62,31.67a8.5,8.5,0,0,0,11.4,12.61c20.85-18.84,59.33-27.28,88.22-27.28h230.93a76.32,76.32,0,0,1,76.24,76.24v595.09h-383.4V1073.72a8.5,8.5,0,1,0-17,0v579.86a8.5,8.5,0,0,0,8.5,8.5h400.4a8.5,8.5,0,0,0,8.5-8.5V1050A93.34,93.34,0,0,0,2617.48,956.75Z"/><rect class="cls-7" x="2451.19" y="874.79" width="103.97" height="90.46"/><path class="cls-2" d="M2555.16,866.29h-104a8.5,8.5,0,0,0-8.5,8.5v90.46a8.5,8.5,0,0,0,8.5,8.5h104a8.5,8.5,0,0,0,8.5-8.5V874.79A8.5,8.5,0,0,0,2555.16,866.29Zm-8.5,90.46h-87V883.29h87Z"/><path class="cls-3" d="M2750.73,1033.18a162.2,162.2,0,0,0-132-67.93h-64.95l94.77,132.68,269.18,376.87h0c62.13,0,98.27-70.22,62.16-120.78Z"/><path class="cls-2" d="M2757.65,1028.24a171,171,0,0,0-138.91-71.49h-64.95a8.5,8.5,0,0,0,0,17h64.95a154,154,0,0,1,125.07,64.37L2973,1359a67.89,67.89,0,0,1-51,107.21L2655.48,1093a8.5,8.5,0,0,0-13.83,9.88l269.18,376.87a8.5,8.5,0,0,0,6.92,3.56,84.89,84.89,0,0,0,69.08-134.22Z"/><rect class="cls-1" x="2301.82" y="1343.74" width="400.4" height="309.84"/><path class="cls-2" d="M2702.22,1335.24a8.5,8.5,0,0,0-8.5,8.5v301.34h-383.4V1343.74a8.5,8.5,0,0,0-17,0v309.84a8.5,8.5,0,0,0,8.5,8.5h400.4a8.5,8.5,0,0,0,8.5-8.5V1343.74A8.5,8.5,0,0,0,2702.22,1335.24Z"/><path class="cls-7" d="M2275.06,1382.51h-32.81v93H2368.1A93,93,0,0,0,2275.06,1382.51Z"/><path class="cls-2" d="M2275.06,1374h-32.81a8.5,8.5,0,0,0-8.5,8.5v93a8.5,8.5,0,0,0,8.5,8.5H2368.1a8.5,8.5,0,0,0,8.5-8.5A101.66,101.66,0,0,0,2275.06,1374Zm-24.31,93v-76h24.31a84.66,84.66,0,0,1,84.12,76Z"/><polygon class="cls-3" points="2051 1474.8 2242.25 1474.8 2242.25 1354.13 2149.26 1354.7 2051 1474.8"/><path class="cls-2" d="M2242.25,1345.63h-.05l-93,.57a8.5,8.5,0,0,0,.05,17h.05l84.44-.52V1466.3H2051a8.5,8.5,0,0,0,0,17h191.25a8.5,8.5,0,0,0,8.5-8.5V1354.13a8.5,8.5,0,0,0-8.5-8.5Z"/><rect class="cls-3" x="2176.27" y="1802.97" width="563.89" height="101.98" rx="35.98" ry="35.98"/><path class="cls-2" d="M2704.18,1794.47H2212.26a44.53,44.53,0,0,0-44.48,44.48v30a44.53,44.53,0,0,0,44.48,44.48h491.92a44.53,44.53,0,0,0,44.48-44.48v-30A44.53,44.53,0,0,0,2704.18,1794.47Zm27.48,74.5a27.51,27.51,0,0,1-27.48,27.48H2212.26a27.51,27.51,0,0,1-27.48-27.48v-30a27.51,27.51,0,0,1,27.48-27.48h491.92a27.51,27.51,0,0,1,27.48,27.48Z"/><rect class="cls-3" x="2401.61" y="1904.87" width="113.21" height="94.86"/><path class="cls-2" d="M2514.82,1896.37H2401.61a8.5,8.5,0,0,0-8.5,8.5v94.86a8.5,8.5,0,0,0,8.5,8.5h113.21a8.5,8.5,0,0,0,8.5-8.5v-94.86A8.5,8.5,0,0,0,2514.82,1896.37Zm-8.5,94.86h-96.21v-77.86h96.21Z"/><rect class="cls-3" x="2416.29" y="1999.73" width="83.86" height="275.9"/><path class="cls-2" d="M2500.15,1991.23h-83.87a8.5,8.5,0,0,0-8.5,8.5v275.9a8.5,8.5,0,0,0,8.5,8.5h83.87a8.5,8.5,0,0,0,8.5-8.5v-275.9A8.5,8.5,0,0,0,2500.15,1991.23Zm-8.5,275.9h-66.87v-258.9h66.87Z"/><circle class="cls-3" cx="2674.72" cy="2350.07" r="39.87"/><path class="cls-2" d="M2674.73,2301.69a48.37,48.37,0,1,0,48.37,48.37A48.43,48.43,0,0,0,2674.73,2301.69Zm0,79.75a31.37,31.37,0,1,1,31.37-31.37A31.41,31.41,0,0,1,2674.73,2381.44Z"/><circle class="cls-3" cx="2241.71" cy="2350.07" r="39.87"/><path class="cls-2" d="M2241.71,2301.69a48.37,48.37,0,1,0,48.37,48.37A48.43,48.43,0,0,0,2241.71,2301.69Zm0,79.75a31.37,31.37,0,1,1,31.37-31.37A31.41,31.41,0,0,1,2241.71,2381.44Z"/><circle class="cls-3" cx="2458.22" cy="2350.07" r="39.87"/><path class="cls-2" d="M2458.22,2301.69a48.37,48.37,0,1,0,48.37,48.37A48.43,48.43,0,0,0,2458.22,2301.69Zm0,79.75a31.37,31.37,0,1,1,31.37-31.37A31.41,31.41,0,0,1,2458.22,2381.44Z"/><path class="cls-3" d="M2672,2258.46H2244.45a45,45,0,0,0-45,45H2717A45,45,0,0,0,2672,2258.46Z"/><path class="cls-2" d="M2672,2250H2244.45a53.55,53.55,0,0,0-53.49,53.49,8.5,8.5,0,0,0,8.5,8.5H2717a8.5,8.5,0,0,0,8.5-8.5A53.55,53.55,0,0,0,2672,2250Zm-463,45a36.55,36.55,0,0,1,35.49-28H2672a36.56,36.56,0,0,1,35.49,28Z"/><path d="M2468.42,737.91a8.5,8.5,0,0,0-16.16-5.29l-27.78,84.86c-3.14,9.59-1.58,20.72,4,28.37,4.09,5.65,10.05,8.89,16.34,8.89h15.56a8.5,8.5,0,0,0,0-17h-15.56c-1.11,0-2.17-1.31-2.58-1.87-1.94-2.68-3.26-7.93-1.57-13.11Z"/><path class="cls-6" d="M2035.79,1707.57c-11.67,16.43-21,39.49-27.49,64.14l-135.88,471.88-149.83,105.93c-19.46,11.08-24.63,44.16-2.24,44.16,95.19,0,102.53-11.4,148.12-26.07a573.17,573.17,0,0,0,58.07-22.25l8.28,48.32h30.81v-92.43h0v-60.83l196.21-439.22h364.91c96.9,0,175.46-50.72,175.46-147.63H2138.77C2094.33,1653.58,2060.29,1673.08,2035.79,1707.57Z"/><path d="M2702.22,1645.08H2138.77c-45.8,0-82.79,19.37-109.91,57.57-11.58,16.31-21.53,39.41-28.76,66.8l-135,468.92-147.08,104c-14.77,8.66-23.87,28.4-19.91,43.35,2.73,10.32,11.06,16.48,22.27,16.48,77.82,0,98.64-7.68,127.45-18.31,7.08-2.61,14.39-5.31,23.27-8.17,16.49-5.31,32.91-11.42,48.93-18.22l6.45,37.63a8.5,8.5,0,0,0,8.38,7.06h30.81a8.5,8.5,0,0,0,8.5-8.5V2242.24l193.22-432.54h359.4c51.68,0,96.39-13.58,129.3-39.28,35.76-27.92,54.66-68.33,54.66-116.85a8.5,8.5,0,0,0-8.5-8.5Zm-979.62,704.44h0Zm923-592.49c-29.46,23-71.66,35.67-118.84,35.67H2161.85a8.5,8.5,0,0,0-7.76,5L1957.87,2237a8.5,8.5,0,0,0-.74,3.47v144.75H1942l-7.07-41.26a8.5,8.5,0,0,0-11.85-6.32,563.82,563.82,0,0,1-57.21,21.92c-9.22,3-17,5.85-23.95,8.4-28.17,10.39-46.78,17.26-121.57,17.26-4.45,0-5.34-2-5.83-3.83-1.86-7,3.1-19.22,12.28-24.45q.36-.21.7-.45l149.83-105.93a8.49,8.49,0,0,0,3.26-4.59l135.88-471.88.05-.18c6.72-25.48,15.78-46.7,26.21-61.38,23.76-33.45,56.07-50.42,96.05-50.42H2693.5C2691.44,1701.38,2675,1734.08,2645.6,1757Z"/><path class="cls-5" d="M2035.79,1707.57c-11.67,16.43-21,39.49-27.49,64.14l-135.88,471.88-88.68,64c-19.46,11.08-11.59,21.82,10.8,21.82h0c58.61,0,171.1-59,171.1-59v-30l196.21-439.22h364.91c96.9,0,175.46-50.72,175.46-147.63H2138.77C2094.33,1653.58,2060.29,1673.08,2035.79,1707.57Z"/><path d="M2702.22,1645.08H2138.77c-45.8,0-82.79,19.37-109.91,57.57-11.58,16.31-21.53,39.41-28.76,66.8l-135,469-85.95,62.06c-15.5,9-15.73,18.25-14.47,23,2.44,9.2,13.33,14.48,29.89,14.48,60,0,170.38-57.53,175-60a8.5,8.5,0,0,0,4.55-7.53v-28.21l193.23-432.54h359.4c51.68,0,96.39-13.58,129.3-39.28,35.76-27.92,54.66-68.33,54.66-116.85a8.5,8.5,0,0,0-8.5-8.5Zm-918.47,662.55h0ZM2645.6,1757c-29.46,23-71.66,35.67-118.84,35.67H2161.85a8.5,8.5,0,0,0-7.76,5L1957.87,2237a8.5,8.5,0,0,0-.74,3.47v24.82c-21.45,10.83-113.26,55.7-162.6,55.7-6.42,0-10.32-1-12.32-1.83a27.57,27.57,0,0,1,5.73-4.11,8.57,8.57,0,0,0,.77-.49l88.68-64a8.5,8.5,0,0,0,3.19-4.54l135.88-471.88.05-.18c6.72-25.48,15.78-46.7,26.21-61.38,23.76-33.45,56.07-50.42,96.05-50.42H2693.5C2691.44,1701.38,2675,1734.08,2645.6,1757Z"/><path class="cls-2" d="M2035.79,1707.57c-11.67,16.43-21,39.49-27.49,64.14l-135.88,471.88-149.83,105.93c-19.46,11.08-24.63,44.16-2.24,44.16,95.19,0,102.53-11.4,148.12-26.07a573.17,573.17,0,0,0,58.07-22.25l8.28,48.32h30.81v-92.43h0v-60.83l196.21-439.22h364.91c96.9,0,175.46-50.72,175.46-147.63H2138.77C2094.33,1653.58,2060.29,1673.08,2035.79,1707.57Z"/><path class="cls-2" d="M2702.22,1645.08H2138.77c-45.8,0-82.79,19.37-109.91,57.57-11.58,16.31-21.53,39.41-28.76,66.8l-135,468.92-147.08,104c-14.77,8.66-23.87,28.4-19.91,43.35,2.73,10.32,11.06,16.48,22.27,16.48,77.82,0,98.64-7.68,127.45-18.31,7.08-2.61,14.39-5.31,23.27-8.17,16.49-5.31,32.91-11.42,48.93-18.22l6.45,37.63a8.5,8.5,0,0,0,8.38,7.06h30.81a8.5,8.5,0,0,0,8.5-8.5V2242.24l193.22-432.54h359.4c51.68,0,96.39-13.58,129.3-39.28,35.76-27.92,54.66-68.33,54.66-116.85a8.5,8.5,0,0,0-8.5-8.5Zm-979.62,704.44h0Zm923-592.49c-29.46,23-71.66,35.67-118.84,35.67H2161.85a8.5,8.5,0,0,0-7.76,5L1957.87,2237a8.5,8.5,0,0,0-.74,3.47v144.75H1942l-7.07-41.26a8.5,8.5,0,0,0-11.85-6.32,563.82,563.82,0,0,1-57.21,21.92c-9.22,3-17,5.85-23.95,8.4-28.17,10.39-46.78,17.26-121.57,17.26-4.45,0-5.34-2-5.83-3.83-1.86-7,3.1-19.22,12.28-24.45q.36-.21.7-.45l149.83-105.93a8.49,8.49,0,0,0,3.26-4.59l135.88-471.88.05-.18c6.72-25.48,15.78-46.7,26.21-61.38,23.76-33.45,56.07-50.42,96.05-50.42H2693.5C2691.44,1701.38,2675,1734.08,2645.6,1757Z"/><path class="cls-7" d="M2035.79,1707.57c-11.67,16.43-21,39.49-27.49,64.14l-135.88,471.88-88.68,64c-19.46,11.08-11.59,21.82,10.8,21.82h0c58.61,0,171.1-59,171.1-59v-30l196.21-439.22h364.91c96.9,0,175.46-50.72,175.46-147.63H2138.77C2094.33,1653.58,2060.29,1673.08,2035.79,1707.57Z"/><path class="cls-2" d="M2702.22,1645.08H2138.77c-45.8,0-82.79,19.37-109.91,57.57-11.58,16.31-21.53,39.41-28.76,66.8l-135,469-85.95,62.06c-15.5,9-15.73,18.25-14.47,23,2.44,9.2,13.33,14.48,29.89,14.48,60,0,170.38-57.53,175-60a8.5,8.5,0,0,0,4.55-7.53v-28.21l193.23-432.54h359.4c51.68,0,96.39-13.58,129.3-39.28,35.76-27.92,54.66-68.33,54.66-116.85a8.5,8.5,0,0,0-8.5-8.5Zm-918.47,662.55h0ZM2645.6,1757c-29.46,23-71.66,35.67-118.84,35.67H2161.85a8.5,8.5,0,0,0-7.76,5L1957.87,2237a8.5,8.5,0,0,0-.74,3.47v24.82c-21.45,10.83-113.26,55.7-162.6,55.7-6.42,0-10.32-1-12.32-1.83a27.57,27.57,0,0,1,5.73-4.11,8.57,8.57,0,0,0,.77-.49l88.68-64a8.5,8.5,0,0,0,3.19-4.54l135.88-471.88.05-.18c6.72-25.48,15.78-46.7,26.21-61.38,23.76-33.45,56.07-50.42,96.05-50.42H2693.5C2691.44,1701.38,2675,1734.08,2645.6,1757Z"/><rect class="cls-3" x="1534.39" y="874.74" width="647.87" height="437.91" rx="51.72" ry="51.72"/><path class="cls-2" d="M2130.54,866.24H1586.11a60.29,60.29,0,0,0-60.22,60.22v334.47a60.29,60.29,0,0,0,60.22,60.22h544.43a60.29,60.29,0,0,0,60.22-60.22V926.46A60.29,60.29,0,0,0,2130.54,866.24Zm43.22,394.69a43.27,43.27,0,0,1-43.22,43.22H1586.11a43.27,43.27,0,0,1-43.22-43.22V926.46a43.27,43.27,0,0,1,43.22-43.22h544.43a43.27,43.27,0,0,1,43.22,43.22Z"/><rect class="cls-3" x="1494.69" y="874.74" width="647.87" height="437.91" rx="51.72" ry="51.72"/><path class="cls-2" d="M2090.84,866.24H1546.42a60.29,60.29,0,0,0-60.22,60.22v334.47a60.29,60.29,0,0,0,60.22,60.22h544.43a60.29,60.29,0,0,0,60.22-60.22V926.46A60.29,60.29,0,0,0,2090.84,866.24Zm43.22,394.69a43.27,43.27,0,0,1-43.22,43.22H1546.42a43.27,43.27,0,0,1-43.22-43.22V926.46a43.27,43.27,0,0,1,43.22-43.22h544.43a43.27,43.27,0,0,1,43.22,43.22Z"/><path class="cls-3" d="M2004.29,1423.08H1712.36a51.72,51.72,0,0,0-51.72,51.72H2056A51.72,51.72,0,0,0,2004.29,1423.08Z"/><path class="cls-2" d="M2004.29,1414.58H1712.36a60.29,60.29,0,0,0-60.22,60.22,8.5,8.5,0,0,0,8.5,8.5H2056a8.5,8.5,0,0,0,8.5-8.5A60.29,60.29,0,0,0,2004.29,1414.58ZM1670,1466.3a43.3,43.3,0,0,1,42.38-34.72h291.93a43.3,43.3,0,0,1,42.38,34.72Z"/><rect class="cls-3" x="1753.72" y="1312.65" width="209.21" height="110.43"/><path class="cls-2" d="M1962.93,1304.15H1753.72a8.5,8.5,0,0,0-8.5,8.5v110.43a8.5,8.5,0,0,0,8.5,8.5h209.21a8.5,8.5,0,0,0,8.5-8.5V1312.65A8.5,8.5,0,0,0,1962.93,1304.15Zm-8.5,110.43H1762.22v-93.43h192.21Z"/><path d="M2500.2,742.53h-9a8.5,8.5,0,0,0,0,17h9a8.5,8.5,0,0,0,0-17Z"/><path d="M2421.21,742.53h-9a8.5,8.5,0,0,0,0,17h9a8.5,8.5,0,0,0,0-17Z"/><path d="M2483.26,884.83h-42.34a8.5,8.5,0,0,0,0,17h42.34a8.5,8.5,0,0,0,0-17Z"/><path class="cls-7" d="M2387.48,809.8a111,111,0,0,0,111,111h0a111,111,0,0,0,111-111V738.25l-222-31.95Z"/><path class="cls-2" d="M2609.44,729.75a8.5,8.5,0,0,0-8.5,8.5V809.8a102.48,102.48,0,1,1-205,0V706.3a8.5,8.5,0,1,0-17,0V809.8a119.48,119.48,0,1,0,239,0V738.25A8.5,8.5,0,0,0,2609.44,729.75Z"/><polygon class="cls-7" points="2494.13 689.71 2477.54 663.64 2454.83 681.94 2387.48 706.3 2609.44 738.25 2548.63 725.26 2494.13 689.71"/><path class="cls-1" d="M2539.89,1423.08H2248a51.72,51.72,0,0,0-51.72,51.72h395.38A51.72,51.72,0,0,0,2539.89,1423.08Z"/><path class="cls-2" d="M2539.89,1414.58H2248a60.29,60.29,0,0,0-60.22,60.22,8.5,8.5,0,0,0,8.5,8.5h395.38a8.5,8.5,0,0,0,8.5-8.5A60.29,60.29,0,0,0,2539.89,1414.58Zm-334.32,51.72a43.3,43.3,0,0,1,42.38-34.72h291.93a43.3,43.3,0,0,1,42.38,34.72Z"/><path class="cls-7" d="M2535.94,1475.55h125.85v-93H2629A93,93,0,0,0,2535.94,1475.55Z"/><path class="cls-2" d="M2661.79,1374H2629a101.66,101.66,0,0,0-101.54,101.54,8.5,8.5,0,0,0,8.5,8.5h125.85a8.5,8.5,0,0,0,8.5-8.5v-93A8.5,8.5,0,0,0,2661.79,1374Zm-8.5,93H2544.86a84.66,84.66,0,0,1,84.12-76h24.31Z"/><polygon class="cls-3" points="2648.17 1354.13 2648.17 1474.8 2935.81 1474.8 2855.72 1354.7 2648.17 1354.13"/><path class="cls-2" d="M2935.81,1466.3H2656.67V1362.65l199,.55h0a8.5,8.5,0,0,0,0-17l-207.55-.57h0a8.5,8.5,0,0,0-8.5,8.5V1474.8a8.5,8.5,0,0,0,8.5,8.5h287.64a8.5,8.5,0,0,0,0-17Z"/><path class="cls-1" d="M2604.89,738.25h0A138.37,138.37,0,0,0,2624,736.9l-147.72-88.08A137.23,137.23,0,0,0,2604.89,738.25Z"/><path class="cls-2" d="M2622.81,728.48a130.49,130.49,0,0,1-17.91,1.27,128.73,128.73,0,0,1-120.67-83.89,8.5,8.5,0,1,0-15.94,5.92,145.73,145.73,0,0,0,136.6,95,147.55,147.55,0,0,0,20.25-1.43,8.5,8.5,0,1,0-2.34-16.84Z"/><path class="cls-1" d="M2490,619l-112,86.85A115.65,115.65,0,0,0,2490,619Z"/><path class="cls-2" d="M2492.11,610.73a8.5,8.5,0,0,0-10.34,6.13,106.86,106.86,0,0,1-103.57,80.46H2378a8.5,8.5,0,0,0,0,17h.2a123.86,123.86,0,0,0,120-93.24A8.5,8.5,0,0,0,2492.11,610.73Z"/><path class="cls-1" d="M2160,1805.41l1.88-4.2h364.91c96.9,0,175.46-50.72,175.46-147.63H2160Z"/><path class="cls-2" d="M2702.22,1645.08H2160a8.5,8.5,0,0,0-8.5,8.5v151.83a8.5,8.5,0,0,0,15.83,4.3h359.46c51.68,0,96.39-13.58,129.3-39.28,35.76-27.92,54.66-68.33,54.66-116.85A8.5,8.5,0,0,0,2702.22,1645.08Zm-56.62,112c-29.46,23-71.66,35.67-118.84,35.67H2168.47V1662.08h525C2691.44,1701.38,2675,1734.08,2645.6,1757Z"/><path class="cls-7" d="M2601.77,769.5h-7.32v47.73h7.32a23.87,23.87,0,0,0,23.86-23.86h0A23.87,23.87,0,0,0,2601.77,769.5Z"/><path class="cls-2" d="M2601.77,761h-7.32a8.5,8.5,0,0,0,0,17h7.32a15.36,15.36,0,1,1,0,30.73h-7.32a8.5,8.5,0,0,0,0,17h7.32a32.36,32.36,0,1,0,0-64.73Z"/><path class="cls-2" d="M2479.23,756.06a8.5,8.5,0,0,0-16.16-5.29l-18.7,57.11a24.4,24.4,0,0,0,3.06,21.59,16.41,16.41,0,0,0,13.25,7.13h10.47a8.5,8.5,0,0,0,0-17h-9.89a7.6,7.6,0,0,1-.73-6.43Zm-17.75,63.75h0Z"/><path class="cls-2" d="M2515.76,742.53h-9a8.5,8.5,0,0,0,0,17h9a8.5,8.5,0,0,0,0-17Z"/><path class="cls-2" d="M2436.77,742.53h-9a8.5,8.5,0,0,0,0,17h9a8.5,8.5,0,0,0,0-17Z"/><path class="cls-2" d="M2505.79,855.09a43.93,43.93,0,0,1-20.4,4.68,46.79,46.79,0,0,1-15.91-2.68,8.5,8.5,0,1,0-5.85,16,63.94,63.94,0,0,0,21.75,3.72,60.32,60.32,0,0,0,28.44-6.7,8.5,8.5,0,0,0-8-15Z"/><rect class="cls-3" x="581.61" y="1885.74" width="55.97" height="401.36"/><path class="cls-2" d="M637.58,1877.24h-56a8.5,8.5,0,0,0-8.5,8.5V2287.1a8.5,8.5,0,0,0,8.5,8.5h56a8.5,8.5,0,0,0,8.5-8.5V1885.74A8.5,8.5,0,0,0,637.58,1877.24Zm-8.5,401.36h-39V1894.24h39Z"/><rect class="cls-3" x="327.65" y="1833.35" width="563.89" height="101.98" rx="35.98" ry="35.98"/><path class="cls-2" d="M855.56,1824.85H363.64a44.53,44.53,0,0,0-44.48,44.48v30a44.53,44.53,0,0,0,44.48,44.48H855.56A44.53,44.53,0,0,0,900,1899.35v-30A44.53,44.53,0,0,0,855.56,1824.85Zm27.48,74.5a27.51,27.51,0,0,1-27.48,27.48H363.64a27.51,27.51,0,0,1-27.48-27.48v-30a27.51,27.51,0,0,1,27.48-27.48H855.56A27.51,27.51,0,0,1,883,1869.34Z"/><circle class="cls-9" cx="826.1" cy="2353.81" r="39.87"/><path d="M826.1,2305.44a48.37,48.37,0,1,0,48.37,48.38A48.43,48.43,0,0,0,826.1,2305.44Zm0,79.75a31.37,31.37,0,1,1,31.37-31.37A31.41,31.41,0,0,1,826.1,2385.18Z"/><circle class="cls-3" cx="393.09" cy="2353.81" r="39.87"/><path class="cls-2" d="M393.09,2305.44a48.37,48.37,0,1,0,48.37,48.38A48.43,48.43,0,0,0,393.09,2305.44Zm0,79.75a31.37,31.37,0,1,1,31.37-31.37A31.41,31.41,0,0,1,393.09,2385.18Z"/><path class="cls-3" d="M823.37,2262.2H395.82a45,45,0,0,0-45,45H868.36A45,45,0,0,0,823.37,2262.2Z"/><path class="cls-2" d="M823.37,2253.7H395.83a53.55,53.55,0,0,0-53.49,53.49,8.5,8.5,0,0,0,8.5,8.5H868.36a8.5,8.5,0,0,0,8.5-8.5A53.55,53.55,0,0,0,823.37,2253.7Zm-463,45a36.55,36.55,0,0,1,35.49-28H823.37a36.55,36.55,0,0,1,35.49,28Z"/><path class="cls-3" d="M1345.11,2352.9l-201.55-72.1H1004.09v112.88h330.22C1356.71,2393.68,1364.57,2364,1345.11,2352.9Z"/><path class="cls-2" d="M1349.32,2345.52a8.41,8.41,0,0,0-1.34-.62l-201.55-72.1a8.49,8.49,0,0,0-2.86-.5H1004.09a8.5,8.5,0,0,0-8.5,8.5v112.88a8.5,8.5,0,0,0,8.5,8.5h330.22a30.32,30.32,0,0,0,15-56.67Zm-2.13,29.76a12.88,12.88,0,0,1-12.88,9.91H1012.59V2289.3h129.49l199.39,71.33A12.86,12.86,0,0,1,1347.19,2375.27Z"/><path class="cls-1" d="M1121.2,1711c-24.5-34.49-58.54-54-103-54H764.77l114.87,175.46h115.5l8.94,448.38h139.47l4.86-478.26a161.13,161.13,0,0,0-18.91-78.1A128.89,128.89,0,0,0,1121.2,1711Z"/><path class="cls-2" d="M1128.13,1706c-27.13-38.2-64.11-57.57-109.91-57.57H764.77a8.5,8.5,0,0,0,0,17h253.45c40,0,72.3,17,96.05,50.41a120.89,120.89,0,0,1,7.75,12.6,153,153,0,0,1,17.9,74l-4.77,469.85H1012.43l-8.78-440.05a8.5,8.5,0,0,0-8.5-8.33H879.65a8.5,8.5,0,0,0,0,17H986.82L995.6,2281a8.5,8.5,0,0,0,8.5,8.33h139.47a8.5,8.5,0,0,0,8.5-8.41l4.86-478.26a170,170,0,0,0-19.93-82.21A138,138,0,0,0,1128.13,1706Z"/><polygon class="cls-3" points="764.77 1656.96 879.65 1832.42 995.15 1832.42 956.15 1656.96 764.77 1656.96"/><path d="M995.15,1823.92H884.24L780.5,1665.46H956.15a8.5,8.5,0,0,0,0-17H764.77a8.5,8.5,0,0,0-7.11,13.16l114.87,175.46a8.5,8.5,0,0,0,7.11,3.84h115.5a8.5,8.5,0,1,0,0-17Z"/><path class="cls-3" d="M1124.66,2352.9,923.1,2280.8H783.64v112.88h330.22C1136.25,2393.68,1144.12,2364,1124.66,2352.9Z"/><path class="cls-2" d="M1128.86,2345.52a8.41,8.41,0,0,0-1.34-.62L926,2272.8a8.49,8.49,0,0,0-2.86-.5H783.64a8.5,8.5,0,0,0-8.5,8.5v112.88a8.5,8.5,0,0,0,8.5,8.5h330.22a30.32,30.32,0,0,0,15-56.67Zm-2.13,29.76a12.88,12.88,0,0,1-12.88,9.91H792.14V2289.3H921.63L1121,2360.63A12.86,12.86,0,0,1,1126.73,2375.27Z"/><path class="cls-1" d="M900.75,1711c-24.5-34.49-58.54-54-103-54H475.1a175.46,175.46,0,0,0,175.46,175.46H774.69l8.94,448.38H923.1L928,1802.54a161.13,161.13,0,0,0-18.91-78.1A128.91,128.91,0,0,0,900.75,1711Z"/><path class="cls-2" d="M907.68,1706c-27.13-38.2-64.11-57.57-109.91-57.57H475.1a8.5,8.5,0,0,0-8.5,8.5c0,101.43,82.52,184,184,184h115.8L775.14,2281a8.5,8.5,0,0,0,8.5,8.33H923.1a8.5,8.5,0,0,0,8.5-8.41l4.86-478.26a170,170,0,0,0-19.93-82.21A138,138,0,0,0,907.68,1706Zm20.3,96.51h0ZM914.69,2272.3H792l-8.78-440.05a8.5,8.5,0,0,0-8.5-8.33H650.56c-89.21,0-162.3-70.33-166.74-158.46H797.76c40,0,72.3,17,96.05,50.41a120.89,120.89,0,0,1,7.75,12.6,153,153,0,0,1,17.9,74Z"/><rect class="cls-3" x="117.63" y="1474.8" width="4428.79" height="80.98"/><path class="cls-2" d="M4546.42,1466.3H117.63a8.5,8.5,0,0,0-8.5,8.5v81a8.5,8.5,0,0,0,8.5,8.5H4546.42a8.5,8.5,0,0,0,8.5-8.5v-81A8.5,8.5,0,0,0,4546.42,1466.3Zm-8.5,81H126.13v-64H4537.92Z"/><path class="cls-3" d="M2454.61,164.85a60.38,60.38,0,0,1-60.31-60.31,8.5,8.5,0,0,0-17,0,77.4,77.4,0,0,0,77.31,77.31,8.5,8.5,0,0,0,0-17Z"/><path class="cls-3" d="M2385.8,96a8.5,8.5,0,0,0-8.5,8.5A60.38,60.38,0,0,1,2317,164.85a8.5,8.5,0,0,0,0,17,77.4,77.4,0,0,0,77.31-77.31A8.5,8.5,0,0,0,2385.8,96Z"/><path class="cls-3" d="M2454.61,164.85a77.4,77.4,0,0,0-77.31,77.31,8.5,8.5,0,0,0,17,0,60.38,60.38,0,0,1,60.31-60.31,8.5,8.5,0,0,0,0-17Z"/><path class="cls-3" d="M2317,164.85a8.5,8.5,0,0,0,0,17,60.38,60.38,0,0,1,60.31,60.31,8.5,8.5,0,0,0,17,0A77.4,77.4,0,0,0,2317,164.85Z"/><path class="cls-3" d="M2593.08,170.2a39.72,39.72,0,0,1-56.18,0,8.5,8.5,0,0,0-12,12,56.72,56.72,0,0,0,80.22,0,8.5,8.5,0,0,0-12-12Z"/><path class="cls-3" d="M2524.88,170.2a8.5,8.5,0,0,0,0,12,39.72,39.72,0,0,1,0,56.18,8.5,8.5,0,1,0,12,12,56.72,56.72,0,0,0,0-80.22A8.5,8.5,0,0,0,2524.88,170.2Z"/><path class="cls-3" d="M2605.1,170.2a8.5,8.5,0,0,0-12,0,56.79,56.79,0,0,0,0,80.22,8.5,8.5,0,0,0,12-12,39.77,39.77,0,0,1,0-56.18A8.5,8.5,0,0,0,2605.1,170.2Z"/><path class="cls-3" d="M2524.88,238.4a8.5,8.5,0,0,0,12,12,39.77,39.77,0,0,1,56.18,0,8.5,8.5,0,0,0,12-12A56.79,56.79,0,0,0,2524.88,238.4Z"/><path class="cls-3" d="M1165.72,602.58a39.77,39.77,0,0,1-56.18,0,8.5,8.5,0,1,0-12,12,56.79,56.79,0,0,0,80.22,0,8.5,8.5,0,0,0-12-12Z"/><path class="cls-3" d="M1097.52,602.58a8.5,8.5,0,0,0,0,12,39.77,39.77,0,0,1,0,56.18,8.5,8.5,0,1,0,12,12,56.79,56.79,0,0,0,0-80.22A8.5,8.5,0,0,0,1097.52,602.58Z"/><path class="cls-3" d="M1177.74,602.58a8.5,8.5,0,0,0-12,0,56.79,56.79,0,0,0,0,80.22,8.5,8.5,0,0,0,12-12,39.77,39.77,0,0,1,0-56.18A8.5,8.5,0,0,0,1177.74,602.58Z"/><path class="cls-3" d="M1097.52,670.77a8.5,8.5,0,1,0,12,12,39.77,39.77,0,0,1,56.18,0,8.5,8.5,0,0,0,12-12A56.79,56.79,0,0,0,1097.52,670.77Z"/><path class="cls-3" d="M1485,168.4a8.5,8.5,0,0,0-8.5,8.5,25.75,25.75,0,0,1-25.72,25.72,8.5,8.5,0,0,0,0,17,42.77,42.77,0,0,0,42.72-42.72A8.5,8.5,0,0,0,1485,168.4Z"/><path class="cls-3" d="M1450.77,202.62a8.5,8.5,0,0,0,0,17,25.75,25.75,0,0,1,25.72,25.72,8.5,8.5,0,1,0,17,0A42.77,42.77,0,0,0,1450.77,202.62Z"/><path class="cls-3" d="M1519.21,202.62a25.75,25.75,0,0,1-25.72-25.72,8.5,8.5,0,0,0-17,0,42.77,42.77,0,0,0,42.72,42.72,8.5,8.5,0,0,0,0-17Z"/><path class="cls-3" d="M1519.21,202.62a42.77,42.77,0,0,0-42.72,42.72,8.5,8.5,0,1,0,17,0,25.75,25.75,0,0,1,25.72-25.72,8.5,8.5,0,0,0,0-17Z"/><path class="cls-3" d="M3515.62,747.51a39.72,39.72,0,0,1-56.18,0,8.5,8.5,0,0,0-12,12,56.72,56.72,0,0,0,80.22,0,8.5,8.5,0,1,0-12-12Z"/><path class="cls-3" d="M3447.42,747.51a8.5,8.5,0,0,0,0,12,39.77,39.77,0,0,1,0,56.18,8.5,8.5,0,0,0,12,12,56.79,56.79,0,0,0,0-80.22A8.5,8.5,0,0,0,3447.42,747.51Z"/><path class="cls-3" d="M3527.64,747.51a8.5,8.5,0,0,0-12,0,56.79,56.79,0,0,0,0,80.22,8.5,8.5,0,1,0,12-12,39.77,39.77,0,0,1,0-56.18A8.5,8.5,0,0,0,3527.64,747.51Z"/><path class="cls-3" d="M3487.53,799.1a56.35,56.35,0,0,0-40.11,16.61,8.5,8.5,0,0,0,12,12,39.72,39.72,0,0,1,56.18,0,8.5,8.5,0,1,0,12-12A56.35,56.35,0,0,0,3487.53,799.1Z"/><path class="cls-3" d="M2973.48,472a8.5,8.5,0,0,0-8.5,8.5v91a8.5,8.5,0,0,0,17,0v-91A8.5,8.5,0,0,0,2973.48,472Z"/><path class="cls-3" d="M2973.48,375.63a8.5,8.5,0,0,0-6.88,3.51c-1.16,1.59-28.29,39.3-28.29,68.63,0,26.49,21.62,39.08,33,42a8.5,8.5,0,0,0,4.26,0c11.43-3,33-15.55,33-42,0-29.33-27.14-67-28.29-68.63A8.5,8.5,0,0,0,2973.48,375.63Zm0,97c-5.27-2.05-18.18-8.73-18.18-24.85,0-14.79,10.14-34.93,18.16-48.14,1.85,3,3.9,6.57,5.95,10.42,8,15.11,12.24,28.15,12.24,37.72C2991.66,463.91,2978.72,470.58,2973.49,472.62Z"/><path class="cls-3" d="M2890.62,471.2a8.5,8.5,0,0,0-9.73,9.73,167.11,167.11,0,0,0,4.91,20.55c4.73,15.45,10.75,26.91,17.92,34.07h0a33.85,33.85,0,0,0,24.54,10.28,39.55,39.55,0,0,0,19.23-5,8.5,8.5,0,0,0,3-3c4.94-8.38,10.19-28.32-5.26-43.77C2928.88,477.66,2894.49,471.81,2890.62,471.2Zm46.2,55.95c-4,1.69-13.27,4.19-21.08-3.62h0c-7.24-7.24-12.37-21.6-15.33-32.81,11.21,3,25.57,8.09,32.81,15.34C2941,513.81,2938.52,523.05,2936.82,527.14Z"/><path class="cls-3" d="M2949.19,527.47a8.5,8.5,0,0,0-12,12l30.3,30.3a8.5,8.5,0,0,0,12-12Z"/><path class="cls-3" d="M3056.34,471.2a167.11,167.11,0,0,0-20.55,4.91c-15.44,4.73-26.91,10.75-34.07,17.92-15.45,15.45-10.2,35.39-5.26,43.77a8.51,8.51,0,0,0,3,3,39.54,39.54,0,0,0,19.23,5,33.86,33.86,0,0,0,24.54-10.27h0c16.36-16.36,22.21-50.75,22.83-54.62a8.5,8.5,0,0,0-9.73-9.73Zm-19.11,58.34h0Zm-6-6c-7.76,7.76-17,5.31-21.08,3.61-1.71-4.14-4.15-13.34,3.6-21.09,7.24-7.24,21.6-12.37,32.81-15.34C3043.59,501.92,3038.47,516.28,3031.22,523.52Z"/><path class="cls-3" d="M2997.78,527.47l-30.3,30.3a8.5,8.5,0,0,0,12,12l30.3-30.3a8.5,8.5,0,0,0-12-12Z"/><path class="cls-3" d="M3039.18,579.15a8.5,8.5,0,0,0-9.94,6.76l-17.08,89.53h-77.36l-17.08-89.53a8.5,8.5,0,0,0-16.7,3.19l18.4,96.44a8.5,8.5,0,0,0,8.35,6.91h91.42a8.5,8.5,0,0,0,8.35-6.91l18.4-96.44A8.5,8.5,0,0,0,3039.18,579.15Z"/><path class="cls-3" d="M3045.26,564.88H2901.7a8.5,8.5,0,0,0-8.5,8.5v6.42a16.54,16.54,0,0,0,16.52,16.52,8.5,8.5,0,0,0,6.09-14.43h115.35a8.5,8.5,0,0,0,6.09,14.43,16.54,16.54,0,0,0,16.52-16.52v-6.42A8.5,8.5,0,0,0,3045.26,564.88Z"/><path class="cls-3" d="M3175.24,705.06h-29.41a8.5,8.5,0,0,0-8.5,8.5V765.7a8.5,8.5,0,0,0,8.5,8.5h29.41a8.5,8.5,0,0,0,8.5-8.5V713.56A8.5,8.5,0,0,0,3175.24,705.06Zm-8.5,52.14h-12.41V722.06h12.41Z"/><path class="cls-3" d="M2900.9,705.06h-29.42a8.5,8.5,0,0,0-8.5,8.5V765.7a8.5,8.5,0,0,0,8.5,8.5h29.42a8.5,8.5,0,0,0,8.5-8.5V713.56A8.5,8.5,0,0,0,2900.9,705.06Zm-8.5,52.14H2880V722.06h12.42Z"/><path class="cls-3" d="M3218.49,675.44H2828.24a8.5,8.5,0,0,0-8.5,8.5v29.62a8.5,8.5,0,0,0,8.5,8.5h390.25a8.5,8.5,0,0,0,8.5-8.5V683.94A8.5,8.5,0,0,0,3218.49,675.44Zm-8.5,29.62H2836.74V692.44H3210Z"/><path class="cls-3" d="M2042.76,282H1703.08a8.5,8.5,0,0,0-8.5,8.5V525.42a8.5,8.5,0,0,0,8.5,8.5h339.68a8.5,8.5,0,0,0,8.5-8.5V290.5A8.5,8.5,0,0,0,2042.76,282Zm-8.5,234.92H1711.58V299h322.68Z"/><path class="cls-3" d="M1998.84,320H1747a8.5,8.5,0,0,0-8.5,8.5V487.38a8.5,8.5,0,0,0,8.5,8.5h251.84a8.5,8.5,0,0,0,8.5-8.5V328.54A8.5,8.5,0,0,0,1998.84,320Zm-8.5,158.84H1755.5V337h234.84Z"/><path class="cls-3" d="M2001,421.76l-97.17-55.69a8.5,8.5,0,0,0-10,1.09L1773.59,476.77A8.5,8.5,0,0,0,1785,489.33L1900.73,383.9l91.79,52.61a8.5,8.5,0,1,0,8.45-14.75Z"/><path class="cls-3" d="M1837.57,426.23l-36.73-31.4a8.5,8.5,0,0,0-10.65-.32l-46.21,35A8.5,8.5,0,1,0,1754.23,443L1795,412.19l31.54,27a8.5,8.5,0,1,0,11-12.92Z"/><path class="cls-3" d="M1830.56,353.69a15.9,15.9,0,1,0,15.9,15.9A15.92,15.92,0,0,0,1830.56,353.69Zm0,17a1.1,1.1,0,1,1,1.1-1.1A1.1,1.1,0,0,1,1830.56,370.69Z"/><path class="cls-3" d="M1624.9,386.46H1374.84a8.5,8.5,0,0,0-8.5,8.5V574a8.5,8.5,0,0,0,8.5,8.5H1624.9a8.5,8.5,0,0,0,8.5-8.5V395A8.5,8.5,0,0,0,1624.9,386.46Zm-8.5,179.09H1383.34V403.46H1616.4Z"/><path class="cls-3" d="M1581,424.5H1418.76a8.5,8.5,0,0,0-8.5,8.5V536a8.5,8.5,0,0,0,8.5,8.5H1581a8.5,8.5,0,0,0,8.5-8.5V433A8.5,8.5,0,0,0,1581,424.5Zm-8.5,103H1427.26v-86h145.22Z"/><path class="cls-3" d="M3381,49.81a8.5,8.5,0,0,0-8.5,8.5V73.76a8.5,8.5,0,1,0,17,0V58.31A8.5,8.5,0,0,0,3381,49.81Z"/><path class="cls-3" d="M3381,240.65a8.5,8.5,0,0,0-8.5,8.5V264.6a8.5,8.5,0,1,0,17,0V249.15A8.5,8.5,0,0,0,3381,240.65Z"/><path class="cls-3" d="M3293.3,153h-15.45a8.5,8.5,0,0,0,0,17h15.45a8.5,8.5,0,0,0,0-17Z"/><path class="cls-3" d="M3484.14,153h-15.45a8.5,8.5,0,0,0,0,17h15.45a8.5,8.5,0,0,0,0-17Z"/><path class="cls-3" d="M3436.82,64.77a8.5,8.5,0,0,0-11.61,3.11l-7.73,13.38a8.5,8.5,0,1,0,14.72,8.5l7.73-13.38A8.5,8.5,0,0,0,3436.82,64.77Z"/><path class="cls-3" d="M3341.4,230a8.5,8.5,0,0,0-11.61,3.11l-7.73,13.38a8.5,8.5,0,1,0,14.72,8.5l7.73-13.38A8.5,8.5,0,0,0,3341.4,230Z"/><path class="cls-3" d="M3309.3,110.25l-13.38-7.73a8.5,8.5,0,0,0-8.5,14.72L3300.8,125a8.5,8.5,0,0,0,8.5-14.72Z"/><path class="cls-3" d="M3474.57,205.67l-13.38-7.73a8.5,8.5,0,1,0-8.5,14.72l13.38,7.73a8.5,8.5,0,0,0,8.5-14.72Z"/><path class="cls-3" d="M3466.07,102.52l-13.38,7.73a8.5,8.5,0,1,0,8.5,14.72l13.38-7.73a8.5,8.5,0,0,0-8.5-14.72Z"/><path class="cls-3" d="M3300.8,197.94l-13.38,7.73a8.5,8.5,0,1,0,8.5,14.72l13.38-7.73a8.5,8.5,0,0,0-8.5-14.72Z"/><path class="cls-3" d="M3336.78,67.88a8.5,8.5,0,1,0-14.72,8.5l7.73,13.38a8.5,8.5,0,1,0,14.72-8.5Z"/><path class="cls-3" d="M3432.2,233.15a8.5,8.5,0,1,0-14.72,8.5L3425.2,255a8.5,8.5,0,1,0,14.72-8.5Z"/><path class="cls-3" d="M3373.91,139l-24.56-21.9A8.5,8.5,0,1,0,3338,129.74l24.56,21.9A8.5,8.5,0,1,0,3373.91,139Z"/><path class="cls-3" d="M3363.11,172.28,3322,210.78a8.5,8.5,0,0,0,11.61,12.41l41.15-38.5a8.5,8.5,0,0,0-11.61-12.42Z"/><path class="cls-3" d="M3381,133.07a28.39,28.39,0,1,0,28.39,28.39A28.42,28.42,0,0,0,3381,133.07Zm0,39.78a11.39,11.39,0,1,1,11.39-11.39A11.4,11.4,0,0,1,3381,172.85Z"/><path class="cls-3" d="M3381,0c-89,0-161.45,72.43-161.45,161.46S3292,322.91,3381,322.91s161.45-72.43,161.45-161.45S3470,0,3381,0Zm0,305.91c-79.65,0-144.45-64.8-144.45-144.45S3301.34,17,3381,17s144.45,64.8,144.45,144.46S3460.64,305.91,3381,305.91Z"/><path class="cls-3" d="M555.31,965.28c-70.38,1.42-127.85,56.87-133.4,127l-12,320.33a59.91,59.91,0,0,0,59.87,62.15h55l13-370.87,85.77-138.68H558.58Q556.94,965.25,555.31,965.28Z"/><path class="cls-2" d="M623.53,956.75H558.58q-1.72,0-3.44,0a143.87,143.87,0,0,0-96.71,40.09,147,147,0,0,0-45,94.78q0,.18,0,.35l-12,320.32a68.41,68.41,0,0,0,68.37,71h55a8.5,8.5,0,0,0,8.49-8.2l13-370.87a8.5,8.5,0,1,0-17-.6L516.56,1466.3H469.81A51.41,51.41,0,0,1,418.43,1413l12-320.14a130,130,0,0,1,39.78-83.66,126.91,126.91,0,0,1,85.31-35.38q1.55,0,3.1,0h64.95a8.5,8.5,0,0,0,0-17Z"/><path class="cls-5" d="M809.22,1475.55H935.07v-93H902.26A93,93,0,0,0,809.22,1475.55Z"/><path d="M935.07,1374H902.26a101.66,101.66,0,0,0-101.54,101.54,8.5,8.5,0,0,0,8.5,8.5H935.07a8.5,8.5,0,0,0,8.5-8.5v-93A8.5,8.5,0,0,0,935.07,1374Zm-8.5,93H818.14a84.66,84.66,0,0,1,84.12-76h24.31Z"/><polygon class="cls-6" points="935.07 1354.13 935.07 1474.8 1126.31 1474.8 1028.06 1354.7 935.07 1354.13"/><path d="M1126.31,1466.3H943.57V1362.68l84.44.52h.05a8.5,8.5,0,0,0,.05-17l-93-.57a8.5,8.5,0,0,0-8.55,8.5V1474.8a8.5,8.5,0,0,0,8.5,8.5h191.25a8.5,8.5,0,0,0,0-17Z"/><path class="cls-7" d="M677.49,1382.51H644.68v93H770.53A93,93,0,0,0,677.49,1382.51Z"/><path class="cls-2" d="M677.49,1374H644.68a8.5,8.5,0,0,0-8.5,8.5v93a8.5,8.5,0,0,0,8.5,8.5H770.53a8.5,8.5,0,0,0,8.5-8.5A101.66,101.66,0,0,0,677.49,1374Zm-24.31,93v-76h24.31a84.66,84.66,0,0,1,84.12,76Z"/><polygon class="cls-3" points="489.61 1474.8 658.3 1474.8 658.3 1354.13 491.11 1354.7 489.61 1474.8"/><path class="cls-2" d="M658.3,1345.63h0l-167.19.57a8.5,8.5,0,0,0,0,17h0l158.66-.54V1466.3H489.61a8.5,8.5,0,0,0,0,17H658.3a8.5,8.5,0,0,0,8.5-8.5V1354.13a8.5,8.5,0,0,0-8.5-8.5Z"/><path class="cls-7" d="M665.77,571h0A124.75,124.75,0,0,0,541,695.75V881.88A180.61,180.61,0,0,0,721.63,1062.5h0a68.89,68.89,0,0,0,68.89-68.89V695.75A124.75,124.75,0,0,0,665.77,571Z"/><path class="cls-2" d="M665.77,562.5c-73.48,0-133.25,59.78-133.25,133.25V881.88c0,104.28,84.84,189.11,189.12,189.11A77.48,77.48,0,0,0,799,993.61V695.75C799,622.27,739.25,562.5,665.77,562.5ZM782,993.61A60.46,60.46,0,0,1,721.63,1054h0c-94.9,0-172.11-77.21-172.11-172.11V695.75a116.25,116.25,0,0,1,232.51,0Z"/><path class="cls-2" d="M733.31,750.09a8.5,8.5,0,0,0-8.5,8.5v86.75a13.57,13.57,0,0,1-13.56,13.56H698.6a8.5,8.5,0,0,0,0,17h12.65a30.59,30.59,0,0,0,30.56-30.56V758.59A8.5,8.5,0,0,0,733.31,750.09Z"/><path class="cls-3" d="M729.31,903H701.5C571,903,541,830,541,741.38v140.5A180.62,180.62,0,0,0,721.63,1062.5a68.89,68.89,0,0,0,68.89-68.89v-153C790.52,874.46,763.12,903,729.31,903Z"/><path class="cls-2" d="M790.52,832.15a8.5,8.5,0,0,0-8.5,8.5v153A60.46,60.46,0,0,1,721.63,1054c-94.9,0-172.11-77.21-172.11-172.11V741.38a8.5,8.5,0,1,0-17,0v140.5c0,104.28,84.84,189.11,189.11,189.11A77.48,77.48,0,0,0,799,993.61v-153A8.5,8.5,0,0,0,790.52,832.15Z"/><path class="cls-7" d="M554,786.26a31.19,31.19,0,0,0-31.19,31.19h0A31.19,31.19,0,0,0,554,848.64h15.2l-5.63-62.37Z"/><path class="cls-2" d="M569.16,840.14H554a22.69,22.69,0,0,1,0-45.37h9.57a8.5,8.5,0,0,0,0-17H554a39.69,39.69,0,0,0,0,79.37h15.2a8.5,8.5,0,0,0,0-17Z"/><path class="cls-2" d="M837.42,750.09H544.77a8.5,8.5,0,0,0,0,17H837.42a8.5,8.5,0,0,0,0-17Z"/><path class="cls-1" d="M609.49,783.92a46,46,0,0,0,46,46h0a46,46,0,0,0,46-46V758.59H609.49Z"/><path class="cls-2" d="M701.41,750.09H609.49a8.5,8.5,0,0,0-8.5,8.5v25.33a54.46,54.46,0,1,0,108.92,0V758.59A8.5,8.5,0,0,0,701.41,750.09Zm-8.5,33.83a37.46,37.46,0,1,1-74.92,0V767.09h74.92Z"/><path class="cls-1" d="M733.31,783.92a46,46,0,0,0,46,46h0a46,46,0,0,0,46-46V758.59H733.31Z"/><path class="cls-2" d="M825.23,750.09H733.31a8.5,8.5,0,0,0-8.5,8.5v25.33a54.46,54.46,0,0,0,108.92,0V758.59A8.5,8.5,0,0,0,825.23,750.09Zm-8.5,33.83a37.46,37.46,0,0,1-74.92,0V767.09h74.92Z"/><path class="cls-10" d="M802.3,773.47a8.5,8.5,0,0,0-8.5,8.5,16.92,16.92,0,0,1-16.9,16.9,8.5,8.5,0,0,0,0,17A33.94,33.94,0,0,0,810.8,782,8.5,8.5,0,0,0,802.3,773.47Z"/><path class="cls-10" d="M680.36,773.47a8.5,8.5,0,0,0-8.5,8.5,16.92,16.92,0,0,1-16.9,16.9,8.5,8.5,0,0,0,0,17,33.94,33.94,0,0,0,33.9-33.9A8.5,8.5,0,0,0,680.36,773.47Z"/><path class="cls-3" d="M665.77,571A124.75,124.75,0,0,0,541,695.75v8.44H790.52v-8.44A124.75,124.75,0,0,0,665.77,571Z"/><path class="cls-2" d="M665.77,562.5c-73.48,0-133.25,59.78-133.25,133.25v8.44a8.5,8.5,0,0,0,8.5,8.5H790.52a8.5,8.5,0,0,0,8.5-8.5v-8.44C799,622.27,739.25,562.5,665.77,562.5ZM549.52,695.69a116.25,116.25,0,0,1,232.51,0Z"/><path class="cls-3" d="M869.78,675.11H743.62L659.2,704.19H869.78a14.54,14.54,0,0,0,14.54-14.54h0A14.54,14.54,0,0,0,869.78,675.11Z"/><path class="cls-2" d="M869.78,666.61H743.62a8.5,8.5,0,0,0,0,17H869.78a6,6,0,0,1,0,12.08H659.2a8.5,8.5,0,0,0,0,17H869.78a23,23,0,0,0,0-46.08Z"/><path class="cls-2" d="M712.92,906.46a56.79,56.79,0,0,1-19.44,2.38c-9.13-.42-17.84-2.84-24.53-6.83a8.5,8.5,0,1,0-8.71,14.6c9.19,5.48,20.41,8.66,32.46,9.21q1.77.08,3.54.08A73,73,0,0,0,718,922.67a8.5,8.5,0,0,0-5.11-16.21Z"/><path class="cls-1" d="M1265.23,1102.79H848.42c-27.39,0-59.81,21.57-60.14,49.6l-15.39,284.16h-138a39,39,0,0,0-39,39h684.68l23.69-323.17C1310.1,1125,1292.62,1102.79,1265.23,1102.79Z"/><path class="cls-2" d="M1265.23,1094.29H848.42c-15.36,0-32.33,6-45.4,16-14.74,11.33-23,26.16-23.24,41.76L764.83,1428H634.93a47.56,47.56,0,0,0-47.51,47.51,8.5,8.5,0,0,0,8.5,8.5h684.68a8.5,8.5,0,0,0,8.48-7.88l23.65-322.61c3.2-15.79-.06-30.68-9.21-42C1294.48,1100.43,1280.88,1094.29,1265.23,1094.29Zm30.74,56.33a8.46,8.46,0,0,0-.16,1.15l-23.11,315.29H605.62a30.57,30.57,0,0,1,29.31-22h138a8.5,8.5,0,0,0,8.49-8l15.39-284.16q0-.18,0-.36c.27-22.82,28.47-41.2,51.64-41.2h416.81c10.43,0,19.33,3.9,25.07,11C1296.27,1129.65,1298.28,1139.72,1296,1150.62Z"/><path class="cls-3" d="M1302.43,1102.79H885.62c-27.39,0-57.51,20.57-60.14,49.6L801.8,1475.55h516l23.69-323.17C1343.28,1124,1329.82,1102.79,1302.43,1102.79Z"/><path class="cls-2" d="M1302.43,1094.29H885.62c-30.63,0-65.5,23-68.6,57.33v.14l-23.69,323.17a8.5,8.5,0,0,0,8.48,9.12h516a8.5,8.5,0,0,0,8.48-7.88L1350,1152.92c1.17-18.46-3.62-34.41-13.47-44.91C1328.07,1099,1316.29,1094.29,1302.43,1094.29Zm30.58,57.48-23.11,315.29h-499l23-314c2.27-24.64,29-41.8,51.67-41.8h416.81c9.17,0,16.46,2.81,21.67,8.36C1330.71,1126.68,1333.87,1138.12,1333,1151.76Z"/><path class="cls-11" d="M1662.61,1067.83c-.21,48.66,48,61.35,48,61.35s48.29-12.27,48.5-60.93S1711.34,953,1711.34,953,1662.82,1019.17,1662.61,1067.83Z"/><path class="cls-2" d="M1711.38,944.45a8.47,8.47,0,0,0-6.89,3.48c-2,2.79-50.16,69-50.38,119.87-.1,22.65,9.32,41.91,27.22,55.7a84.19,84.19,0,0,0,27.09,13.91,8.5,8.5,0,0,0,4.26,0,84.18,84.18,0,0,0,27.21-13.68c18-13.63,27.6-32.81,27.7-55.46.22-50.84-47.32-117.49-49.35-120.3A8.5,8.5,0,0,0,1711.38,944.45Zm-48.77,123.38h0Zm88,.38c-.16,36.36-31.34,49.22-40,52.09-8.64-3-39.67-16.09-39.52-52.43.15-34.51,27.12-79.84,40.17-99.76,4.43,6.88,10.47,16.77,16.49,28.2C1742.78,1024.84,1750.67,1049.7,1750.59,1068.21Z"/><path class="cls-2" d="M1710.84,1070.82h0a8.5,8.5,0,0,0-8.5,8.46l-.91,212.64a8.5,8.5,0,0,0,8.46,8.54h0a8.5,8.5,0,0,0,8.5-8.46l.91-212.64A8.5,8.5,0,0,0,1710.84,1070.82Z"/><path class="cls-11" d="M1558.42,1105s9.78,63.45,36.58,90.48,60.46,7.39,60.46,7.39,19.92-33.49-6.88-60.52S1558.42,1105,1558.42,1105Z"/><path class="cls-2" d="M1559.79,1096.58a8.5,8.5,0,0,0-9.77,9.68c.42,2.7,10.53,66.51,38.94,95.17a54.68,54.68,0,0,0,39.82,16.76,64.11,64.11,0,0,0,31-8,8.5,8.5,0,0,0,3-3c8.05-13.54,16.72-45.77-8.14-70.85C1626.21,1107.68,1562.49,1097,1559.79,1096.58Zm89.4,99.92c-6.78,3.16-29.63,11.64-48.15-7-9.95-10-19-27.89-26.17-51.63-2.51-8.32-4.39-16-5.69-22,5.92,1.34,13.53,3.26,21.76,5.82,23.79,7.39,41.63,16.61,51.61,26.68C1661.15,1167.06,1652.47,1189.69,1649.2,1196.5Z"/><path class="cls-2" d="M1628.44,1163.51a8.5,8.5,0,1,0-12.07,12l87.63,88.39a8.5,8.5,0,0,0,12.07-12Z"/><path class="cls-11" d="M1765.08,1203.31s33.49,19.92,60.52-6.87,37.36-90.16,37.36-90.16-63.45,9.78-90.48,36.58S1765.08,1203.31,1765.08,1203.31Z"/><path class="cls-2" d="M1861.66,1097.87c-2.7.42-66.51,10.53-95.17,38.95-25.08,24.86-16.69,57.17-8.75,70.77a8.5,8.5,0,0,0,3,3,64.12,64.12,0,0,0,31.4,8.27,54.66,54.66,0,0,0,39.45-16.42c28.66-28.41,39.32-92.13,39.76-94.83a8.5,8.5,0,0,0-9.68-9.77Zm-36.06,98.56h0Zm20.7-57.65c-7.39,23.79-16.61,41.63-26.68,51.61-18.76,18.6-41.39,9.92-48.19,6.65-3.16-6.78-11.65-29.63,7-48.15,10-9.95,27.89-19,51.63-26.17,8.32-2.51,16-4.39,22-5.69C1850.77,1122.94,1848.85,1130.55,1846.29,1138.78Z"/><path class="cls-2" d="M1793,1163.7,1704,1251.85a8.5,8.5,0,1,0,12,12.07l88.91-88.14a8.5,8.5,0,1,0-12-12.07Z"/><polygon class="cls-1" points="1671.85 1284.48 1593.83 1284.08 1626.43 1474.71 1671.17 1474.94 1747.02 1475.32 1791.77 1475.55 1825.72 1285.26 1747.7 1284.86 1671.85 1284.48"/><path class="cls-2" d="M1825.76,1276.76l-231.88-1.18h0a8.5,8.5,0,0,0-8.38,9.93L1618,1476.14a8.5,8.5,0,0,0,8.34,7.07l165.34.84h0a8.5,8.5,0,0,0,8.37-7l34-190.29a8.5,8.5,0,0,0-8.32-10ZM1784.66,1467l-151.05-.77-29.68-173.61,211.66,1.08Z"/><polygon class="cls-1" points="3091.94 1475.55 3205.11 1475.55 3225.77 1253.46 3071.28 1253.46 3091.94 1475.55"/><path class="cls-2" d="M3225.77,1245H3071.28a8.5,8.5,0,0,0-8.46,9.29l20.66,222.09a8.5,8.5,0,0,0,8.46,7.71h113.17a8.5,8.5,0,0,0,8.46-7.71l20.66-222.09a8.5,8.5,0,0,0-8.46-9.29Zm-28.41,222.09h-97.68L3080.61,1262h135.84Z"/><polygon class="cls-8" points="3091.28 1225.46 3071.28 1253.46 3225.77 1253.46 3208.77 1225.46 3091.28 1225.46"/><path class="cls-2" d="M3216,1221.05a8.5,8.5,0,0,0-7.27-4.09H3091.28a8.5,8.5,0,0,0-6.92,3.56l-20,28a8.5,8.5,0,0,0,6.92,13.44h154.49a8.5,8.5,0,0,0,7.27-12.91ZM3087.8,1245l7.86-11H3204l6.68,11Z"/><path class="cls-12" d="M3114.14,1390h12.19l29.6-63.56-6.1-12.19-35.7,75.75Zm40.92-40.92,6.1-11.32,24.38,51.37-12.19.87L3155.06,1349Z"/><path class="cls-13" d="M1047.2,1329.94h12.19l29.6-63.56-6.1-12.19-35.7,75.75Zm40.92-40.92,6.1-11.32,24.38,51.37-12.19.87L1088.12,1289Z"/><path class="cls-13" d="M3492.14,1335h12.19l29.6-63.56-6.1-12.19-35.7,75.75Zm40.92-40.92,6.1-11.32,24.38,51.37-12.19.87L3533.06,1294Z"/></g></g></svg>