<svg xmlns="http://www.w3.org/2000/svg" viewBox="0 0 684.92 300.55"><defs><style>.cls-1{fill:#464646;}</style></defs><title>Zasób 3</title><g id="Warstwa_2" data-name="Warstwa 2"><g id="Layer_1" data-name="Layer 1"><path class="cls-1" d="M676.42,0H336.74a8.5,8.5,0,0,0-8.5,8.5V243.42a8.5,8.5,0,0,0,8.5,8.5H676.42a8.5,8.5,0,0,0,8.5-8.5V8.5A8.5,8.5,0,0,0,676.42,0Zm-8.5,234.92H345.24V17H667.92Z"/><path class="cls-1" d="M632.5,38H380.66a8.5,8.5,0,0,0-8.5,8.5V205.38a8.5,8.5,0,0,0,8.5,8.5H632.5a8.5,8.5,0,0,0,8.5-8.5V46.54A8.5,8.5,0,0,0,632.5,38ZM624,196.88H389.16V55H624Z"/><path class="cls-1" d="M634.64,139.76,537.48,84.07a8.5,8.5,0,0,0-10,1.09L407.25,194.77a8.5,8.5,0,0,0,11.45,12.57L534.4,101.9l91.79,52.61a8.5,8.5,0,1,0,8.45-14.75Z"/><path class="cls-1" d="M471.23,144.23l-36.73-31.4a8.5,8.5,0,0,0-10.65-.32l-46.21,35A8.5,8.5,0,1,0,387.89,161l40.76-30.83,31.54,27a8.5,8.5,0,0,0,11-12.92Z"/><path class="cls-1" d="M258.56,104.47H8.5A8.5,8.5,0,0,0,0,113V292.05a8.5,8.5,0,0,0,8.5,8.5H258.56a8.5,8.5,0,0,0,8.5-8.5V113A8.5,8.5,0,0,0,258.56,104.47Zm-8.5,179.09H17V121.47H250.06Z"/><path class="cls-1" d="M214.64,142.5H52.42a8.5,8.5,0,0,0-8.5,8.5V254a8.5,8.5,0,0,0,8.5,8.5H214.64a8.5,8.5,0,0,0,8.5-8.5V151A8.5,8.5,0,0,0,214.64,142.5Zm-8.5,103H60.92v-86H206.14Z"/></g></g></svg>