<svg xmlns="http://www.w3.org/2000/svg" viewBox="0 0 407.25 398.57"><defs><style>.cls-1{fill:#464646;}</style></defs><title>Zasób 4</title><g id="Warstwa_2" data-name="Warstwa 2"><g id="Layer_1" data-name="Layer 1"><path class="cls-1" d="M153.75,96.42a8.5,8.5,0,0,0-8.5,8.5v91a8.5,8.5,0,0,0,17,0v-91A8.5,8.5,0,0,0,153.75,96.42Z"/><path class="cls-1" d="M153.75,0a8.5,8.5,0,0,0-6.88,3.51c-1.16,1.59-28.29,39.3-28.29,68.63,0,26.49,21.62,39.08,33,42a8.5,8.5,0,0,0,4.26,0c11.43-3,33-15.55,33-42,0-29.33-27.14-67-28.29-68.63A8.5,8.5,0,0,0,153.75,0Zm0,97c-5.27-2.05-18.18-8.73-18.18-24.85,0-14.79,10.14-34.93,18.16-48.14,1.85,3,3.9,6.57,5.95,10.42,8,15.11,12.24,28.15,12.24,37.72C171.92,88.27,159,94.95,153.75,97Z"/><path class="cls-1" d="M70.89,95.56a8.5,8.5,0,0,0-9.73,9.73,167.11,167.11,0,0,0,4.91,20.55c4.73,15.45,10.75,26.91,17.92,34.07h0a33.85,33.85,0,0,0,24.54,10.28,39.55,39.55,0,0,0,19.23-5,8.5,8.5,0,0,0,3-3c4.94-8.38,10.19-28.32-5.26-43.77C109.15,102,74.75,96.18,70.89,95.56Zm46.2,55.95c-4,1.69-13.27,4.19-21.08-3.62h0c-7.24-7.24-12.37-21.6-15.33-32.81,11.21,3,25.57,8.09,32.81,15.34C121.26,138.18,118.79,147.42,117.09,151.51Z"/><path class="cls-1" d="M129.45,151.83a8.5,8.5,0,1,0-12,12l30.3,30.3a8.5,8.5,0,1,0,12-12Z"/><path class="cls-1" d="M236.61,95.56a167.11,167.11,0,0,0-20.55,4.91c-15.44,4.73-26.91,10.75-34.07,17.92-15.45,15.45-10.2,35.39-5.26,43.77a8.51,8.51,0,0,0,3,3,39.54,39.54,0,0,0,19.23,5,33.86,33.86,0,0,0,24.54-10.27h0c16.36-16.36,22.21-50.75,22.83-54.62a8.5,8.5,0,0,0-9.73-9.73ZM217.5,153.9h0Zm-6-6c-7.76,7.76-17,5.31-21.08,3.61-1.71-4.14-4.15-13.34,3.6-21.09,7.24-7.24,21.6-12.37,32.81-15.34C223.85,126.29,218.73,140.65,211.49,147.89Z"/><path class="cls-1" d="M178,151.83l-30.3,30.3a8.5,8.5,0,0,0,12,12l30.3-30.3a8.5,8.5,0,1,0-12-12Z"/><path class="cls-1" d="M219.45,203.52a8.5,8.5,0,0,0-9.94,6.76l-17.08,89.53H115.07L98,210.28a8.5,8.5,0,0,0-16.7,3.19l18.4,96.44a8.5,8.5,0,0,0,8.35,6.91h91.42a8.5,8.5,0,0,0,8.35-6.91l18.4-96.44A8.5,8.5,0,0,0,219.45,203.52Z"/><path class="cls-1" d="M225.53,189.25H82a8.5,8.5,0,0,0-8.5,8.5v6.42A16.54,16.54,0,0,0,90,220.68a8.5,8.5,0,0,0,6.09-14.43H211.42a8.5,8.5,0,0,0,6.09,14.43A16.54,16.54,0,0,0,234,204.16v-6.42A8.5,8.5,0,0,0,225.53,189.25Z"/><path class="cls-1" d="M355.5,329.43H326.09a8.5,8.5,0,0,0-8.5,8.5v52.14a8.5,8.5,0,0,0,8.5,8.5H355.5a8.5,8.5,0,0,0,8.5-8.5V337.93A8.5,8.5,0,0,0,355.5,329.43ZM347,381.57H334.59V346.43H347Z"/><path class="cls-1" d="M81.17,329.43H51.75a8.5,8.5,0,0,0-8.5,8.5v52.14a8.5,8.5,0,0,0,8.5,8.5H81.17a8.5,8.5,0,0,0,8.5-8.5V337.93A8.5,8.5,0,0,0,81.17,329.43Zm-8.5,52.14H60.25V346.43H72.67Z"/><path class="cls-1" d="M398.75,299.81H8.5a8.5,8.5,0,0,0-8.5,8.5v29.62a8.5,8.5,0,0,0,8.5,8.5H398.75a8.5,8.5,0,0,0,8.5-8.5V308.31A8.5,8.5,0,0,0,398.75,299.81Zm-8.5,29.62H17V316.81H390.25Z"/></g></g></svg>