<svg xmlns="http://www.w3.org/2000/svg" viewBox="0 0 85.2 85.2"><defs><style>.cls-1{fill:#464646;}</style></defs><title>Zasób 5</title><g id="Warstwa_2" data-name="Warstwa 2"><g id="Layer_1" data-name="Layer 1"><path class="cls-1" d="M70.69,2.49A39.46,39.46,0,0,1,42.6,14.13,39.46,39.46,0,0,1,14.51,2.49a8.5,8.5,0,0,0-12,12A56.35,56.35,0,0,0,42.6,31.13,56.35,56.35,0,0,0,82.71,14.51a8.5,8.5,0,0,0-12-12Z"/><path class="cls-1" d="M2.49,2.49a8.5,8.5,0,0,0,0,12,39.77,39.77,0,0,1,0,56.18,8.5,8.5,0,0,0,12,12,56.79,56.79,0,0,0,0-80.22A8.5,8.5,0,0,0,2.49,2.49Z"/><path class="cls-1" d="M82.71,2.49a8.5,8.5,0,0,0-12,0,56.79,56.79,0,0,0,0,80.22,8.5,8.5,0,0,0,12-12,39.77,39.77,0,0,1,0-56.18A8.5,8.5,0,0,0,82.71,2.49Z"/><path class="cls-1" d="M42.6,54.07A56.35,56.35,0,0,0,2.49,70.69a8.5,8.5,0,0,0,12,12,39.72,39.72,0,0,1,56.18,0,8.5,8.5,0,0,0,12-12A56.35,56.35,0,0,0,42.6,54.07Z"/></g></g></svg>