<svg xmlns="http://www.w3.org/2000/svg" viewBox="0 0 85.45 85.45"><defs><style>.cls-1{fill:#464646;}</style></defs><title>Zasób 6</title><g id="Warstwa_2" data-name="Warstwa 2"><g id="Layer_1" data-name="Layer 1"><path class="cls-1" d="M42.72,0a8.5,8.5,0,0,0-8.5,8.5A25.75,25.75,0,0,1,8.5,34.22a8.5,8.5,0,0,0,0,17A42.77,42.77,0,0,0,51.22,8.5,8.5,8.5,0,0,0,42.72,0Z"/><path class="cls-1" d="M8.5,34.22a8.5,8.5,0,0,0,0,17A25.75,25.75,0,0,1,34.22,76.95a8.5,8.5,0,0,0,17,0A42.77,42.77,0,0,0,8.5,34.22Z"/><path class="cls-1" d="M76.95,34.22A25.75,25.75,0,0,1,51.22,8.5a8.5,8.5,0,0,0-17,0A42.77,42.77,0,0,0,76.95,51.22a8.5,8.5,0,0,0,0-17Z"/><path class="cls-1" d="M76.95,34.22A42.77,42.77,0,0,0,34.22,76.95a8.5,8.5,0,0,0,17,0A25.75,25.75,0,0,1,76.95,51.22a8.5,8.5,0,0,0,0-17Z"/></g></g></svg>