<svg xmlns="http://www.w3.org/2000/svg" viewBox="0 0 4785.27 2026.59"><defs><style>.cls-1,.cls-13{fill:#777;}.cls-12,.cls-2{fill:#1e1e1e;}.cls-3{fill:#464646;}.cls-4{fill:#353535;}.cls-5{fill:#fff;}.cls-6{fill:#6fddef;}.cls-7{fill:#ffe3ae;}.cls-8{fill:#808285;}.cls-9{fill:#52d4f7;}.cls-10{fill:#a0a0a0;}.cls-11{fill:#7fc146;}.cls-12,.cls-13{fill-rule:evenodd;}</style></defs><title>Zasób 1</title><g id="Warstwa_2" data-name="Warstwa 2"><g id="Layer_1" data-name="Layer 1"><rect class="cls-1" x="1346.2" y="1581.21" width="352" height="40"/><path class="cls-2" d="M1698.2,1572.71h-352a8.5,8.5,0,0,0-8.5,8.5v40a8.5,8.5,0,0,0,8.5,8.5h352a8.5,8.5,0,0,0,8.5-8.5v-40A8.5,8.5,0,0,0,1698.2,1572.71Zm-8.5,40h-335v-23h335Z"/><polygon class="cls-1" points="1486.2 985.87 1249.07 1843.43 1321.07 1843.43 1522.2 1116.06 1723.34 1843.43 1795.34 1843.43 1558.2 985.87 1486.2 985.87"/><path class="cls-2" d="M1566.4,983.61a8.5,8.5,0,0,0-8.19-6.23h-72a8.5,8.5,0,0,0-8.19,6.23l-237.13,857.55a8.5,8.5,0,0,0,8.19,10.77h72a8.5,8.5,0,0,0,8.19-6.23L1522.2,1148l192.94,697.74a8.5,8.5,0,0,0,8.19,6.23h72a8.5,8.5,0,0,0,8.19-10.77Zm163.41,851.32L1530.4,1113.8a8.5,8.5,0,0,0-16.38,0L1314.6,1834.93h-54.36l232.43-840.55h59.06l232.43,840.55Z"/><rect class="cls-1" x="2935.89" y="1581.21" width="352" height="40"/><path class="cls-2" d="M3287.89,1572.71h-352a8.5,8.5,0,0,0-8.5,8.5v40a8.5,8.5,0,0,0,8.5,8.5h352a8.5,8.5,0,0,0,8.5-8.5v-40A8.5,8.5,0,0,0,3287.89,1572.71Zm-8.5,40h-335v-23h335Z"/><polygon class="cls-1" points="3075.89 985.87 2838.75 1843.43 2910.75 1843.43 3111.89 1116.06 3313.02 1843.43 3385.02 1843.43 3147.89 985.87 3075.89 985.87"/><path class="cls-2" d="M3156.08,983.61a8.5,8.5,0,0,0-8.19-6.23h-72a8.5,8.5,0,0,0-8.19,6.23l-237.13,857.55a8.5,8.5,0,0,0,8.19,10.77h72a8.5,8.5,0,0,0,8.19-6.23L3111.89,1148l192.94,697.74a8.5,8.5,0,0,0,8.19,6.23h72a8.5,8.5,0,0,0,8.19-10.77Zm163.41,851.32L3120.08,1113.8a8.5,8.5,0,0,0-16.38,0l-199.41,721.13h-54.36l232.43-840.55h59.06l232.43,840.55Z"/><path class="cls-2" d="M3769.42,1834.93H8.5a8.5,8.5,0,0,0,0,17H3769.42a8.5,8.5,0,0,0,0-17Z"/><path class="cls-2" d="M754.43,1922.26H376.31a8.5,8.5,0,0,0,0,17H754.43a8.5,8.5,0,0,0,0-17Z"/><path class="cls-2" d="M1025.24,1922.26h-138a8.5,8.5,0,0,0,0,17h138a8.5,8.5,0,0,0,0-17Z"/><path class="cls-2" d="M2782.9,1922.26H1269.11a8.5,8.5,0,0,0,0,17H2782.9a8.5,8.5,0,0,0,0-17Z"/><path class="cls-2" d="M1377.81,2009.59H953.7a8.5,8.5,0,1,0,0,17h424.11a8.5,8.5,0,0,0,0-17Z"/><path class="cls-2" d="M2599,2009.59H1536.21a8.5,8.5,0,0,0,0,17H2599a8.5,8.5,0,0,0,0-17Z"/><path class="cls-2" d="M4776.77,1834.93h-3557a8.5,8.5,0,0,0,0,17h3557a8.5,8.5,0,0,0,0-17Z"/><path class="cls-2" d="M3827.8,1922.26H2908.06a8.5,8.5,0,0,0,0,17H3827.8a8.5,8.5,0,0,0,0-17Z"/><path class="cls-2" d="M4645.49,1922.26H3960.65a8.5,8.5,0,0,0,0,17h684.84a8.5,8.5,0,0,0,0-17Z"/><path class="cls-2" d="M3117.56,2009.59H2693.45a8.5,8.5,0,0,0,0,17h424.11a8.5,8.5,0,0,0,0-17Z"/><path class="cls-2" d="M4338.77,2009.59H3276a8.5,8.5,0,0,0,0,17H4338.77a8.5,8.5,0,0,0,0-17Z"/><path class="cls-2" d="M4604.47,2009.59h-138a8.5,8.5,0,0,0,0,17h138a8.5,8.5,0,0,0,0-17Z"/><path class="cls-1" d="M3710.19,486.66,3481,807.51c-36.11,50.56,0,120.78,62.16,120.78h0l363.94-509.55h-64.95A162.2,162.2,0,0,0,3710.19,486.66Z"/><path class="cls-2" d="M3907.14,410.24h-64.95a171,171,0,0,0-138.91,71.49L3474.12,802.57a84.89,84.89,0,0,0,69.08,134.22,8.5,8.5,0,0,0,6.92-3.56l363.94-509.55a8.5,8.5,0,0,0-6.92-13.44ZM3538.91,919.67a67.89,67.89,0,0,1-51-107.21L3717.11,491.6a154,154,0,0,1,125.07-64.37h48.43Z"/><path class="cls-1" d="M2893,1803c-19.46,11.08-11.59,40.78,10.8,40.78H3234V1730.91H3094.58Z"/><path class="cls-2" d="M3234,1722.41H3094.58a8.49,8.49,0,0,0-2.86.5L2890.16,1795a8.39,8.39,0,0,0-1.34.62,30.32,30.32,0,0,0,15,56.67H3234a8.5,8.5,0,0,0,8.5-8.5V1730.91A8.5,8.5,0,0,0,3234,1722.41Zm-8.5,112.88H2903.82a13.32,13.32,0,0,1-7.16-24.55l199.39-71.33h129.49Z"/><path class="cls-3" d="M3303.28,1161.06c-11.67,16.43-21,39.49-27.49,64.14l-181.21,505.71H3234l195.29-448.38h47.41l183-175.46H3406.26C3361.82,1107.07,3327.78,1126.57,3303.28,1161.06Z"/><path class="cls-2" d="M3659.71,1098.57H3406.26c-45.8,0-82.79,19.37-109.91,57.57-11.55,16.26-21.46,39.26-28.69,66.53L3086.57,1728a8.5,8.5,0,0,0,8,11.37H3234a8.5,8.5,0,0,0,7.79-5.11L3434.9,1291h41.84a8.5,8.5,0,0,0,0-17h-47.41a8.5,8.5,0,0,0-7.79,5.11l-193.07,443.28H3106.65l177.14-494.34c.08-.23.15-.46.22-.7,6.72-25.48,15.78-46.7,26.21-61.38,23.76-33.45,56.07-50.42,96.05-50.42h253.45a8.5,8.5,0,0,0,0-17Z"/><polygon class="cls-4" points="3429.34 1282.52 3476.75 1282.52 3659.71 1107.07 3477.2 1107.07 3429.34 1282.52"/><path class="cls-2" d="M3659.71,1098.57H3477.2a8.5,8.5,0,0,0,0,17h161.37L3473.33,1274h-44a8.5,8.5,0,0,0,0,17h47.41a8.5,8.5,0,0,0,5.88-2.37l183-175.46a8.5,8.5,0,0,0-5.88-14.63Z"/><path class="cls-1" d="M4073.43,418.74H3842.5l-84.74,154.47v533.86h400.4V503.47A84.74,84.74,0,0,0,4073.43,418.74Z"/><path class="cls-2" d="M4073.43,410.24H3842.5a8.5,8.5,0,0,0,0,17h230.93a76.32,76.32,0,0,1,76.24,76.24v595.09h-383.4V573.21a8.5,8.5,0,0,0-17,0v533.86a8.5,8.5,0,0,0,8.5,8.5h400.4a8.5,8.5,0,0,0,8.5-8.5V503.47A93.34,93.34,0,0,0,4073.43,410.24Z"/><path class="cls-1" d="M4206.68,486.66a162.2,162.2,0,0,0-132-67.93h-64.95l94.77,132.68,269.18,376.87h0c62.13,0,98.27-70.22,62.16-120.78Z"/><path class="cls-2" d="M4213.6,481.72a171,171,0,0,0-138.91-71.49h-64.95a8.5,8.5,0,0,0,0,17h64.95a154,154,0,0,1,125.07,64.37l229.16,320.85a67.89,67.89,0,0,1-51,107.21L4111.42,546.48a8.5,8.5,0,0,0-13.83,9.88l269.18,376.87a8.5,8.5,0,0,0,6.92,3.56,84.89,84.89,0,0,0,69.08-134.22Z"/><rect class="cls-1" x="3757.76" y="797.23" width="400.4" height="309.84"/><path class="cls-2" d="M4158.16,788.73a8.5,8.5,0,0,0-8.5,8.5v301.34h-383.4V797.23a8.5,8.5,0,1,0-17,0v309.84a8.5,8.5,0,0,0,8.5,8.5h400.4a8.5,8.5,0,0,0,8.5-8.5V797.23A8.5,8.5,0,0,0,4158.16,788.73Z"/><path class="cls-5" d="M3731,836H3698.2v93H3824A93,93,0,0,0,3731,836Z"/><path d="M3731,827.5H3698.2a8.5,8.5,0,0,0-8.5,8.5v93a8.5,8.5,0,0,0,8.5,8.5H3824a8.5,8.5,0,0,0,8.5-8.5A101.66,101.66,0,0,0,3731,827.5Zm-24.31,93v-76H3731a84.66,84.66,0,0,1,84.12,76Z"/><polygon class="cls-6" points="3506.95 928.29 3698.2 928.29 3698.2 807.61 3605.21 808.18 3506.95 928.29"/><path d="M3698.2,799.11h-.05l-93,.57a8.5,8.5,0,1,0,.1,17l84.44-.52V919.79H3507a8.5,8.5,0,0,0,0,17H3698.2a8.5,8.5,0,0,0,8.5-8.5V807.61a8.5,8.5,0,0,0-8.5-8.5Z"/><rect class="cls-3" x="3632.22" y="1282.52" width="563.89" height="101.98" rx="35.98" ry="35.98"/><path class="cls-2" d="M4160.12,1274H3668.2a44.53,44.53,0,0,0-44.48,44.48v30A44.53,44.53,0,0,0,3668.2,1393h491.92a44.53,44.53,0,0,0,44.48-44.48v-30A44.53,44.53,0,0,0,4160.12,1274Zm27.48,74.5a27.51,27.51,0,0,1-27.48,27.48H3668.2a27.51,27.51,0,0,1-27.48-27.48v-30A27.51,27.51,0,0,1,3668.2,1291h491.92a27.51,27.51,0,0,1,27.48,27.48Z"/><rect class="cls-3" x="3857.56" y="1384.5" width="113.21" height="68.72"/><path class="cls-2" d="M3970.77,1376H3857.56a8.5,8.5,0,0,0-8.5,8.5v68.72a8.5,8.5,0,0,0,8.5,8.5h113.21a8.5,8.5,0,0,0,8.5-8.5V1384.5A8.5,8.5,0,0,0,3970.77,1376Zm-8.5,68.72h-96.21V1393h96.21Z"/><rect class="cls-3" x="3872.23" y="1453.22" width="83.87" height="281.9"/><path class="cls-2" d="M3956.1,1444.72h-83.86a8.5,8.5,0,0,0-8.5,8.5v281.9a8.5,8.5,0,0,0,8.5,8.5h83.86a8.5,8.5,0,0,0,8.5-8.5v-281.9A8.5,8.5,0,0,0,3956.1,1444.72Zm-8.5,281.9h-66.86v-264.9h66.86Z"/><circle class="cls-3" cx="4130.67" cy="1803.55" r="39.87"/><path class="cls-2" d="M4130.67,1755.18a48.37,48.37,0,1,0,48.37,48.37A48.43,48.43,0,0,0,4130.67,1755.18Zm0,79.75a31.37,31.37,0,1,1,31.37-31.37A31.41,31.41,0,0,1,4130.67,1834.93Z"/><circle class="cls-3" cx="3697.66" cy="1803.55" r="39.87"/><path class="cls-2" d="M3697.66,1755.18a48.37,48.37,0,1,0,48.37,48.37A48.43,48.43,0,0,0,3697.66,1755.18Zm0,79.75a31.37,31.37,0,1,1,31.37-31.37A31.41,31.41,0,0,1,3697.66,1834.93Z"/><circle class="cls-3" cx="3914.16" cy="1803.55" r="39.87"/><path class="cls-2" d="M3914.16,1755.18a48.37,48.37,0,1,0,48.37,48.37A48.43,48.43,0,0,0,3914.16,1755.18Zm0,79.75a31.37,31.37,0,1,1,31.37-31.37A31.41,31.41,0,0,1,3914.16,1834.93Z"/><path class="cls-3" d="M4127.94,1711.95H3700.39a45,45,0,0,0-45,45h517.52A45,45,0,0,0,4127.94,1711.95Z"/><path class="cls-2" d="M4127.94,1703.45H3700.39a53.55,53.55,0,0,0-53.49,53.49,8.5,8.5,0,0,0,8.5,8.5h517.52a8.5,8.5,0,0,0,8.5-8.5A53.55,53.55,0,0,0,4127.94,1703.45Zm-463,45a36.55,36.55,0,0,1,35.49-28h427.54a36.56,36.56,0,0,1,35.49,28Z"/><path class="cls-7" d="M3958.72,77.27h0a111,111,0,0,0-111,111V418.74h222V188.25A111,111,0,0,0,3958.72,77.27Z"/><path class="cls-2" d="M3958.72,68.77a119.61,119.61,0,0,0-119.48,119.48V418.74a8.5,8.5,0,0,0,8.5,8.5h222a8.5,8.5,0,0,0,8.5-8.5V188.25A119.61,119.61,0,0,0,3958.72,68.77ZM4061.2,410.24h-205v-222a102.48,102.48,0,0,1,205,0Z"/><path class="cls-8" d="M3966,17.17H3828.06s-10.59,104.45,104.46,104.45h61.13l26.44,184.11h49.62V120.87A103.7,103.7,0,0,0,3966,17.17Z"/><path class="cls-2" d="M3966,8.67H3828.06a8.5,8.5,0,0,0-8.46,7.64c-.2,1.93-4.45,47.73,25.62,81,19.67,21.76,49,32.8,87.29,32.8h53.76l25.39,176.82a8.5,8.5,0,0,0,8.41,7.29h49.62a8.5,8.5,0,0,0,8.5-8.5V120.87A112.32,112.32,0,0,0,3966,8.67Zm95.2,288.56h-33.75l-25.39-176.82a8.5,8.5,0,0,0-8.41-7.29h-61.13c-33.17,0-58.27-9.11-74.58-27.08-18.42-20.3-21.35-47.34-21.6-60.36H3966a95.3,95.3,0,0,1,95.2,95.2Z"/><path class="cls-7" d="M4010.71,258h-7.32v47.73h7.32a23.86,23.86,0,0,0,23.86-23.86h0A23.86,23.86,0,0,0,4010.71,258Z"/><path class="cls-2" d="M4010.71,249.5h-7.32a8.5,8.5,0,0,0,0,17h7.32a15.36,15.36,0,1,1,0,30.73h-7.32a8.5,8.5,0,0,0,0,17h7.32a32.36,32.36,0,1,0,0-64.73Z"/><path class="cls-2" d="M3924.36,191.4a8.5,8.5,0,0,0-16.16-5.29L3880.42,271c-3.14,9.59-1.58,20.72,4,28.37,4.09,5.65,10.05,8.89,16.34,8.89h15.56a8.5,8.5,0,0,0,0-17h-15.56c-1.11,0-2.17-1.31-2.58-1.87-1.94-2.68-3.26-7.93-1.57-13.11Z"/><path class="cls-3" d="M3509.74,1161.06c-11.66,16.43-21,39.49-27.49,64.14l-34.86,505.71h139.47l48.95-448.38h346.91a175.46,175.46,0,0,0,175.46-175.46H3612.72C3568.28,1107.07,3534.23,1126.57,3509.74,1161.06Z"/><path class="cls-2" d="M4158.16,1098.57H3612.72c-45.8,0-82.79,19.37-109.91,57.57-11.6,16.33-21.55,39.46-28.78,66.89a8.44,8.44,0,0,0-.26,1.58l-34.86,505.71a8.5,8.5,0,0,0,8.48,9.08h139.46a8.5,8.5,0,0,0,8.45-7.58l48.12-440.8h339.29c101.43,0,184-82.52,184-184A8.5,8.5,0,0,0,4158.16,1098.57ZM3982.71,1274H3635.79a8.5,8.5,0,0,0-8.45,7.58l-48.12,440.8H3456.49l34.18-495.82c6.7-25.13,15.68-46.08,26-60.61,23.76-33.45,56.07-50.42,96.05-50.42h536.73C4145,1203.7,4071.92,1274,3982.71,1274Z"/><path class="cls-1" d="M3214.83,1803c-21.23,11.08-12.65,40.78,11.78,40.78h360.23V1730.91H3447.38Z"/><path class="cls-2" d="M3586.85,1722.41H3447.38a8.53,8.53,0,0,0-2.52.38l-232.55,72.1a8.62,8.62,0,0,0-1.42.58c-12.89,6.73-19.08,19.79-15.78,33.27,3.46,14.09,16.11,23.55,31.49,23.55h360.23a8.5,8.5,0,0,0,8.5-8.5V1730.91A8.5,8.5,0,0,0,3586.85,1722.41Zm-8.5,112.88H3226.61c-9.14,0-13.78-5.71-15-10.6-1.37-5.58,1.06-10.7,6.52-13.81l230.52-71.47h129.68Z"/><path class="cls-2" d="M3956.15,196h-9a8.5,8.5,0,0,0,0,17h9a8.5,8.5,0,0,0,0-17Z"/><path class="cls-2" d="M3877.16,196h-9a8.5,8.5,0,0,0,0,17h9a8.5,8.5,0,0,0,0-17Z"/><path class="cls-2" d="M3939.21,338.31h-42.34a8.5,8.5,0,0,0,0,17h42.34a8.5,8.5,0,0,0,0-17Z"/><path class="cls-1" d="M4038.34,890h-178L3800,605.87c-5.82-27.39-32.75-49.6-60.14-49.6H3323c-27.39,0-44.88,22.2-39.05,49.6L3352.67,929h724.68A39,39,0,0,0,4038.34,890Z"/><path class="cls-2" d="M4038.34,881.53H3867.26l-59-277.42c-3.21-15.12-12.05-29.28-24.89-39.86s-28.35-16.47-43.57-16.47H3323c-15.66,0-29.25,6.14-38.28,17.29-9.27,11.44-12.49,26.56-9.09,42.57l68.69,323.17a8.5,8.5,0,0,0,8.31,6.73h724.68a8.5,8.5,0,0,0,8.5-8.5A47.56,47.56,0,0,0,4038.34,881.53Zm-678.79,39-67.26-316.43c-2.32-10.9-.3-21,5.67-28.34,5.74-7.09,14.64-11,25.07-11h416.81c23.55,0,46.8,19.23,51.82,42.86l60.4,284.16a8.5,8.5,0,0,0,8.31,6.73h178a30.57,30.57,0,0,1,29.31,22Z"/><path class="cls-3" d="M3702.64,556.28H3285.83c-27.39,0-44.88,22.2-39.05,49.6L3315.46,929h516l-68.69-323.17C3757,578.48,3730,556.28,3702.64,556.28Z"/><path class="cls-2" d="M3771.09,604.11c-3.21-15.12-12.05-29.28-24.89-39.86s-28.35-16.47-43.57-16.47H3285.83c-15.66,0-29.25,6.14-38.28,17.29-9.27,11.44-12.49,26.56-9.09,42.57l68.69,323.17a8.5,8.5,0,0,0,8.31,6.73h516a8.5,8.5,0,0,0,8.31-10.27ZM3322.35,920.54l-67.26-316.43c-2.32-10.9-.3-21,5.67-28.34,5.74-7.09,14.64-11,25.07-11h416.81c23.55,0,46.8,19.23,51.82,42.86L3821,920.54Z"/><path class="cls-7" d="M3991.88,929h125.85V836h-32.81A93,93,0,0,0,3991.88,929Z"/><path class="cls-2" d="M4117.73,827.5h-32.81A101.65,101.65,0,0,0,3983.38,929a8.5,8.5,0,0,0,8.5,8.5h125.85a8.5,8.5,0,0,0,8.5-8.5V836A8.5,8.5,0,0,0,4117.73,827.5Zm-8.5,93H4000.81a84.66,84.66,0,0,1,84.12-76h24.31Z"/><polygon class="cls-1" points="4104.12 807.61 4104.12 928.29 4391.75 928.29 4311.67 808.18 4104.12 807.61"/><path class="cls-2" d="M4391.75,919.79H4112.62V816.14l199,.55h0a8.5,8.5,0,0,0,0-17l-207.55-.57h0a8.5,8.5,0,0,0-8.5,8.5V928.29a8.5,8.5,0,0,0,8.5,8.5h287.64a8.5,8.5,0,0,0,0-17Z"/><path class="cls-1" d="M593.44,594c-4.8-27.24-30.78-49.33-58-49.33H211c-27.24,0-45.43,22.09-40.63,49.33l102.17,579.41c4.8,27.24,30.78,49.33,58,49.33H655c27.24,0,45.43-22.09,40.63-49.33Z"/><path class="cls-2" d="M601.81,592.48c-2.67-15.12-11-29.28-23.46-39.88s-27.74-16.47-42.93-16.47H211c-15.59,0-29.31,6.11-38.62,17.22-9.49,11.3-13.17,26.25-10.38,42.09l102.17,579.41c2.67,15.12,11,29.29,23.46,39.88s27.74,16.47,42.93,16.47H655c15.59,0,29.31-6.11,38.62-17.22,9.49-11.3,13.17-26.25,10.38-42.09Zm78.76,610.57c-6,7.19-15.12,11.14-25.6,11.14H330.59c-23.27,0-45.54-19-49.66-42.3L178.77,592.48c-1.9-10.8.46-20.82,6.66-28.21,6-7.19,15.12-11.14,25.6-11.14H535.42c23.27,0,45.54,19,49.66,42.3l102.17,579.41C689.14,1185.65,686.78,1195.67,680.58,1203.05Z"/><path class="cls-3" d="M623.44,594c-4.8-27.24-30.78-49.33-58-49.33H241c-27.24,0-45.43,22.09-40.63,49.33l102.17,579.41c4.8,27.24,30.78,49.33,58,49.33H685c27.24,0,45.43-22.09,40.63-49.33Z"/><path class="cls-2" d="M631.82,592.48c-2.67-15.12-11-29.28-23.46-39.88s-27.74-16.47-42.93-16.47H241c-15.59,0-29.31,6.11-38.62,17.22-9.49,11.3-13.17,26.25-10.38,42.09L294.2,1174.84c2.67,15.12,11,29.29,23.46,39.88s27.74,16.47,42.93,16.47H685c15.59,0,29.31-6.11,38.62-17.22,9.49-11.3,13.17-26.25,10.38-42.09Zm78.76,610.57c-6,7.19-15.12,11.14-25.6,11.14H360.59c-23.27,0-45.54-19-49.66-42.3L208.77,592.48c-1.9-10.8.46-20.82,6.66-28.21,6-7.19,15.12-11.14,25.6-11.14H565.42c23.27,0,45.54,19,49.66,42.3l102.17,579.41C719.14,1185.65,716.78,1195.67,710.58,1203.05Z"/><path class="cls-3" d="M923.07,486.66a162.2,162.2,0,0,0-132-67.93H726.13l363.94,509.55h0c62.13,0,98.27-70.22,62.16-120.78Z"/><path class="cls-2" d="M930,481.72a171,171,0,0,0-138.91-71.49H726.13a8.5,8.5,0,0,0-6.92,13.44l363.94,509.55a8.5,8.5,0,0,0,6.92,3.56,84.88,84.88,0,0,0,69.08-134.22ZM1150.43,883c-11.21,21.78-32,35.27-56.08,36.7L742.65,427.24h48.43A154,154,0,0,1,916.15,491.6l229.16,320.85A66.76,66.76,0,0,1,1150.43,883Z"/><path class="cls-1" d="M559.84,418.74a84.74,84.74,0,0,0-84.74,84.74v603.59H875.5V503.47l-84.74-84.74Z"/><path class="cls-2" d="M875.5,495a8.5,8.5,0,0,0-8.5,8.5v595.09H483.6V503.47a76.32,76.32,0,0,1,76.24-76.24H790.77a8.5,8.5,0,0,0,0-17H559.84a93.34,93.34,0,0,0-93.24,93.24v603.59a8.5,8.5,0,0,0,8.5,8.5H875.5a8.5,8.5,0,0,0,8.5-8.5V503.47A8.5,8.5,0,0,0,875.5,495Z"/><rect class="cls-3" x="475.1" y="797.23" width="400.4" height="313.22"/><path class="cls-2" d="M875.5,788.73a8.5,8.5,0,0,0-8.5,8.5v304.72H483.6V797.23a8.5,8.5,0,1,0-17,0v313.22a8.5,8.5,0,0,0,8.5,8.5H875.5a8.5,8.5,0,0,0,8.5-8.5V797.23A8.5,8.5,0,0,0,875.5,788.73Z"/><path class="cls-2" d="M1877,1161.06c-11.67,16.43-21,39.49-27.49,64.14l-135.88,471.88L1563.8,1803c-19.46,11.08-24.63,44.16-2.24,44.16,95.19,0,102.53-11.4,148.12-26.07a573.2,573.2,0,0,0,58.07-22.25l.38,34.1H1799l7.9-78.21h0v-60.83l196.21-439.22H2368c96.9,0,175.46-50.72,175.46-147.63H1980C1935.55,1107.07,1901.5,1126.57,1877,1161.06Z"/><path class="cls-2" d="M2543.43,1098.57H1980c-45.8,0-82.79,19.37-109.91,57.57-11.58,16.31-21.53,39.41-28.76,66.8l-135,468.93-147.08,104c-14.77,8.66-23.87,28.4-19.91,43.35,2.73,10.32,11.06,16.48,22.27,16.48,77.82,0,98.64-7.68,127.45-18.31,7.08-2.61,14.39-5.31,23.27-8.17,15.87-5.11,31.67-11,47.12-17.45l.24,21.31a8.5,8.5,0,0,0,8.5,8.4H1799a8.5,8.5,0,0,0,8.46-7.65l7.9-78.21a8.47,8.47,0,0,0,0-.85v-59l193.23-432.54H2368c51.68,0,96.39-13.58,129.3-39.28,35.76-27.92,54.66-68.33,54.66-116.85a8.5,8.5,0,0,0-8.5-8.5ZM1563.81,1803h0Zm923-592.49c-29.46,23-71.66,35.67-118.84,35.67H2003.06a8.5,8.5,0,0,0-7.76,5l-196.21,439.22a8.5,8.5,0,0,0-.74,3.47v60.4l-7.09,70.13h-14.72l-.29-25.69a8.5,8.5,0,0,0-12-7.66,563.82,563.82,0,0,1-57.21,21.92c-9.22,3-17,5.85-23.95,8.4-28.17,10.39-46.78,17.26-121.57,17.26-4.45,0-5.34-2-5.83-3.83-1.86-7,3.1-19.22,12.28-24.45q.36-.21.7-.45L1718.54,1704a8.49,8.49,0,0,0,3.26-4.59l135.88-471.88.05-.18c6.72-25.47,15.78-46.7,26.21-61.38,23.76-33.45,56.07-50.42,96.05-50.42h554.72C2532.65,1154.87,2516.2,1187.57,2486.81,1210.52Z"/><path class="cls-7" d="M1877,1161.06c-11.67,16.43-21,39.49-27.49,64.14l-135.88,471.88-88.68,64c-19.46,11.08-11.59,21.82,10.8,21.82h0c58.61,0,171.1-59,171.1-59v-30l196.21-439.22H2368c96.9,0,175.46-50.72,175.46-147.63H1980C1935.55,1107.07,1901.5,1126.57,1877,1161.06Z"/><path class="cls-2" d="M2543.43,1098.57H1980c-45.8,0-82.79,19.37-109.91,57.57-11.58,16.31-21.53,39.41-28.76,66.79l-135,469L1620.33,1754c-15.5,9-15.73,18.25-14.47,23,2.44,9.2,13.33,14.48,29.89,14.48,60,0,170.38-57.53,175-60a8.5,8.5,0,0,0,4.55-7.53v-28.21l193.22-432.54H2368c51.68,0,96.39-13.58,129.3-39.28,35.76-27.92,54.66-68.33,54.66-116.85a8.5,8.5,0,0,0-8.5-8.5ZM1625,1761.12h0Zm861.85-550.6c-29.46,23-71.66,35.67-118.84,35.67H2003.06a8.5,8.5,0,0,0-7.76,5l-196.21,439.22a8.5,8.5,0,0,0-.74,3.47v24.82c-21.44,10.83-113.23,55.7-162.6,55.7-6.42,0-10.32-1-12.32-1.83a27.57,27.57,0,0,1,5.73-4.11,8.37,8.37,0,0,0,.77-.49l88.68-64a8.5,8.5,0,0,0,3.19-4.54l135.88-471.88.05-.19c6.72-25.47,15.78-46.7,26.21-61.38,23.76-33.45,56.07-50.42,96.05-50.42h554.72C2532.65,1154.87,2516.2,1187.57,2486.81,1210.52Z"/><path class="cls-2" d="M2543.43,1098.57H1980a8.5,8.5,0,0,0,0,17h554.72c-2.06,39.3-18.51,72-47.9,95s-71.66,35.67-118.84,35.67H2003.06a8.5,8.5,0,0,0-7.76,5l-46.15,103.3a8.5,8.5,0,1,0,15.52,6.93l43.9-98.27H2368c51.68,0,96.39-13.58,129.3-39.28,35.76-27.92,54.66-68.33,54.66-116.85A8.5,8.5,0,0,0,2543.43,1098.57Z"/><path class="cls-3" d="M2254.25,486.66,2025.09,807.51c-36.11,50.56,0,120.78,62.16,120.78h0l363.94-509.55h-64.95A162.2,162.2,0,0,0,2254.25,486.66Z"/><path class="cls-2" d="M2451.19,410.24h-64.95a171,171,0,0,0-138.91,71.49L2018.17,802.57a84.88,84.88,0,0,0,69.08,134.22,8.5,8.5,0,0,0,6.92-3.56l363.94-509.55a8.5,8.5,0,0,0-6.92-13.44ZM2083,919.67c-24.12-1.43-44.87-14.92-56.08-36.7a66.77,66.77,0,0,1,5.12-70.52L2261.17,491.6a154,154,0,0,1,125.07-64.37h48.43Z"/><path class="cls-1" d="M2502.78,8.5h0a174.94,174.94,0,0,0-174.94,174.94V457.22h349.88V183.44A174.94,174.94,0,0,0,2502.78,8.5Z"/><path class="cls-2" d="M2502.78,0c-101.15,0-183.44,82.29-183.44,183.44V457.21a8.5,8.5,0,0,0,8.5,8.5h349.88a8.5,8.5,0,0,0,8.5-8.5V183.44C2686.21,82.29,2603.92,0,2502.78,0Zm166.44,448.71H2336.34V183.44C2336.34,91.66,2411,17,2502.78,17s166.44,74.66,166.44,166.44Z"/><path class="cls-3" d="M2617.48,418.74H2386.55c-28.43,0-70,7.87-93.92,29.47l9.18,79v579.86h400.4V503.47A84.74,84.74,0,0,0,2617.48,418.74Z"/><path class="cls-2" d="M2617.48,410.24H2386.55c-29.79,0-73.76,8.29-99.62,31.67a8.5,8.5,0,1,0,11.4,12.61c20.85-18.84,59.33-27.28,88.22-27.28h230.93a76.32,76.32,0,0,1,76.24,76.24v595.09h-383.4V527.21a8.5,8.5,0,0,0-17,0v579.86a8.5,8.5,0,0,0,8.5,8.5h400.4a8.5,8.5,0,0,0,8.5-8.5V503.47A93.34,93.34,0,0,0,2617.48,410.24Z"/><rect class="cls-7" x="2451.19" y="328.28" width="103.97" height="90.46"/><path class="cls-2" d="M2555.16,319.78h-104a8.5,8.5,0,0,0-8.5,8.5v90.46a8.5,8.5,0,0,0,8.5,8.5h104a8.5,8.5,0,0,0,8.5-8.5V328.28A8.5,8.5,0,0,0,2555.16,319.78Zm-8.5,90.46h-87V336.78h87Z"/><path class="cls-3" d="M2750.73,486.66a162.2,162.2,0,0,0-132-67.93h-64.95l94.77,132.68,269.18,376.87h0c62.13,0,98.27-70.22,62.16-120.78Z"/><path class="cls-2" d="M2757.65,481.72a171,171,0,0,0-138.91-71.49h-64.95a8.5,8.5,0,0,0,0,17h64.95a154,154,0,0,1,125.07,64.37L2973,812.45a67.89,67.89,0,0,1-51,107.21L2655.48,546.48a8.5,8.5,0,0,0-13.83,9.88l269.18,376.87a8.5,8.5,0,0,0,6.92,3.56,84.89,84.89,0,0,0,69.08-134.22Z"/><rect class="cls-1" x="2301.82" y="797.23" width="400.4" height="309.84"/><path class="cls-2" d="M2702.22,788.73a8.5,8.5,0,0,0-8.5,8.5v301.34h-383.4V797.23a8.5,8.5,0,0,0-17,0v309.84a8.5,8.5,0,0,0,8.5,8.5h400.4a8.5,8.5,0,0,0,8.5-8.5V797.23A8.5,8.5,0,0,0,2702.22,788.73Z"/><path class="cls-7" d="M2275.06,836h-32.81v93H2368.1A93,93,0,0,0,2275.06,836Z"/><path class="cls-2" d="M2275.06,827.5h-32.81a8.5,8.5,0,0,0-8.5,8.5v93a8.5,8.5,0,0,0,8.5,8.5H2368.1a8.5,8.5,0,0,0,8.5-8.5A101.66,101.66,0,0,0,2275.06,827.5Zm-24.31,93v-76h24.31a84.66,84.66,0,0,1,84.12,76Z"/><polygon class="cls-3" points="2051 928.29 2242.25 928.29 2242.25 807.61 2149.26 808.18 2051 928.29"/><path class="cls-2" d="M2242.25,799.11h-.05l-93,.57a8.5,8.5,0,0,0,.05,17h.05l84.44-.52V919.79H2051a8.5,8.5,0,0,0,0,17h191.25a8.5,8.5,0,0,0,8.5-8.5V807.61a8.5,8.5,0,0,0-8.5-8.5Z"/><rect class="cls-3" x="2176.27" y="1256.45" width="563.89" height="101.98" rx="35.98" ry="35.98"/><path class="cls-2" d="M2704.18,1248H2212.26a44.53,44.53,0,0,0-44.48,44.48v30a44.53,44.53,0,0,0,44.48,44.48h491.92a44.53,44.53,0,0,0,44.48-44.48v-30A44.53,44.53,0,0,0,2704.18,1248Zm27.48,74.5a27.51,27.51,0,0,1-27.48,27.48H2212.26a27.51,27.51,0,0,1-27.48-27.48v-30a27.51,27.51,0,0,1,27.48-27.48h491.92a27.51,27.51,0,0,1,27.48,27.48Z"/><rect class="cls-3" x="2401.61" y="1358.36" width="113.21" height="94.86"/><path class="cls-2" d="M2514.82,1349.86H2401.61a8.5,8.5,0,0,0-8.5,8.5v94.86a8.5,8.5,0,0,0,8.5,8.5h113.21a8.5,8.5,0,0,0,8.5-8.5v-94.86A8.5,8.5,0,0,0,2514.82,1349.86Zm-8.5,94.86h-96.21v-77.86h96.21Z"/><rect class="cls-3" x="2416.29" y="1453.22" width="83.86" height="275.9"/><path class="cls-2" d="M2500.15,1444.72h-83.87a8.5,8.5,0,0,0-8.5,8.5v275.9a8.5,8.5,0,0,0,8.5,8.5h83.87a8.5,8.5,0,0,0,8.5-8.5v-275.9A8.5,8.5,0,0,0,2500.15,1444.72Zm-8.5,275.9h-66.87v-258.9h66.87Z"/><circle class="cls-3" cx="2674.72" cy="1803.55" r="39.87"/><path class="cls-2" d="M2674.73,1755.18a48.37,48.37,0,1,0,48.37,48.37A48.43,48.43,0,0,0,2674.73,1755.18Zm0,79.75a31.37,31.37,0,1,1,31.37-31.37A31.41,31.41,0,0,1,2674.73,1834.93Z"/><circle class="cls-3" cx="2241.71" cy="1803.55" r="39.87"/><path class="cls-2" d="M2241.71,1755.18a48.37,48.37,0,1,0,48.37,48.37A48.43,48.43,0,0,0,2241.71,1755.18Zm0,79.75a31.37,31.37,0,1,1,31.37-31.37A31.41,31.41,0,0,1,2241.71,1834.93Z"/><circle class="cls-3" cx="2458.22" cy="1803.55" r="39.87"/><path class="cls-2" d="M2458.22,1755.18a48.37,48.37,0,1,0,48.37,48.37A48.43,48.43,0,0,0,2458.22,1755.18Zm0,79.75a31.37,31.37,0,1,1,31.37-31.37A31.41,31.41,0,0,1,2458.22,1834.93Z"/><path class="cls-3" d="M2672,1711.95H2244.45a45,45,0,0,0-45,45H2717A45,45,0,0,0,2672,1711.95Z"/><path class="cls-2" d="M2672,1703.45H2244.45a53.55,53.55,0,0,0-53.49,53.49,8.5,8.5,0,0,0,8.5,8.5H2717a8.5,8.5,0,0,0,8.5-8.5A53.55,53.55,0,0,0,2672,1703.45Zm-463,45a36.55,36.55,0,0,1,35.49-28H2672a36.56,36.56,0,0,1,35.49,28Z"/><path d="M2468.42,191.4a8.5,8.5,0,0,0-16.16-5.29L2424.48,271c-3.14,9.59-1.58,20.72,4,28.37,4.09,5.65,10.05,8.89,16.34,8.89h15.56a8.5,8.5,0,0,0,0-17h-15.56c-1.11,0-2.17-1.31-2.58-1.87-1.94-2.68-3.26-7.93-1.57-13.11Z"/><path class="cls-6" d="M2035.79,1161.06c-11.67,16.43-21,39.49-27.49,64.14l-135.88,471.88L1722.58,1803c-19.46,11.08-24.63,44.16-2.24,44.16,95.19,0,102.53-11.4,148.12-26.07a573.17,573.17,0,0,0,58.07-22.25l8.28,48.32h30.81v-92.43h0v-60.83l196.21-439.22h364.91c96.9,0,175.46-50.72,175.46-147.63H2138.77C2094.33,1107.07,2060.29,1126.57,2035.79,1161.06Z"/><path d="M2702.22,1098.57H2138.77c-45.8,0-82.79,19.37-109.91,57.57-11.58,16.31-21.53,39.41-28.76,66.8l-135,468.92-147.08,104c-14.77,8.66-23.87,28.4-19.91,43.35,2.73,10.32,11.06,16.48,22.27,16.48,77.82,0,98.64-7.68,127.45-18.31,7.08-2.61,14.39-5.31,23.27-8.17,16.49-5.31,32.91-11.42,48.93-18.22l6.45,37.63a8.5,8.5,0,0,0,8.38,7.06h30.81a8.5,8.5,0,0,0,8.5-8.5V1695.73l193.22-432.54h359.4c51.68,0,96.39-13.58,129.3-39.28,35.76-27.92,54.66-68.33,54.66-116.85a8.5,8.5,0,0,0-8.5-8.5ZM1722.59,1803h0Zm923-592.49c-29.46,23-71.66,35.67-118.84,35.67H2161.85a8.5,8.5,0,0,0-7.76,5l-196.21,439.22a8.5,8.5,0,0,0-.74,3.47v144.75H1942l-7.07-41.26a8.5,8.5,0,0,0-11.85-6.32,563.82,563.82,0,0,1-57.21,21.92c-9.22,3-17,5.85-23.95,8.4-28.17,10.39-46.78,17.26-121.57,17.26-4.45,0-5.34-2-5.83-3.83-1.86-7,3.1-19.22,12.28-24.45q.36-.21.7-.45L1877.32,1704a8.49,8.49,0,0,0,3.26-4.59l135.88-471.88.05-.18c6.72-25.48,15.78-46.7,26.21-61.38,23.76-33.45,56.07-50.42,96.05-50.42H2693.5C2691.44,1154.87,2675,1187.57,2645.6,1210.52Z"/><path class="cls-5" d="M2035.79,1161.06c-11.67,16.43-21,39.49-27.49,64.14l-135.88,471.88-88.68,64c-19.46,11.08-11.59,21.82,10.8,21.82h0c58.61,0,171.1-59,171.1-59v-30l196.21-439.22h364.91c96.9,0,175.46-50.72,175.46-147.63H2138.77C2094.33,1107.07,2060.29,1126.57,2035.79,1161.06Z"/><path d="M2702.22,1098.57H2138.77c-45.8,0-82.79,19.37-109.91,57.57-11.58,16.31-21.53,39.41-28.76,66.8l-135,469L1779.11,1754c-15.5,9-15.73,18.25-14.47,23,2.44,9.2,13.33,14.48,29.89,14.48,60,0,170.38-57.53,175-60a8.5,8.5,0,0,0,4.55-7.53v-28.21l193.23-432.54h359.4c51.68,0,96.39-13.58,129.3-39.28,35.76-27.92,54.66-68.33,54.66-116.85a8.5,8.5,0,0,0-8.5-8.5Zm-918.47,662.55h0Zm861.85-550.6c-29.46,23-71.66,35.67-118.84,35.67H2161.85a8.5,8.5,0,0,0-7.76,5l-196.21,439.22a8.5,8.5,0,0,0-.74,3.47v24.82c-21.45,10.83-113.26,55.7-162.6,55.7-6.42,0-10.32-1-12.32-1.83a27.57,27.57,0,0,1,5.73-4.11,8.57,8.57,0,0,0,.77-.49l88.68-64a8.5,8.5,0,0,0,3.19-4.54l135.88-471.88.05-.18c6.72-25.48,15.78-46.7,26.21-61.38,23.76-33.45,56.07-50.42,96.05-50.42H2693.5C2691.44,1154.87,2675,1187.57,2645.6,1210.52Z"/><path class="cls-2" d="M2035.79,1161.06c-11.67,16.43-21,39.49-27.49,64.14l-135.88,471.88L1722.58,1803c-19.46,11.08-24.63,44.16-2.24,44.16,95.19,0,102.53-11.4,148.12-26.07a573.17,573.17,0,0,0,58.07-22.25l8.28,48.32h30.81v-92.43h0v-60.83l196.21-439.22h364.91c96.9,0,175.46-50.72,175.46-147.63H2138.77C2094.33,1107.07,2060.29,1126.57,2035.79,1161.06Z"/><path class="cls-2" d="M2702.22,1098.57H2138.77c-45.8,0-82.79,19.37-109.91,57.57-11.58,16.31-21.53,39.41-28.76,66.8l-135,468.92-147.08,104c-14.77,8.66-23.87,28.4-19.91,43.35,2.73,10.32,11.06,16.48,22.27,16.48,77.82,0,98.64-7.68,127.45-18.31,7.08-2.61,14.39-5.31,23.27-8.17,16.49-5.31,32.91-11.42,48.93-18.22l6.45,37.63a8.5,8.5,0,0,0,8.38,7.06h30.81a8.5,8.5,0,0,0,8.5-8.5V1695.73l193.22-432.54h359.4c51.68,0,96.39-13.58,129.3-39.28,35.76-27.92,54.66-68.33,54.66-116.85a8.5,8.5,0,0,0-8.5-8.5ZM1722.59,1803h0Zm923-592.49c-29.46,23-71.66,35.67-118.84,35.67H2161.85a8.5,8.5,0,0,0-7.76,5l-196.21,439.22a8.5,8.5,0,0,0-.74,3.47v144.75H1942l-7.07-41.26a8.5,8.5,0,0,0-11.85-6.32,563.82,563.82,0,0,1-57.21,21.92c-9.22,3-17,5.85-23.95,8.4-28.17,10.39-46.78,17.26-121.57,17.26-4.45,0-5.34-2-5.83-3.83-1.86-7,3.1-19.22,12.28-24.45q.36-.21.7-.45L1877.32,1704a8.49,8.49,0,0,0,3.26-4.59l135.88-471.88.05-.18c6.72-25.48,15.78-46.7,26.21-61.38,23.76-33.45,56.07-50.42,96.05-50.42H2693.5C2691.44,1154.87,2675,1187.57,2645.6,1210.52Z"/><path class="cls-7" d="M2035.79,1161.06c-11.67,16.43-21,39.49-27.49,64.14l-135.88,471.88-88.68,64c-19.46,11.08-11.59,21.82,10.8,21.82h0c58.61,0,171.1-59,171.1-59v-30l196.21-439.22h364.91c96.9,0,175.46-50.72,175.46-147.63H2138.77C2094.33,1107.07,2060.29,1126.57,2035.79,1161.06Z"/><path class="cls-2" d="M2702.22,1098.57H2138.77c-45.8,0-82.79,19.37-109.91,57.57-11.58,16.31-21.53,39.41-28.76,66.8l-135,469L1779.11,1754c-15.5,9-15.73,18.25-14.47,23,2.44,9.2,13.33,14.48,29.89,14.48,60,0,170.38-57.53,175-60a8.5,8.5,0,0,0,4.55-7.53v-28.21l193.23-432.54h359.4c51.68,0,96.39-13.58,129.3-39.28,35.76-27.92,54.66-68.33,54.66-116.85a8.5,8.5,0,0,0-8.5-8.5Zm-918.47,662.55h0Zm861.85-550.6c-29.46,23-71.66,35.67-118.84,35.67H2161.85a8.5,8.5,0,0,0-7.76,5l-196.21,439.22a8.5,8.5,0,0,0-.74,3.47v24.82c-21.45,10.83-113.26,55.7-162.6,55.7-6.42,0-10.32-1-12.32-1.83a27.57,27.57,0,0,1,5.73-4.11,8.57,8.57,0,0,0,.77-.49l88.68-64a8.5,8.5,0,0,0,3.19-4.54l135.88-471.88.05-.18c6.72-25.48,15.78-46.7,26.21-61.38,23.76-33.45,56.07-50.42,96.05-50.42H2693.5C2691.44,1154.87,2675,1187.57,2645.6,1210.52Z"/><rect class="cls-3" x="1534.39" y="328.22" width="647.87" height="437.91" rx="51.72" ry="51.72"/><path class="cls-2" d="M2130.54,319.72H1586.11a60.29,60.29,0,0,0-60.22,60.22V714.42a60.29,60.29,0,0,0,60.22,60.22h544.43a60.29,60.29,0,0,0,60.22-60.22V379.95A60.29,60.29,0,0,0,2130.54,319.72Zm43.22,394.69a43.27,43.27,0,0,1-43.22,43.22H1586.11a43.27,43.27,0,0,1-43.22-43.22V379.95a43.27,43.27,0,0,1,43.22-43.22h544.43a43.27,43.27,0,0,1,43.22,43.22Z"/><rect class="cls-3" x="1494.69" y="328.22" width="647.87" height="437.91" rx="51.72" ry="51.72"/><path class="cls-2" d="M2090.84,319.72H1546.42a60.29,60.29,0,0,0-60.22,60.22V714.42a60.29,60.29,0,0,0,60.22,60.22h544.43a60.29,60.29,0,0,0,60.22-60.22V379.95A60.29,60.29,0,0,0,2090.84,319.72Zm43.22,394.69a43.27,43.27,0,0,1-43.22,43.22H1546.42a43.27,43.27,0,0,1-43.22-43.22V379.95a43.27,43.27,0,0,1,43.22-43.22h544.43a43.27,43.27,0,0,1,43.22,43.22Z"/><path class="cls-3" d="M2004.29,876.57H1712.36a51.72,51.72,0,0,0-51.72,51.72H2056A51.72,51.72,0,0,0,2004.29,876.57Z"/><path class="cls-2" d="M2004.29,868.07H1712.36a60.29,60.29,0,0,0-60.22,60.22,8.5,8.5,0,0,0,8.5,8.5H2056a8.5,8.5,0,0,0,8.5-8.5A60.29,60.29,0,0,0,2004.29,868.07ZM1670,919.79a43.3,43.3,0,0,1,42.38-34.72h291.93a43.3,43.3,0,0,1,42.38,34.72Z"/><rect class="cls-3" x="1753.72" y="766.14" width="209.21" height="110.43"/><path class="cls-2" d="M1962.93,757.64H1753.72a8.5,8.5,0,0,0-8.5,8.5V876.57a8.5,8.5,0,0,0,8.5,8.5h209.21a8.5,8.5,0,0,0,8.5-8.5V766.14A8.5,8.5,0,0,0,1962.93,757.64Zm-8.5,110.43H1762.22V774.64h192.21Z"/><path d="M2500.2,196h-9a8.5,8.5,0,0,0,0,17h9a8.5,8.5,0,0,0,0-17Z"/><path d="M2421.21,196h-9a8.5,8.5,0,0,0,0,17h9a8.5,8.5,0,0,0,0-17Z"/><path d="M2483.26,338.31h-42.34a8.5,8.5,0,0,0,0,17h42.34a8.5,8.5,0,0,0,0-17Z"/><path class="cls-7" d="M2387.48,263.29a111,111,0,0,0,111,111h0a111,111,0,0,0,111-111V191.74l-222-31.95Z"/><path class="cls-2" d="M2609.44,183.24a8.5,8.5,0,0,0-8.5,8.5v71.55a102.48,102.48,0,1,1-205,0V159.79a8.5,8.5,0,1,0-17,0v103.5a119.48,119.48,0,1,0,239,0V191.74A8.5,8.5,0,0,0,2609.44,183.24Z"/><polygon class="cls-7" points="2494.13 143.2 2477.54 117.13 2454.83 135.43 2387.48 159.79 2609.44 191.74 2548.63 178.75 2494.13 143.2"/><path class="cls-1" d="M2539.89,876.57H2248a51.72,51.72,0,0,0-51.72,51.72h395.38A51.72,51.72,0,0,0,2539.89,876.57Z"/><path class="cls-2" d="M2539.89,868.07H2248a60.29,60.29,0,0,0-60.22,60.22,8.5,8.5,0,0,0,8.5,8.5h395.38a8.5,8.5,0,0,0,8.5-8.5A60.29,60.29,0,0,0,2539.89,868.07Zm-334.32,51.72A43.3,43.3,0,0,1,2248,885.07h291.93a43.3,43.3,0,0,1,42.38,34.72Z"/><path class="cls-7" d="M2535.94,929h125.85V836H2629A93,93,0,0,0,2535.94,929Z"/><path class="cls-2" d="M2661.79,827.5H2629A101.66,101.66,0,0,0,2527.44,929a8.5,8.5,0,0,0,8.5,8.5h125.85a8.5,8.5,0,0,0,8.5-8.5V836A8.5,8.5,0,0,0,2661.79,827.5Zm-8.5,93H2544.86a84.66,84.66,0,0,1,84.12-76h24.31Z"/><polygon class="cls-3" points="2648.17 807.61 2648.17 928.29 2935.81 928.29 2855.72 808.18 2648.17 807.61"/><path class="cls-2" d="M2935.81,919.79H2656.67V816.14l199,.55h0a8.5,8.5,0,0,0,0-17l-207.55-.57h0a8.5,8.5,0,0,0-8.5,8.5V928.29a8.5,8.5,0,0,0,8.5,8.5h287.64a8.5,8.5,0,0,0,0-17Z"/><path class="cls-1" d="M2604.89,191.74h0a138.37,138.37,0,0,0,19.09-1.35L2476.26,102.3A137.23,137.23,0,0,0,2604.89,191.74Z"/><path class="cls-2" d="M2622.81,182a130.49,130.49,0,0,1-17.91,1.27,127.8,127.8,0,0,1-74.25-23.57,128.46,128.46,0,0,1-46.42-60.32,8.5,8.5,0,1,0-15.94,5.92,145.39,145.39,0,0,0,52.53,68.28,144.72,144.72,0,0,0,84.07,26.7,147.55,147.55,0,0,0,20.25-1.43,8.5,8.5,0,1,0-2.34-16.84Z"/><path class="cls-1" d="M2490,72.45,2378,159.3A115.65,115.65,0,0,0,2490,72.45Z"/><path class="cls-2" d="M2492.11,64.22a8.5,8.5,0,0,0-10.34,6.13,106.86,106.86,0,0,1-103.57,80.46H2378a8.5,8.5,0,0,0,0,17h.2a123.86,123.86,0,0,0,120-93.24A8.5,8.5,0,0,0,2492.11,64.22Z"/><path class="cls-1" d="M2160,1258.9l1.88-4.2h364.91c96.9,0,175.46-50.72,175.46-147.63H2160Z"/><path class="cls-2" d="M2702.22,1098.57H2160a8.5,8.5,0,0,0-8.5,8.5V1258.9a8.5,8.5,0,0,0,15.83,4.3h359.46c51.68,0,96.39-13.58,129.3-39.28,35.76-27.92,54.66-68.33,54.66-116.85A8.5,8.5,0,0,0,2702.22,1098.57Zm-56.62,112c-29.46,23-71.66,35.67-118.84,35.67H2168.47V1115.57h525C2691.44,1154.87,2675,1187.57,2645.6,1210.52Z"/><path class="cls-7" d="M2601.77,223h-7.32v47.73h7.32a23.87,23.87,0,0,0,23.86-23.86h0A23.87,23.87,0,0,0,2601.77,223Z"/><path class="cls-2" d="M2601.77,214.49h-7.32a8.5,8.5,0,0,0,0,17h7.32a15.36,15.36,0,1,1,0,30.73h-7.32a8.5,8.5,0,0,0,0,17h7.32a32.36,32.36,0,1,0,0-64.73Z"/><path class="cls-2" d="M2479.23,209.54a8.5,8.5,0,0,0-16.16-5.29l-18.7,57.11a24.4,24.4,0,0,0,3.06,21.59,16.41,16.41,0,0,0,13.25,7.13h10.47a8.5,8.5,0,0,0,0-17h-9.89a7.6,7.6,0,0,1-.73-6.43Zm-17.75,63.75h0Z"/><path class="cls-2" d="M2515.76,196h-9a8.5,8.5,0,0,0,0,17h9a8.5,8.5,0,0,0,0-17Z"/><path class="cls-2" d="M2436.77,196h-9a8.5,8.5,0,0,0,0,17h9a8.5,8.5,0,0,0,0-17Z"/><path class="cls-2" d="M2505.79,308.57a43.93,43.93,0,0,1-20.4,4.68,46.79,46.79,0,0,1-15.91-2.68,8.5,8.5,0,1,0-5.85,16,63.94,63.94,0,0,0,21.75,3.72,60.32,60.32,0,0,0,28.44-6.7,8.5,8.5,0,0,0-8-15Z"/><rect class="cls-3" x="581.61" y="1339.23" width="55.97" height="401.36"/><path class="cls-2" d="M637.58,1330.73h-56a8.5,8.5,0,0,0-8.5,8.5v401.36a8.5,8.5,0,0,0,8.5,8.5h56a8.5,8.5,0,0,0,8.5-8.5V1339.23A8.5,8.5,0,0,0,637.58,1330.73Zm-8.5,401.36h-39V1347.73h39Z"/><rect class="cls-3" x="327.65" y="1286.84" width="563.89" height="101.98" rx="35.98" ry="35.98"/><path class="cls-2" d="M855.56,1278.34H363.64a44.53,44.53,0,0,0-44.48,44.48v30a44.53,44.53,0,0,0,44.48,44.48H855.56A44.53,44.53,0,0,0,900,1352.84v-30A44.53,44.53,0,0,0,855.56,1278.34Zm27.48,74.5a27.51,27.51,0,0,1-27.48,27.48H363.64a27.51,27.51,0,0,1-27.48-27.48v-30a27.51,27.51,0,0,1,27.48-27.48H855.56A27.51,27.51,0,0,1,883,1322.83Z"/><circle class="cls-9" cx="826.1" cy="1807.3" r="39.87"/><path d="M826.1,1758.92a48.37,48.37,0,1,0,48.37,48.38A48.43,48.43,0,0,0,826.1,1758.92Zm0,79.75a31.37,31.37,0,1,1,31.37-31.37A31.41,31.41,0,0,1,826.1,1838.67Z"/><circle class="cls-3" cx="393.09" cy="1807.3" r="39.87"/><path class="cls-2" d="M393.09,1758.92a48.37,48.37,0,1,0,48.37,48.38A48.43,48.43,0,0,0,393.09,1758.92Zm0,79.75a31.37,31.37,0,1,1,31.37-31.37A31.41,31.41,0,0,1,393.09,1838.67Z"/><path class="cls-3" d="M823.37,1715.69H395.82a45,45,0,0,0-45,45H868.36A45,45,0,0,0,823.37,1715.69Z"/><path class="cls-2" d="M823.37,1707.19H395.83a53.55,53.55,0,0,0-53.49,53.49,8.5,8.5,0,0,0,8.5,8.5H868.36a8.5,8.5,0,0,0,8.5-8.5A53.55,53.55,0,0,0,823.37,1707.19Zm-463,45a36.55,36.55,0,0,1,35.49-28H823.37a36.55,36.55,0,0,1,35.49,28Z"/><path class="cls-3" d="M1345.11,1806.39l-201.55-72.1H1004.09v112.88h330.22C1356.71,1847.17,1364.57,1817.47,1345.11,1806.39Z"/><path class="cls-2" d="M1349.32,1799a8.41,8.41,0,0,0-1.34-.62l-201.55-72.1a8.49,8.49,0,0,0-2.86-.5H1004.09a8.5,8.5,0,0,0-8.5,8.5v112.88a8.5,8.5,0,0,0,8.5,8.5h330.22a30.32,30.32,0,0,0,15-56.67Zm-2.13,29.76a12.88,12.88,0,0,1-12.88,9.91H1012.59v-95.88h129.49l199.39,71.33A12.86,12.86,0,0,1,1347.19,1828.76Z"/><path class="cls-1" d="M1121.2,1164.44c-24.5-34.49-58.54-54-103-54H764.77L879.65,1285.9h115.5l8.94,448.38h139.47l4.86-478.26a161.13,161.13,0,0,0-18.91-78.1A128.89,128.89,0,0,0,1121.2,1164.44Z"/><path class="cls-2" d="M1128.13,1159.52c-27.13-38.2-64.11-57.57-109.91-57.57H764.77a8.5,8.5,0,0,0,0,17h253.45c40,0,72.3,17,96.05,50.41A120.89,120.89,0,0,1,1122,1182a153,153,0,0,1,17.9,74l-4.77,469.85H1012.43l-8.78-440.05a8.5,8.5,0,0,0-8.5-8.33H879.65a8.5,8.5,0,0,0,0,17H986.82l8.78,440.05a8.5,8.5,0,0,0,8.5,8.33h139.47a8.5,8.5,0,0,0,8.5-8.41l4.86-478.26A170,170,0,0,0,1137,1173.9,138,138,0,0,0,1128.13,1159.52Z"/><polygon class="cls-3" points="764.77 1110.45 879.65 1285.9 995.15 1285.9 956.15 1110.45 764.77 1110.45"/><path d="M995.15,1277.41H884.24L780.5,1118.95H956.15a8.5,8.5,0,0,0,0-17H764.77a8.5,8.5,0,0,0-7.11,13.16l114.87,175.46a8.5,8.5,0,0,0,7.11,3.84h115.5a8.5,8.5,0,1,0,0-17Z"/><path class="cls-3" d="M1124.66,1806.39l-201.55-72.1H783.64v112.88h330.22C1136.25,1847.17,1144.12,1817.47,1124.66,1806.39Z"/><path class="cls-2" d="M1128.86,1799a8.41,8.41,0,0,0-1.34-.62L926,1726.28a8.49,8.49,0,0,0-2.86-.5H783.64a8.5,8.5,0,0,0-8.5,8.5v112.88a8.5,8.5,0,0,0,8.5,8.5h330.22a30.32,30.32,0,0,0,15-56.67Zm-2.13,29.76a12.88,12.88,0,0,1-12.88,9.91H792.14v-95.88H921.63L1121,1814.12A12.86,12.86,0,0,1,1126.73,1828.76Z"/><path class="cls-1" d="M900.75,1164.44c-24.5-34.49-58.54-54-103-54H475.1A175.46,175.46,0,0,0,650.56,1285.9H774.69l8.94,448.38H923.1L928,1256a161.13,161.13,0,0,0-18.91-78.1A128.91,128.91,0,0,0,900.75,1164.44Z"/><path class="cls-2" d="M907.68,1159.52c-27.13-38.2-64.11-57.57-109.91-57.57H475.1a8.5,8.5,0,0,0-8.5,8.5c0,101.43,82.52,184,184,184h115.8l8.78,440.05a8.5,8.5,0,0,0,8.5,8.33H923.1a8.5,8.5,0,0,0,8.5-8.41l4.86-478.26a170,170,0,0,0-19.93-82.21A138,138,0,0,0,907.68,1159.52ZM928,1256h0Zm-13.28,469.76H792l-8.78-440.05a8.5,8.5,0,0,0-8.5-8.33H650.56c-89.21,0-162.3-70.33-166.74-158.46H797.76c40,0,72.3,17,96.05,50.41a120.89,120.89,0,0,1,7.75,12.6,153,153,0,0,1,17.9,74Z"/><rect class="cls-3" x="117.63" y="928.29" width="4428.79" height="80.98"/><path class="cls-2" d="M4546.42,919.79H117.63a8.5,8.5,0,0,0-8.5,8.5v81a8.5,8.5,0,0,0,8.5,8.5H4546.42a8.5,8.5,0,0,0,8.5-8.5v-81A8.5,8.5,0,0,0,4546.42,919.79Zm-8.5,81H126.13v-64H4537.92Z"/><path class="cls-3" d="M555.31,418.77c-70.38,1.42-127.85,56.87-133.4,127l-12,320.33a59.91,59.91,0,0,0,59.87,62.15h55l13-370.87,85.77-138.68H558.58Q556.94,418.74,555.31,418.77Z"/><path class="cls-2" d="M623.53,410.24H558.58q-1.72,0-3.44,0a143.87,143.87,0,0,0-96.71,40.09,147,147,0,0,0-45,94.78q0,.18,0,.35l-12,320.32a68.41,68.41,0,0,0,68.37,71h55a8.5,8.5,0,0,0,8.49-8.2l13-370.87a8.5,8.5,0,1,0-17-.6L516.56,919.79H469.81a51.41,51.41,0,0,1-51.38-53.34l12-320.14a130,130,0,0,1,39.78-83.66,126.91,126.91,0,0,1,85.31-35.38q1.55,0,3.1,0h64.95a8.5,8.5,0,0,0,0-17Z"/><path class="cls-5" d="M809.22,929H935.07V836H902.26A93,93,0,0,0,809.22,929Z"/><path d="M935.07,827.5H902.26A101.66,101.66,0,0,0,800.72,929a8.5,8.5,0,0,0,8.5,8.5H935.07a8.5,8.5,0,0,0,8.5-8.5V836A8.5,8.5,0,0,0,935.07,827.5Zm-8.5,93H818.14a84.66,84.66,0,0,1,84.12-76h24.31Z"/><polygon class="cls-6" points="935.07 807.61 935.07 928.29 1126.31 928.29 1028.06 808.18 935.07 807.61"/><path d="M1126.31,919.79H943.57V816.17l84.44.52h.05a8.5,8.5,0,0,0,.05-17l-93-.57a8.5,8.5,0,0,0-8.55,8.5V928.29a8.5,8.5,0,0,0,8.5,8.5h191.25a8.5,8.5,0,0,0,0-17Z"/><path class="cls-7" d="M677.49,836H644.68v93H770.53A93,93,0,0,0,677.49,836Z"/><path class="cls-2" d="M677.49,827.5H644.68a8.5,8.5,0,0,0-8.5,8.5v93a8.5,8.5,0,0,0,8.5,8.5H770.53A8.5,8.5,0,0,0,779,929,101.66,101.66,0,0,0,677.49,827.5Zm-24.31,93v-76h24.31a84.66,84.66,0,0,1,84.12,76Z"/><polygon class="cls-3" points="489.61 928.29 658.3 928.29 658.3 807.61 491.11 808.18 489.61 928.29"/><path class="cls-2" d="M658.3,799.11h0l-167.19.57a8.5,8.5,0,0,0,0,17h0l158.66-.54V919.79H489.61a8.5,8.5,0,0,0,0,17H658.3a8.5,8.5,0,0,0,8.5-8.5V807.61a8.5,8.5,0,0,0-8.5-8.5Z"/><path class="cls-7" d="M665.77,24.48h0A124.75,124.75,0,0,0,541,149.24V335.37A180.61,180.61,0,0,0,721.63,516h0a68.89,68.89,0,0,0,68.89-68.89V149.24A124.75,124.75,0,0,0,665.77,24.48Z"/><path class="cls-2" d="M665.77,16c-73.48,0-133.25,59.78-133.25,133.25V335.37c0,104.28,84.84,189.11,189.12,189.11A77.48,77.48,0,0,0,799,447.1V149.24C799,75.76,739.25,16,665.77,16ZM782,447.1a60.46,60.46,0,0,1-60.39,60.39h0c-94.9,0-172.11-77.21-172.11-172.11V149.24a116.25,116.25,0,0,1,232.51,0Z"/><path class="cls-2" d="M733.31,203.58a8.5,8.5,0,0,0-8.5,8.5v86.75a13.57,13.57,0,0,1-13.56,13.56H698.6a8.5,8.5,0,0,0,0,17h12.65a30.59,30.59,0,0,0,30.56-30.56V212.08A8.5,8.5,0,0,0,733.31,203.58Z"/><path class="cls-3" d="M729.31,356.53H701.5C571,356.53,541,283.5,541,194.87v140.5A180.62,180.62,0,0,0,721.63,516a68.89,68.89,0,0,0,68.89-68.89v-153C790.52,327.95,763.12,356.53,729.31,356.53Z"/><path class="cls-2" d="M790.52,285.64a8.5,8.5,0,0,0-8.5,8.5v153a60.46,60.46,0,0,1-60.39,60.39c-94.9,0-172.11-77.21-172.11-172.11V194.87a8.5,8.5,0,1,0-17,0v140.5c0,104.28,84.84,189.11,189.11,189.11A77.48,77.48,0,0,0,799,447.1v-153A8.5,8.5,0,0,0,790.52,285.64Z"/><path class="cls-7" d="M554,239.75a31.19,31.19,0,0,0-31.19,31.19h0A31.19,31.19,0,0,0,554,302.13h15.2l-5.63-62.37Z"/><path class="cls-2" d="M569.16,293.62H554a22.69,22.69,0,0,1,0-45.37h9.57a8.5,8.5,0,0,0,0-17H554a39.69,39.69,0,0,0,0,79.37h15.2a8.5,8.5,0,0,0,0-17Z"/><path class="cls-2" d="M837.42,203.58H544.77a8.5,8.5,0,0,0,0,17H837.42a8.5,8.5,0,0,0,0-17Z"/><path class="cls-1" d="M609.49,237.4a46,46,0,0,0,46,46h0a46,46,0,0,0,46-46V212.08H609.49Z"/><path class="cls-2" d="M701.41,203.58H609.49a8.5,8.5,0,0,0-8.5,8.5V237.4a54.46,54.46,0,1,0,108.92,0V212.08A8.5,8.5,0,0,0,701.41,203.58Zm-8.5,33.83a37.46,37.46,0,1,1-74.92,0V220.58h74.92Z"/><path class="cls-1" d="M733.31,237.4a46,46,0,0,0,46,46h0a46,46,0,0,0,46-46V212.08H733.31Z"/><path class="cls-2" d="M825.23,203.58H733.31a8.5,8.5,0,0,0-8.5,8.5V237.4a54.46,54.46,0,0,0,108.92,0V212.08A8.5,8.5,0,0,0,825.23,203.58Zm-8.5,33.83a37.46,37.46,0,0,1-74.92,0V220.58h74.92Z"/><path class="cls-10" d="M802.3,227a8.5,8.5,0,0,0-8.5,8.5,16.92,16.92,0,0,1-16.9,16.9,8.5,8.5,0,0,0,0,17,33.94,33.94,0,0,0,33.9-33.9A8.5,8.5,0,0,0,802.3,227Z"/><path class="cls-10" d="M680.36,227a8.5,8.5,0,0,0-8.5,8.5,16.92,16.92,0,0,1-16.9,16.9,8.5,8.5,0,0,0,0,17,33.94,33.94,0,0,0,33.9-33.9A8.5,8.5,0,0,0,680.36,227Z"/><path class="cls-3" d="M665.77,24.48A124.75,124.75,0,0,0,541,149.24v8.44H790.52v-8.44A124.75,124.75,0,0,0,665.77,24.48Z"/><path class="cls-2" d="M665.77,16c-73.48,0-133.25,59.78-133.25,133.25v8.44a8.5,8.5,0,0,0,8.5,8.5H790.52a8.5,8.5,0,0,0,8.5-8.5v-8.44C799,75.76,739.25,16,665.77,16ZM549.52,149.18a116.25,116.25,0,0,1,232.51,0Z"/><path class="cls-3" d="M869.78,128.6H743.62L659.2,157.68H869.78a14.54,14.54,0,0,0,14.54-14.54h0A14.54,14.54,0,0,0,869.78,128.6Z"/><path class="cls-2" d="M869.78,120.1H743.62a8.5,8.5,0,0,0,0,17H869.78a6,6,0,0,1,0,12.08H659.2a8.5,8.5,0,0,0,0,17H869.78a23,23,0,0,0,0-46.08Z"/><path class="cls-2" d="M712.92,359.95a56.79,56.79,0,0,1-19.44,2.38c-9.13-.42-17.84-2.84-24.53-6.83a8.5,8.5,0,1,0-8.71,14.6c9.19,5.48,20.41,8.66,32.46,9.21q1.77.08,3.54.08A73,73,0,0,0,718,376.16a8.5,8.5,0,0,0-5.11-16.21Z"/><path class="cls-1" d="M1265.23,556.28H848.42c-27.39,0-59.81,21.57-60.14,49.6L772.88,890h-138a39,39,0,0,0-39,39h684.68l23.69-323.17C1310.1,578.48,1292.62,556.28,1265.23,556.28Z"/><path class="cls-2" d="M1265.23,547.78H848.42c-15.36,0-32.33,6-45.4,16-14.74,11.33-23,26.16-23.24,41.76L764.83,881.53H634.93A47.56,47.56,0,0,0,587.42,929a8.5,8.5,0,0,0,8.5,8.5h684.68a8.5,8.5,0,0,0,8.48-7.88l23.65-322.61c3.2-15.79-.06-30.68-9.21-42C1294.48,553.92,1280.88,547.78,1265.23,547.78ZM1296,604.11a8.46,8.46,0,0,0-.16,1.15l-23.11,315.29H605.62a30.57,30.57,0,0,1,29.31-22h138a8.5,8.5,0,0,0,8.49-8l15.39-284.16q0-.18,0-.36c.27-22.82,28.47-41.2,51.64-41.2h416.81c10.43,0,19.33,3.9,25.07,11C1296.27,583.14,1298.28,593.21,1296,604.11Z"/><path class="cls-3" d="M1302.43,556.28H885.62c-27.39,0-57.51,20.57-60.14,49.6L801.8,929h516l23.69-323.17C1343.28,577.51,1329.82,556.28,1302.43,556.28Z"/><path class="cls-2" d="M1302.43,547.78H885.62c-30.63,0-65.5,23-68.6,57.33v.14L793.32,928.42a8.5,8.5,0,0,0,8.48,9.12h516a8.5,8.5,0,0,0,8.48-7.88L1350,606.41c1.17-18.46-3.62-34.41-13.47-44.91C1328.07,552.52,1316.29,547.78,1302.43,547.78ZM1333,605.25,1309.9,920.54h-499l23-314c2.27-24.64,29-41.8,51.67-41.8h416.81c9.17,0,16.46,2.81,21.67,8.36C1330.71,580.17,1333.87,591.61,1333,605.25Z"/><path class="cls-11" d="M1662.61,521.32c-.21,48.66,48,61.35,48,61.35s48.29-12.27,48.5-60.93-47.74-115.3-47.74-115.3S1662.82,472.66,1662.61,521.32Z"/><path class="cls-2" d="M1711.38,397.94a8.47,8.47,0,0,0-6.89,3.48c-2,2.79-50.16,69-50.38,119.87-.1,22.65,9.32,41.91,27.22,55.7a84.19,84.19,0,0,0,27.09,13.91,8.5,8.5,0,0,0,4.26,0,84.18,84.18,0,0,0,27.21-13.68c18-13.63,27.6-32.81,27.7-55.46.22-50.84-47.32-117.49-49.35-120.3A8.5,8.5,0,0,0,1711.38,397.94Zm-48.77,123.38h0Zm88,.38c-.16,36.36-31.34,49.22-40,52.09-8.64-3-39.67-16.09-39.52-52.43.15-34.51,27.12-79.84,40.17-99.76,4.43,6.88,10.47,16.77,16.49,28.2C1742.78,478.32,1750.67,503.19,1750.59,521.7Z"/><path class="cls-2" d="M1710.84,524.31h0a8.5,8.5,0,0,0-8.5,8.46l-.91,212.64a8.5,8.5,0,0,0,8.46,8.54h0a8.5,8.5,0,0,0,8.5-8.46l.91-212.64A8.5,8.5,0,0,0,1710.84,524.31Z"/><path class="cls-11" d="M1558.42,558.45s9.78,63.45,36.58,90.48,60.46,7.39,60.46,7.39,19.92-33.49-6.88-60.52S1558.42,558.45,1558.42,558.45Z"/><path class="cls-2" d="M1559.79,550.06a8.5,8.5,0,0,0-9.77,9.68c.42,2.7,10.53,66.51,38.94,95.17a54.68,54.68,0,0,0,39.82,16.76,64.11,64.11,0,0,0,31-8,8.5,8.5,0,0,0,3-3c8.05-13.54,16.72-45.77-8.14-70.85C1626.21,561.17,1562.49,550.5,1559.79,550.06ZM1649.2,650c-6.78,3.16-29.63,11.64-48.15-7-9.95-10-19-27.89-26.17-51.63-2.51-8.32-4.39-16-5.69-22,5.92,1.34,13.53,3.26,21.76,5.82,23.79,7.39,41.63,16.61,51.61,26.68C1661.15,620.55,1652.47,643.18,1649.2,650Z"/><path class="cls-2" d="M1628.44,617a8.5,8.5,0,1,0-12.07,12L1704,717.36a8.5,8.5,0,1,0,12.07-12Z"/><path class="cls-11" d="M1765.08,656.8s33.49,19.92,60.52-6.87S1863,559.76,1863,559.76s-63.45,9.78-90.48,36.58S1765.08,656.8,1765.08,656.8Z"/><path class="cls-2" d="M1861.66,551.36c-2.7.42-66.51,10.53-95.17,38.95-25.08,24.86-16.69,57.17-8.75,70.77a8.5,8.5,0,0,0,3,3,64.12,64.12,0,0,0,31.4,8.27A54.66,54.66,0,0,0,1831.58,656c28.66-28.41,39.32-92.13,39.76-94.83a8.5,8.5,0,0,0-9.68-9.77Zm-36.06,98.56h0Zm20.7-57.65c-7.39,23.79-16.61,41.63-26.68,51.61-18.76,18.6-41.39,9.92-48.19,6.65-3.16-6.78-11.65-29.63,7-48.15,10-9.95,27.89-19,51.63-26.17,8.32-2.51,16-4.39,22-5.69C1850.77,576.43,1848.85,584,1846.29,592.27Z"/><path class="cls-2" d="M1793,617.19,1704,705.33a8.5,8.5,0,1,0,12,12.07l88.91-88.14a8.5,8.5,0,1,0-12-12.07Z"/><polygon class="cls-1" points="1671.85 737.97 1593.83 737.57 1626.43 928.2 1671.17 928.42 1747.02 928.81 1791.77 929.04 1825.72 738.75 1747.7 738.35 1671.85 737.97"/><path class="cls-2" d="M1825.76,730.25l-231.88-1.18h0a8.5,8.5,0,0,0-8.38,9.93L1618,929.63a8.5,8.5,0,0,0,8.34,7.07l165.34.84h0a8.5,8.5,0,0,0,8.37-7l34-190.29a8.5,8.5,0,0,0-8.32-10ZM1784.66,920.5l-151.05-.77-29.68-173.61,211.66,1.08Z"/><polygon class="cls-1" points="3091.94 929.04 3205.11 929.04 3225.77 706.95 3071.28 706.95 3091.94 929.04"/><path class="cls-2" d="M3225.77,698.45H3071.28a8.5,8.5,0,0,0-8.46,9.29l20.66,222.09a8.5,8.5,0,0,0,8.46,7.71h113.17a8.5,8.5,0,0,0,8.46-7.71l20.66-222.09a8.5,8.5,0,0,0-8.46-9.29Zm-28.41,222.09h-97.68l-19.08-205.09h135.84Z"/><polygon class="cls-8" points="3091.28 678.95 3071.28 706.95 3225.77 706.95 3208.77 678.95 3091.28 678.95"/><path class="cls-2" d="M3216,674.54a8.5,8.5,0,0,0-7.27-4.09H3091.28a8.5,8.5,0,0,0-6.92,3.56l-20,28a8.5,8.5,0,0,0,6.92,13.44h154.49a8.5,8.5,0,0,0,7.27-12.91ZM3087.8,698.45l7.86-11H3204l6.68,11Z"/><path class="cls-12" d="M3114.14,843.45h12.19l29.6-63.56-6.1-12.19-35.7,75.75Zm40.92-40.92,6.1-11.32,24.38,51.37-12.19.87-18.28-40.92Z"/><path class="cls-13" d="M1047.2,783.43h12.19l29.6-63.56-6.1-12.19-35.7,75.75Zm40.92-40.92,6.1-11.32,24.38,51.37-12.19.87-18.28-40.92Z"/><path class="cls-13" d="M3492.14,788.44h12.19l29.6-63.56-6.1-12.19-35.7,75.75Zm40.92-40.92,6.1-11.32,24.38,51.37-12.19.87-18.28-40.92Z"/></g></g></svg>